%FSLAX33Y33*%
%MOMM*%
%AMRect-W3100000-H3100000-RO0.500*
21,1,3.1,3.1,0.,0.,270*%
%ADD10C,0.68834*%
%ADD11C,3.1*%
%ADD12Rect-W3100000-H3100000-RO0.500*%
%ADD13R,1.25X1.25*%
%ADD14C,1.25*%
%ADD15R,2.049999X2.049999*%
%ADD16C,2.049999*%
D10*
%LNtop solder mask_traces*%
G01*
X18730Y27620D03*
X22500Y23050D03*
X20000Y17460D03*
X21270Y85080D03*
X20000Y14920D03*
X20000Y77460D03*
X20000Y74920D03*
X18730Y85080D03*
X18730Y82540D03*
X21270Y82540D03*
X20000Y72380D03*
X21270Y87620D03*
X21270Y27620D03*
X22400Y76950D03*
X18730Y22540D03*
X20000Y12380D03*
X18730Y87620D03*
X18730Y25080D03*
X21270Y25080D03*
%LNtop solder mask component 4c3a839cc4dba6ed*%
D11*
X6900Y5000D03*
X12700Y5000D03*
D12*
X1600Y5000D03*
%LNtop solder mask component ba0877bb6bc26cf2*%
D11*
X6900Y35000D03*
X12700Y35000D03*
D12*
X1600Y35000D03*
%LNtop solder mask component 9071adfbe8ae3b6c*%
D11*
X6900Y75000D03*
X12700Y75000D03*
D12*
X1600Y75000D03*
%LNtop solder mask component c93c00dc5441e820*%
D11*
X6900Y45000D03*
X12700Y45000D03*
D12*
X1600Y45000D03*
%LNtop solder mask component 516a5c75c69ad2a6*%
D11*
X6900Y65000D03*
X12700Y65000D03*
D12*
X1600Y65000D03*
%LNtop solder mask component 5a50b965c9c32fba*%
D13*
X16030Y87620D03*
D14*
X16030Y85080D03*
X16030Y82540D03*
X16030Y80000D03*
X16030Y77460D03*
X16030Y74920D03*
X16030Y72380D03*
X23970Y72380D03*
X23970Y74920D03*
X23970Y77460D03*
X23970Y80000D03*
X23970Y82540D03*
X23970Y85080D03*
X23970Y87620D03*
%LNtop solder mask component ae39ba31ac976df4*%
D11*
X6900Y95000D03*
X12700Y95000D03*
D12*
X1600Y95000D03*
%LNtop solder mask component 200ab983de98e639*%
D13*
X16030Y27620D03*
D14*
X16030Y25080D03*
X16030Y22540D03*
X16030Y20000D03*
X16030Y17460D03*
X16030Y14920D03*
X16030Y12380D03*
X23970Y12380D03*
X23970Y14920D03*
X23970Y17460D03*
X23970Y20000D03*
X23970Y22540D03*
X23970Y25080D03*
X23970Y27620D03*
%LNtop solder mask component 2ec5409f7aeb9a08*%
D11*
X6900Y25000D03*
X12700Y25000D03*
D12*
X1600Y25000D03*
%LNtop solder mask component 11c41314eb843edd*%
D11*
X6900Y15000D03*
X12700Y15000D03*
D12*
X1600Y15000D03*
%LNtop solder mask component 987a67062850e8ba*%
D11*
X6900Y85000D03*
X12700Y85000D03*
D12*
X1600Y85000D03*
%LNtop solder mask component 342f6c2ee5101998*%
D15*
X18730Y58890D03*
D16*
X18730Y56350D03*
X18730Y53810D03*
X18730Y51270D03*
X18730Y48730D03*
X18730Y46190D03*
X18730Y43650D03*
X18730Y41110D03*
X21270Y58890D03*
X21270Y56350D03*
X21270Y53810D03*
X21270Y51270D03*
X21270Y48730D03*
X21270Y46190D03*
X21270Y43650D03*
X21270Y41110D03*
%LNtop solder mask component fe42edb4fd5de6d8*%
D11*
X6900Y55000D03*
X12700Y55000D03*
D12*
X1600Y55000D03*
M02*