%FSLAX33Y33*%
%MOMM*%
%ADD10C,0.15*%
D10*
%LNbottom silkscreen_traces*%
%LNbottom silkscreen component 1c9507c30673ee66*%
G01*
X9585Y98125D02*
X10415Y98125D01*
X9585Y96875D02*
X10415Y96875D01*
G36*
X10511Y98500D02*
X10511Y99216D01*
X10194Y99216D01*
X10149Y99215D01*
X10109Y99211D01*
X10076Y99205D01*
X10048Y99197D01*
X10024Y99185D01*
X10003Y99170D01*
X9985Y99151D01*
X9969Y99128D01*
X9956Y99103D01*
X9946Y99077D01*
X9941Y99049D01*
X9939Y99021D01*
X9942Y98984D01*
X9951Y98950D01*
X9967Y98920D01*
X9988Y98892D01*
X10016Y98868D01*
X10051Y98849D01*
X10092Y98835D01*
X10116Y98830D01*
X10131Y98907D01*
X10111Y98913D01*
X10094Y98921D01*
X10079Y98931D01*
X10066Y98943D01*
X10055Y98956D01*
X10047Y98971D01*
X10041Y98987D01*
X10038Y99003D01*
X10036Y99021D01*
X10039Y99045D01*
X10046Y99067D01*
X10057Y99087D01*
X10073Y99104D01*
X10094Y99118D01*
X10121Y99129D01*
X10153Y99135D01*
X10190Y99137D01*
X10416Y99137D01*
X10416Y98900D01*
X10416Y98900D01*
X10213Y98900D01*
X10182Y98901D01*
X10155Y98903D01*
X10131Y98907D01*
X10116Y98830D01*
X10140Y98826D01*
X10123Y98817D01*
X10107Y98808D01*
X10094Y98799D01*
X10083Y98790D01*
X10063Y98770D01*
X10043Y98747D01*
X10024Y98722D01*
X10005Y98695D01*
X9880Y98500D01*
X9999Y98500D01*
X10094Y98649D01*
X10114Y98679D01*
X10132Y98706D01*
X10148Y98729D01*
X10162Y98748D01*
X10175Y98763D01*
X10188Y98777D01*
X10200Y98787D01*
X10210Y98795D01*
X10221Y98802D01*
X10232Y98807D01*
X10243Y98811D01*
X10254Y98814D01*
X10263Y98816D01*
X10275Y98817D01*
X10289Y98818D01*
X10306Y98818D01*
X10416Y98818D01*
X10416Y98500D01*
X10511Y98500D01*
X10511Y98500D01*
X9813Y98666D02*
X9728Y98673D01*
X9722Y98646D01*
X9713Y98622D01*
X9701Y98602D01*
X9687Y98587D01*
X9671Y98575D01*
X9653Y98567D01*
X9632Y98562D01*
X9610Y98560D01*
X9590Y98561D01*
X9572Y98565D01*
X9554Y98570D01*
X9539Y98579D01*
X9524Y98589D01*
X9511Y98600D01*
X9499Y98613D01*
X9489Y98628D01*
X9479Y98645D01*
X9471Y98665D01*
X9463Y98687D01*
X9456Y98712D01*
X9450Y98738D01*
X9446Y98765D01*
X9443Y98792D01*
X9443Y98819D01*
X9443Y98823D01*
X9443Y98827D01*
X9443Y98831D01*
X9443Y98837D01*
X9487Y98869D01*
X9475Y98886D01*
X9463Y98914D01*
X9455Y98946D01*
X9453Y98981D01*
X9453Y98981D01*
X9455Y99017D01*
X9463Y99049D01*
X9476Y99077D01*
X9493Y99102D01*
X9514Y99121D01*
X9538Y99135D01*
X9563Y99143D01*
X9590Y99146D01*
X9618Y99143D01*
X9645Y99134D01*
X9670Y99119D01*
X9692Y99098D01*
X9711Y99072D01*
X9725Y99043D01*
X9733Y99010D01*
X9736Y98974D01*
X9733Y98942D01*
X9725Y98912D01*
X9712Y98886D01*
X9694Y98863D01*
X9673Y98844D01*
X9648Y98831D01*
X9622Y98823D01*
X9593Y98820D01*
X9563Y98823D01*
X9537Y98831D01*
X9513Y98844D01*
X9492Y98863D01*
X9487Y98869D01*
X9443Y98837D01*
X9458Y98817D01*
X9474Y98799D01*
X9494Y98783D01*
X9515Y98769D01*
X9538Y98757D01*
X9563Y98749D01*
X9588Y98744D01*
X9614Y98743D01*
X9657Y98747D01*
X9696Y98759D01*
X9732Y98779D01*
X9764Y98807D01*
X9791Y98842D01*
X9811Y98882D01*
X9822Y98927D01*
X9826Y98977D01*
X9822Y99029D01*
X9810Y99075D01*
X9790Y99116D01*
X9762Y99152D01*
X9728Y99181D01*
X9689Y99202D01*
X9647Y99215D01*
X9601Y99219D01*
X9567Y99216D01*
X9534Y99209D01*
X9503Y99198D01*
X9473Y99181D01*
X9446Y99160D01*
X9422Y99136D01*
X9402Y99107D01*
X9385Y99074D01*
X9372Y99035D01*
X9363Y98989D01*
X9357Y98935D01*
X9355Y98873D01*
X9357Y98807D01*
X9363Y98749D01*
X9372Y98698D01*
X9385Y98654D01*
X9402Y98616D01*
X9422Y98582D01*
X9446Y98554D01*
X9474Y98530D01*
X9504Y98512D01*
X9538Y98498D01*
X9573Y98490D01*
X9612Y98488D01*
X9652Y98491D01*
X9688Y98499D01*
X9720Y98514D01*
X9749Y98534D01*
X9773Y98560D01*
X9791Y98591D01*
X9805Y98626D01*
X9813Y98666D01*
X9813Y98666D01*
G37*
%LNbottom silkscreen component d0f1cea9c40e7c44*%
X9585Y3125D02*
X10415Y3125D01*
X9585Y1875D02*
X10415Y1875D01*
G36*
X10511Y3500D02*
X10511Y4216D01*
X10194Y4216D01*
X10149Y4215D01*
X10109Y4211D01*
X10076Y4205D01*
X10048Y4197D01*
X10024Y4185D01*
X10003Y4170D01*
X9985Y4151D01*
X9969Y4128D01*
X9956Y4103D01*
X9946Y4077D01*
X9941Y4049D01*
X9939Y4021D01*
X9942Y3984D01*
X9951Y3950D01*
X9967Y3920D01*
X9988Y3892D01*
X10016Y3868D01*
X10051Y3849D01*
X10092Y3835D01*
X10116Y3830D01*
X10131Y3907D01*
X10111Y3913D01*
X10094Y3921D01*
X10079Y3931D01*
X10066Y3943D01*
X10055Y3956D01*
X10047Y3971D01*
X10041Y3987D01*
X10038Y4003D01*
X10036Y4021D01*
X10039Y4045D01*
X10046Y4067D01*
X10057Y4087D01*
X10073Y4104D01*
X10094Y4118D01*
X10121Y4129D01*
X10153Y4135D01*
X10190Y4137D01*
X10416Y4137D01*
X10416Y3900D01*
X10416Y3900D01*
X10213Y3900D01*
X10182Y3901D01*
X10155Y3903D01*
X10131Y3907D01*
X10116Y3830D01*
X10140Y3826D01*
X10123Y3817D01*
X10107Y3808D01*
X10094Y3799D01*
X10083Y3790D01*
X10063Y3770D01*
X10043Y3747D01*
X10024Y3722D01*
X10005Y3695D01*
X9880Y3500D01*
X9999Y3500D01*
X10094Y3649D01*
X10114Y3679D01*
X10132Y3706D01*
X10148Y3729D01*
X10162Y3748D01*
X10175Y3763D01*
X10188Y3777D01*
X10200Y3787D01*
X10210Y3795D01*
X10221Y3802D01*
X10232Y3807D01*
X10243Y3811D01*
X10254Y3814D01*
X10263Y3816D01*
X10275Y3817D01*
X10289Y3818D01*
X10306Y3818D01*
X10416Y3818D01*
X10416Y3500D01*
X10511Y3500D01*
X10511Y3500D01*
X9691Y3888D02*
X9662Y3833D01*
X9674Y3827D01*
X9696Y3809D01*
X9714Y3787D01*
X9726Y3763D01*
X9734Y3736D01*
X9737Y3707D01*
X9737Y3707D01*
X9735Y3688D01*
X9732Y3670D01*
X9727Y3652D01*
X9719Y3634D01*
X9709Y3617D01*
X9697Y3603D01*
X9682Y3590D01*
X9666Y3579D01*
X9648Y3571D01*
X9629Y3565D01*
X9610Y3561D01*
X9590Y3560D01*
X9560Y3563D01*
X9533Y3570D01*
X9508Y3583D01*
X9486Y3601D01*
X9468Y3622D01*
X9455Y3647D01*
X9448Y3674D01*
X9445Y3704D01*
X9448Y3734D01*
X9456Y3762D01*
X9469Y3786D01*
X9487Y3809D01*
X9510Y3827D01*
X9535Y3840D01*
X9563Y3848D01*
X9593Y3850D01*
X9623Y3848D01*
X9650Y3840D01*
X9662Y3833D01*
X9691Y3888D01*
X9658Y3940D01*
X9638Y3930D01*
X9616Y3924D01*
X9591Y3922D01*
X9566Y3924D01*
X9544Y3930D01*
X9525Y3940D01*
X9507Y3954D01*
X9493Y3971D01*
X9483Y3989D01*
X9477Y4010D01*
X9475Y4032D01*
X9477Y4055D01*
X9483Y4077D01*
X9494Y4096D01*
X9508Y4114D01*
X9526Y4128D01*
X9546Y4138D01*
X9568Y4144D01*
X9592Y4146D01*
X9616Y4144D01*
X9638Y4138D01*
X9657Y4128D01*
X9675Y4114D01*
X9690Y4097D01*
X9700Y4079D01*
X9706Y4059D01*
X9708Y4037D01*
X9708Y4037D01*
X9706Y4013D01*
X9700Y3991D01*
X9690Y3971D01*
X9676Y3954D01*
X9658Y3940D01*
X9691Y3888D01*
X9716Y3899D01*
X9738Y3912D01*
X9757Y3928D01*
X9772Y3945D01*
X9783Y3965D01*
X9792Y3986D01*
X9796Y4009D01*
X9798Y4034D01*
X9795Y4072D01*
X9784Y4106D01*
X9767Y4137D01*
X9742Y4166D01*
X9712Y4189D01*
X9677Y4205D01*
X9637Y4215D01*
X9593Y4219D01*
X9548Y4215D01*
X9508Y4205D01*
X9473Y4188D01*
X9442Y4164D01*
X9417Y4136D01*
X9399Y4104D01*
X9388Y4069D01*
X9385Y4032D01*
X9386Y4008D01*
X9391Y3985D01*
X9399Y3964D01*
X9411Y3945D01*
X9425Y3928D01*
X9444Y3912D01*
X9465Y3899D01*
X9490Y3888D01*
X9459Y3876D01*
X9432Y3860D01*
X9409Y3841D01*
X9390Y3819D01*
X9375Y3794D01*
X9364Y3766D01*
X9357Y3737D01*
X9355Y3705D01*
X9359Y3661D01*
X9371Y3620D01*
X9392Y3583D01*
X9420Y3550D01*
X9455Y3523D01*
X9495Y3503D01*
X9541Y3492D01*
X9591Y3488D01*
X9642Y3492D01*
X9687Y3503D01*
X9727Y3523D01*
X9762Y3551D01*
X9790Y3584D01*
X9811Y3621D01*
X9823Y3662D01*
X9827Y3707D01*
X9825Y3741D01*
X9818Y3771D01*
X9807Y3799D01*
X9792Y3824D01*
X9772Y3846D01*
X9749Y3864D01*
X9722Y3878D01*
X9691Y3888D01*
X9691Y3888D01*
G37*
%LNbottom silkscreen component 5554f0675f3d2049*%
X9585Y13125D02*
X10415Y13125D01*
X9585Y11875D02*
X10415Y11875D01*
G36*
X10511Y13500D02*
X10511Y14216D01*
X10194Y14216D01*
X10149Y14215D01*
X10109Y14211D01*
X10076Y14205D01*
X10048Y14197D01*
X10024Y14185D01*
X10003Y14170D01*
X9985Y14151D01*
X9969Y14128D01*
X9956Y14103D01*
X9946Y14077D01*
X9941Y14049D01*
X9939Y14021D01*
X9942Y13984D01*
X9951Y13950D01*
X9967Y13920D01*
X9988Y13892D01*
X10016Y13868D01*
X10051Y13849D01*
X10092Y13835D01*
X10116Y13830D01*
X10131Y13907D01*
X10111Y13913D01*
X10094Y13921D01*
X10079Y13931D01*
X10066Y13943D01*
X10055Y13956D01*
X10047Y13971D01*
X10041Y13987D01*
X10038Y14003D01*
X10036Y14021D01*
X10039Y14045D01*
X10046Y14067D01*
X10057Y14087D01*
X10073Y14104D01*
X10094Y14118D01*
X10121Y14129D01*
X10153Y14135D01*
X10190Y14137D01*
X10416Y14137D01*
X10416Y13900D01*
X10416Y13900D01*
X10213Y13900D01*
X10182Y13901D01*
X10155Y13903D01*
X10131Y13907D01*
X10116Y13830D01*
X10140Y13826D01*
X10123Y13817D01*
X10107Y13808D01*
X10094Y13799D01*
X10083Y13790D01*
X10063Y13770D01*
X10043Y13747D01*
X10024Y13722D01*
X10005Y13695D01*
X9880Y13500D01*
X9999Y13500D01*
X10094Y13649D01*
X10114Y13679D01*
X10132Y13706D01*
X10148Y13729D01*
X10162Y13748D01*
X10175Y13763D01*
X10188Y13777D01*
X10200Y13787D01*
X10210Y13795D01*
X10221Y13802D01*
X10232Y13807D01*
X10243Y13811D01*
X10254Y13814D01*
X10263Y13816D01*
X10275Y13817D01*
X10289Y13818D01*
X10306Y13818D01*
X10416Y13818D01*
X10416Y13500D01*
X10511Y13500D01*
X10511Y13500D01*
X9820Y14122D02*
X9820Y14207D01*
X9357Y14207D01*
X9357Y14138D01*
X9391Y14099D01*
X9425Y14053D01*
X9459Y14002D01*
X9492Y13945D01*
X9524Y13884D01*
X9552Y13823D01*
X9576Y13760D01*
X9596Y13697D01*
X9608Y13651D01*
X9618Y13603D01*
X9625Y13552D01*
X9630Y13500D01*
X9720Y13500D01*
X9717Y13544D01*
X9711Y13593D01*
X9701Y13646D01*
X9687Y13704D01*
X9669Y13763D01*
X9648Y13822D01*
X9624Y13879D01*
X9596Y13935D01*
X9566Y13988D01*
X9535Y14037D01*
X9502Y14082D01*
X9470Y14122D01*
X9820Y14122D01*
X9820Y14122D01*
G37*
%LNbottom silkscreen component eaed5f5deb5b3e1f*%
X13915Y19375D02*
X13085Y19375D01*
X13915Y20625D02*
X13085Y20625D01*
G36*
X13602Y21151D02*
X13507Y21127D01*
X13525Y21072D01*
X13549Y21024D01*
X13578Y20983D01*
X13614Y20949D01*
X13655Y20922D01*
X13700Y20903D01*
X13750Y20892D01*
X13803Y20888D01*
X13859Y20891D01*
X13908Y20900D01*
X13953Y20914D01*
X13992Y20935D01*
X14026Y20961D01*
X14055Y20993D01*
X14081Y21029D01*
X14102Y21071D01*
X14119Y21117D01*
X14130Y21164D01*
X14137Y21213D01*
X14140Y21263D01*
X14137Y21317D01*
X14129Y21368D01*
X14116Y21415D01*
X14097Y21458D01*
X14073Y21497D01*
X14045Y21532D01*
X14013Y21561D01*
X13976Y21585D01*
X13935Y21604D01*
X13893Y21617D01*
X13848Y21625D01*
X13802Y21628D01*
X13750Y21625D01*
X13703Y21614D01*
X13660Y21597D01*
X13621Y21573D01*
X13587Y21543D01*
X13559Y21508D01*
X13536Y21466D01*
X13519Y21420D01*
X13612Y21398D01*
X13626Y21434D01*
X13643Y21465D01*
X13662Y21491D01*
X13685Y21511D01*
X13710Y21527D01*
X13738Y21538D01*
X13770Y21545D01*
X13804Y21547D01*
X13843Y21545D01*
X13880Y21537D01*
X13912Y21525D01*
X13942Y21507D01*
X13967Y21486D01*
X13989Y21461D01*
X14006Y21433D01*
X14020Y21401D01*
X14030Y21368D01*
X14037Y21334D01*
X14041Y21299D01*
X14042Y21264D01*
X14041Y21220D01*
X14036Y21178D01*
X14027Y21140D01*
X14016Y21104D01*
X14000Y21072D01*
X13982Y21045D01*
X13959Y21022D01*
X13933Y21003D01*
X13904Y20988D01*
X13874Y20977D01*
X13843Y20971D01*
X13811Y20969D01*
X13773Y20972D01*
X13738Y20980D01*
X13706Y20995D01*
X13676Y21015D01*
X13651Y21040D01*
X13630Y21072D01*
X13614Y21109D01*
X13602Y21151D01*
X13602Y21151D01*
X13425Y21089D02*
X13338Y21101D01*
X13329Y21066D01*
X13317Y21036D01*
X13303Y21012D01*
X13286Y20993D01*
X13267Y20979D01*
X13246Y20968D01*
X13223Y20962D01*
X13197Y20960D01*
X13168Y20963D01*
X13140Y20971D01*
X13115Y20984D01*
X13093Y21003D01*
X13074Y21026D01*
X13061Y21051D01*
X13053Y21079D01*
X13050Y21109D01*
X13052Y21138D01*
X13060Y21165D01*
X13072Y21188D01*
X13090Y21209D01*
X13111Y21227D01*
X13134Y21239D01*
X13161Y21246D01*
X13190Y21249D01*
X13203Y21248D01*
X13218Y21246D01*
X13234Y21243D01*
X13252Y21239D01*
X13242Y21316D01*
X13238Y21316D01*
X13234Y21315D01*
X13231Y21315D01*
X13228Y21315D01*
X13201Y21317D01*
X13175Y21322D01*
X13150Y21332D01*
X13127Y21344D01*
X13107Y21361D01*
X13093Y21382D01*
X13085Y21406D01*
X13082Y21435D01*
X13084Y21458D01*
X13090Y21479D01*
X13101Y21498D01*
X13115Y21515D01*
X13132Y21529D01*
X13152Y21539D01*
X13175Y21544D01*
X13199Y21546D01*
X13224Y21544D01*
X13246Y21538D01*
X13267Y21528D01*
X13285Y21514D01*
X13300Y21496D01*
X13313Y21474D01*
X13322Y21448D01*
X13329Y21418D01*
X13417Y21433D01*
X13406Y21475D01*
X13390Y21512D01*
X13369Y21543D01*
X13343Y21570D01*
X13313Y21591D01*
X13279Y21607D01*
X13242Y21616D01*
X13201Y21619D01*
X13173Y21617D01*
X13145Y21612D01*
X13119Y21605D01*
X13093Y21594D01*
X13070Y21580D01*
X13050Y21564D01*
X13033Y21546D01*
X13018Y21525D01*
X13007Y21503D01*
X12998Y21480D01*
X12994Y21457D01*
X12992Y21433D01*
X12993Y21410D01*
X12998Y21388D01*
X13006Y21368D01*
X13017Y21348D01*
X13031Y21330D01*
X13048Y21314D01*
X13068Y21300D01*
X13091Y21288D01*
X13061Y21278D01*
X13034Y21265D01*
X13011Y21248D01*
X12992Y21227D01*
X12977Y21202D01*
X12966Y21175D01*
X12959Y21145D01*
X12957Y21111D01*
X12961Y21066D01*
X12974Y21025D01*
X12995Y20987D01*
X13025Y20952D01*
X13062Y20924D01*
X13102Y20904D01*
X13148Y20891D01*
X13198Y20887D01*
X13243Y20891D01*
X13284Y20901D01*
X13321Y20919D01*
X13354Y20943D01*
X13382Y20974D01*
X13403Y21008D01*
X13418Y21046D01*
X13425Y21089D01*
X13425Y21089D01*
G37*
%LNbottom silkscreen component 0fefc724005e8df5*%
X9585Y23125D02*
X10415Y23125D01*
X9585Y21875D02*
X10415Y21875D01*
G36*
X10511Y23500D02*
X10511Y24216D01*
X10194Y24216D01*
X10149Y24215D01*
X10109Y24211D01*
X10076Y24205D01*
X10048Y24197D01*
X10024Y24185D01*
X10003Y24170D01*
X9985Y24151D01*
X9969Y24128D01*
X9956Y24103D01*
X9946Y24077D01*
X9941Y24049D01*
X9939Y24021D01*
X9942Y23984D01*
X9951Y23950D01*
X9967Y23920D01*
X9988Y23892D01*
X10016Y23868D01*
X10051Y23849D01*
X10092Y23835D01*
X10116Y23830D01*
X10131Y23907D01*
X10111Y23913D01*
X10094Y23921D01*
X10079Y23931D01*
X10066Y23943D01*
X10055Y23956D01*
X10047Y23971D01*
X10041Y23987D01*
X10038Y24003D01*
X10036Y24021D01*
X10039Y24045D01*
X10046Y24067D01*
X10057Y24087D01*
X10073Y24104D01*
X10094Y24118D01*
X10121Y24129D01*
X10153Y24135D01*
X10190Y24137D01*
X10416Y24137D01*
X10416Y23900D01*
X10416Y23900D01*
X10213Y23900D01*
X10182Y23901D01*
X10155Y23903D01*
X10131Y23907D01*
X10116Y23830D01*
X10140Y23826D01*
X10123Y23817D01*
X10107Y23808D01*
X10094Y23799D01*
X10083Y23790D01*
X10063Y23770D01*
X10043Y23747D01*
X10024Y23722D01*
X10005Y23695D01*
X9880Y23500D01*
X9999Y23500D01*
X10094Y23649D01*
X10114Y23679D01*
X10132Y23706D01*
X10148Y23729D01*
X10162Y23748D01*
X10175Y23763D01*
X10188Y23777D01*
X10200Y23787D01*
X10210Y23795D01*
X10221Y23802D01*
X10232Y23807D01*
X10243Y23811D01*
X10254Y23814D01*
X10263Y23816D01*
X10275Y23817D01*
X10289Y23818D01*
X10306Y23818D01*
X10416Y23818D01*
X10416Y23500D01*
X10511Y23500D01*
X10511Y23500D01*
X9370Y24041D02*
X9457Y24034D01*
X9464Y24058D01*
X9471Y24078D01*
X9480Y24095D01*
X9491Y24109D01*
X9509Y24125D01*
X9530Y24137D01*
X9553Y24144D01*
X9578Y24146D01*
X9599Y24145D01*
X9618Y24141D01*
X9636Y24133D01*
X9652Y24123D01*
X9672Y24106D01*
X9689Y24086D01*
X9705Y24062D01*
X9718Y24035D01*
X9728Y24003D01*
X9736Y23964D01*
X9741Y23920D01*
X9742Y23869D01*
X9696Y23833D01*
X9705Y23821D01*
X9718Y23795D01*
X9726Y23765D01*
X9729Y23732D01*
X9729Y23732D01*
X9728Y23709D01*
X9724Y23687D01*
X9718Y23666D01*
X9710Y23645D01*
X9699Y23626D01*
X9686Y23608D01*
X9672Y23594D01*
X9656Y23582D01*
X9638Y23572D01*
X9620Y23565D01*
X9602Y23561D01*
X9583Y23560D01*
X9556Y23563D01*
X9531Y23571D01*
X9508Y23585D01*
X9487Y23605D01*
X9470Y23629D01*
X9457Y23658D01*
X9450Y23690D01*
X9447Y23727D01*
X9450Y23762D01*
X9457Y23793D01*
X9469Y23821D01*
X9487Y23844D01*
X9508Y23863D01*
X9531Y23876D01*
X9557Y23884D01*
X9586Y23887D01*
X9615Y23884D01*
X9641Y23876D01*
X9665Y23863D01*
X9687Y23844D01*
X9696Y23833D01*
X9742Y23869D01*
X9726Y23892D01*
X9707Y23911D01*
X9687Y23928D01*
X9665Y23941D01*
X9642Y23951D01*
X9618Y23958D01*
X9594Y23963D01*
X9569Y23964D01*
X9526Y23960D01*
X9487Y23948D01*
X9451Y23928D01*
X9419Y23900D01*
X9392Y23865D01*
X9373Y23826D01*
X9361Y23781D01*
X9357Y23732D01*
X9359Y23699D01*
X9364Y23667D01*
X9374Y23637D01*
X9386Y23607D01*
X9402Y23580D01*
X9421Y23556D01*
X9442Y23536D01*
X9466Y23519D01*
X9492Y23505D01*
X9520Y23495D01*
X9550Y23490D01*
X9581Y23488D01*
X9634Y23493D01*
X9681Y23508D01*
X9723Y23533D01*
X9761Y23569D01*
X9791Y23616D01*
X9813Y23676D01*
X9826Y23749D01*
X9830Y23835D01*
X9825Y23932D01*
X9811Y24014D01*
X9787Y24083D01*
X9753Y24137D01*
X9717Y24173D01*
X9675Y24198D01*
X9627Y24214D01*
X9573Y24219D01*
X9533Y24216D01*
X9496Y24207D01*
X9463Y24192D01*
X9435Y24171D01*
X9410Y24145D01*
X9391Y24115D01*
X9378Y24080D01*
X9370Y24041D01*
X9370Y24041D01*
G37*
%LNbottom silkscreen component f1d5df593f81f1a4*%
X9585Y68125D02*
X10415Y68125D01*
X9585Y66875D02*
X10415Y66875D01*
G36*
X10511Y68450D02*
X10511Y69166D01*
X10194Y69166D01*
X10149Y69165D01*
X10109Y69161D01*
X10076Y69155D01*
X10048Y69147D01*
X10024Y69135D01*
X10003Y69120D01*
X9985Y69101D01*
X9969Y69078D01*
X9956Y69053D01*
X9946Y69027D01*
X9941Y68999D01*
X9939Y68971D01*
X9942Y68934D01*
X9951Y68900D01*
X9967Y68870D01*
X9988Y68842D01*
X10016Y68818D01*
X10051Y68799D01*
X10092Y68785D01*
X10116Y68780D01*
X10131Y68857D01*
X10111Y68863D01*
X10094Y68871D01*
X10079Y68881D01*
X10066Y68893D01*
X10055Y68906D01*
X10047Y68921D01*
X10041Y68937D01*
X10038Y68953D01*
X10036Y68971D01*
X10039Y68995D01*
X10046Y69017D01*
X10057Y69037D01*
X10073Y69054D01*
X10094Y69068D01*
X10121Y69079D01*
X10153Y69085D01*
X10190Y69087D01*
X10416Y69087D01*
X10416Y68850D01*
X10416Y68850D01*
X10213Y68850D01*
X10182Y68851D01*
X10155Y68853D01*
X10131Y68857D01*
X10116Y68780D01*
X10140Y68776D01*
X10123Y68767D01*
X10107Y68758D01*
X10094Y68749D01*
X10083Y68740D01*
X10063Y68720D01*
X10043Y68697D01*
X10024Y68672D01*
X10005Y68645D01*
X9880Y68450D01*
X9999Y68450D01*
X10094Y68599D01*
X10114Y68629D01*
X10132Y68656D01*
X10148Y68679D01*
X10162Y68698D01*
X10175Y68713D01*
X10188Y68727D01*
X10200Y68737D01*
X10210Y68745D01*
X10221Y68752D01*
X10232Y68757D01*
X10243Y68761D01*
X10254Y68764D01*
X10263Y68766D01*
X10275Y68767D01*
X10289Y68768D01*
X10306Y68768D01*
X10416Y68768D01*
X10416Y68450D01*
X10511Y68450D01*
X10511Y68450D01*
X9825Y68639D02*
X9738Y68651D01*
X9729Y68616D01*
X9717Y68586D01*
X9703Y68562D01*
X9686Y68543D01*
X9667Y68529D01*
X9646Y68518D01*
X9623Y68512D01*
X9597Y68510D01*
X9568Y68513D01*
X9540Y68521D01*
X9515Y68534D01*
X9493Y68553D01*
X9474Y68576D01*
X9461Y68601D01*
X9453Y68629D01*
X9450Y68659D01*
X9452Y68688D01*
X9460Y68715D01*
X9472Y68738D01*
X9490Y68759D01*
X9511Y68777D01*
X9534Y68789D01*
X9561Y68796D01*
X9590Y68799D01*
X9603Y68798D01*
X9618Y68796D01*
X9634Y68793D01*
X9652Y68789D01*
X9642Y68866D01*
X9638Y68866D01*
X9634Y68865D01*
X9631Y68865D01*
X9628Y68865D01*
X9601Y68867D01*
X9575Y68872D01*
X9550Y68882D01*
X9527Y68894D01*
X9507Y68911D01*
X9493Y68932D01*
X9485Y68956D01*
X9482Y68985D01*
X9484Y69008D01*
X9490Y69029D01*
X9501Y69048D01*
X9515Y69065D01*
X9532Y69079D01*
X9552Y69089D01*
X9575Y69094D01*
X9599Y69096D01*
X9624Y69094D01*
X9646Y69088D01*
X9667Y69078D01*
X9685Y69064D01*
X9700Y69046D01*
X9713Y69024D01*
X9722Y68998D01*
X9729Y68968D01*
X9817Y68983D01*
X9806Y69025D01*
X9790Y69062D01*
X9769Y69093D01*
X9743Y69120D01*
X9713Y69141D01*
X9679Y69157D01*
X9642Y69166D01*
X9601Y69169D01*
X9573Y69167D01*
X9545Y69162D01*
X9519Y69155D01*
X9493Y69144D01*
X9470Y69130D01*
X9450Y69114D01*
X9433Y69096D01*
X9418Y69075D01*
X9407Y69053D01*
X9398Y69030D01*
X9394Y69007D01*
X9392Y68983D01*
X9393Y68960D01*
X9398Y68938D01*
X9406Y68918D01*
X9417Y68898D01*
X9431Y68880D01*
X9448Y68864D01*
X9468Y68850D01*
X9491Y68838D01*
X9461Y68828D01*
X9434Y68815D01*
X9411Y68798D01*
X9392Y68777D01*
X9377Y68752D01*
X9366Y68725D01*
X9359Y68695D01*
X9357Y68661D01*
X9361Y68616D01*
X9374Y68575D01*
X9395Y68537D01*
X9425Y68502D01*
X9462Y68474D01*
X9502Y68454D01*
X9548Y68441D01*
X9598Y68437D01*
X9643Y68441D01*
X9684Y68451D01*
X9721Y68469D01*
X9754Y68493D01*
X9782Y68524D01*
X9803Y68558D01*
X9818Y68596D01*
X9825Y68639D01*
X9825Y68639D01*
G37*
%LNbottom silkscreen component 6fcb7afaa1c59582*%
X9585Y33125D02*
X10415Y33125D01*
X9585Y31875D02*
X10415Y31875D01*
G36*
X10511Y33500D02*
X10511Y34216D01*
X10194Y34216D01*
X10149Y34215D01*
X10109Y34211D01*
X10076Y34205D01*
X10048Y34197D01*
X10024Y34185D01*
X10003Y34170D01*
X9985Y34151D01*
X9969Y34128D01*
X9956Y34103D01*
X9946Y34077D01*
X9941Y34049D01*
X9939Y34021D01*
X9942Y33984D01*
X9951Y33950D01*
X9967Y33920D01*
X9988Y33892D01*
X10016Y33868D01*
X10051Y33849D01*
X10092Y33835D01*
X10116Y33830D01*
X10131Y33907D01*
X10111Y33913D01*
X10094Y33921D01*
X10079Y33931D01*
X10066Y33943D01*
X10055Y33956D01*
X10047Y33971D01*
X10041Y33987D01*
X10038Y34003D01*
X10036Y34021D01*
X10039Y34045D01*
X10046Y34067D01*
X10057Y34087D01*
X10073Y34104D01*
X10094Y34118D01*
X10121Y34129D01*
X10153Y34135D01*
X10190Y34137D01*
X10416Y34137D01*
X10416Y33900D01*
X10416Y33900D01*
X10213Y33900D01*
X10182Y33901D01*
X10155Y33903D01*
X10131Y33907D01*
X10116Y33830D01*
X10140Y33826D01*
X10123Y33817D01*
X10107Y33808D01*
X10094Y33799D01*
X10083Y33790D01*
X10063Y33770D01*
X10043Y33747D01*
X10024Y33722D01*
X10005Y33695D01*
X9880Y33500D01*
X9999Y33500D01*
X10094Y33649D01*
X10114Y33679D01*
X10132Y33706D01*
X10148Y33729D01*
X10162Y33748D01*
X10175Y33763D01*
X10188Y33777D01*
X10200Y33787D01*
X10210Y33795D01*
X10221Y33802D01*
X10232Y33807D01*
X10243Y33811D01*
X10254Y33814D01*
X10263Y33816D01*
X10275Y33817D01*
X10289Y33818D01*
X10306Y33818D01*
X10416Y33818D01*
X10416Y33500D01*
X10511Y33500D01*
X10511Y33500D01*
X9826Y33688D02*
X9734Y33695D01*
X9727Y33664D01*
X9717Y33636D01*
X9703Y33613D01*
X9686Y33594D01*
X9666Y33579D01*
X9645Y33569D01*
X9621Y33562D01*
X9596Y33560D01*
X9565Y33563D01*
X9537Y33572D01*
X9512Y33587D01*
X9489Y33608D01*
X9469Y33634D01*
X9456Y33664D01*
X9447Y33697D01*
X9445Y33735D01*
X9447Y33770D01*
X9455Y33802D01*
X9468Y33830D01*
X9487Y33854D01*
X9510Y33873D01*
X9536Y33886D01*
X9565Y33894D01*
X9597Y33897D01*
X9618Y33896D01*
X9638Y33892D01*
X9657Y33886D01*
X9674Y33878D01*
X9690Y33867D01*
X9705Y33856D01*
X9717Y33842D01*
X9728Y33828D01*
X9810Y33838D01*
X9741Y34206D01*
X9385Y34206D01*
X9385Y34122D01*
X9671Y34122D01*
X9709Y33930D01*
X9677Y33949D01*
X9643Y33963D01*
X9609Y33972D01*
X9574Y33975D01*
X9529Y33971D01*
X9488Y33958D01*
X9450Y33938D01*
X9416Y33910D01*
X9388Y33875D01*
X9367Y33835D01*
X9355Y33791D01*
X9351Y33743D01*
X9355Y33696D01*
X9366Y33652D01*
X9383Y33612D01*
X9408Y33575D01*
X9446Y33537D01*
X9489Y33510D01*
X9540Y33493D01*
X9596Y33488D01*
X9643Y33491D01*
X9685Y33501D01*
X9722Y33519D01*
X9755Y33542D01*
X9783Y33572D01*
X9804Y33606D01*
X9818Y33645D01*
X9826Y33688D01*
X9826Y33688D01*
G37*
%LNbottom silkscreen component 6faa5bf68e39bd57*%
X21925Y22415D02*
X21925Y21585D01*
X20675Y22415D02*
X20675Y21585D01*
G36*
X21352Y23901D02*
X21257Y23877D01*
X21275Y23822D01*
X21299Y23774D01*
X21328Y23733D01*
X21364Y23699D01*
X21405Y23672D01*
X21450Y23653D01*
X21500Y23642D01*
X21553Y23638D01*
X21609Y23641D01*
X21658Y23650D01*
X21703Y23664D01*
X21742Y23685D01*
X21776Y23711D01*
X21805Y23743D01*
X21831Y23779D01*
X21852Y23821D01*
X21869Y23867D01*
X21880Y23914D01*
X21887Y23963D01*
X21890Y24013D01*
X21887Y24067D01*
X21879Y24118D01*
X21866Y24165D01*
X21847Y24208D01*
X21823Y24247D01*
X21795Y24282D01*
X21763Y24311D01*
X21726Y24335D01*
X21685Y24354D01*
X21643Y24367D01*
X21598Y24375D01*
X21552Y24378D01*
X21500Y24375D01*
X21453Y24364D01*
X21410Y24347D01*
X21371Y24323D01*
X21337Y24293D01*
X21309Y24258D01*
X21286Y24216D01*
X21269Y24170D01*
X21362Y24148D01*
X21376Y24184D01*
X21393Y24215D01*
X21412Y24241D01*
X21435Y24261D01*
X21460Y24277D01*
X21488Y24288D01*
X21520Y24295D01*
X21554Y24297D01*
X21593Y24295D01*
X21630Y24287D01*
X21662Y24275D01*
X21692Y24257D01*
X21717Y24236D01*
X21739Y24211D01*
X21756Y24183D01*
X21770Y24151D01*
X21780Y24118D01*
X21787Y24084D01*
X21791Y24049D01*
X21792Y24014D01*
X21791Y23970D01*
X21786Y23928D01*
X21777Y23890D01*
X21766Y23854D01*
X21750Y23822D01*
X21732Y23795D01*
X21709Y23772D01*
X21683Y23753D01*
X21654Y23738D01*
X21624Y23727D01*
X21593Y23721D01*
X21561Y23719D01*
X21523Y23722D01*
X21488Y23730D01*
X21456Y23745D01*
X21426Y23765D01*
X21401Y23790D01*
X21380Y23822D01*
X21364Y23859D01*
X21352Y23901D01*
X21352Y23901D01*
X20894Y23650D02*
X20894Y23821D01*
X21205Y23821D01*
X21205Y23902D01*
X20950Y24264D01*
X20894Y24225D01*
X21118Y23902D01*
X20894Y23902D01*
X20894Y23902D01*
X20894Y24225D01*
X20950Y24264D01*
X20878Y24366D01*
X20806Y24366D01*
X20806Y23902D01*
X20710Y23902D01*
X20710Y23821D01*
X20806Y23821D01*
X20806Y23650D01*
X20894Y23650D01*
X20894Y23650D01*
G37*
%LNbottom silkscreen component d7ba02b250e27fe0*%
X9585Y43125D02*
X10415Y43125D01*
X9585Y41875D02*
X10415Y41875D01*
G36*
X10811Y43500D02*
X10811Y44216D01*
X10494Y44216D01*
X10449Y44215D01*
X10409Y44211D01*
X10376Y44205D01*
X10348Y44197D01*
X10324Y44185D01*
X10303Y44170D01*
X10285Y44151D01*
X10269Y44128D01*
X10256Y44103D01*
X10246Y44077D01*
X10241Y44049D01*
X10239Y44021D01*
X10242Y43984D01*
X10251Y43950D01*
X10267Y43920D01*
X10288Y43892D01*
X10316Y43868D01*
X10351Y43849D01*
X10392Y43835D01*
X10416Y43830D01*
X10431Y43907D01*
X10411Y43913D01*
X10394Y43921D01*
X10379Y43931D01*
X10366Y43943D01*
X10355Y43956D01*
X10347Y43971D01*
X10341Y43987D01*
X10338Y44003D01*
X10336Y44021D01*
X10339Y44045D01*
X10346Y44067D01*
X10357Y44087D01*
X10373Y44104D01*
X10394Y44118D01*
X10421Y44129D01*
X10453Y44135D01*
X10490Y44137D01*
X10716Y44137D01*
X10716Y43900D01*
X10716Y43900D01*
X10513Y43900D01*
X10482Y43901D01*
X10455Y43903D01*
X10431Y43907D01*
X10416Y43830D01*
X10440Y43826D01*
X10423Y43817D01*
X10407Y43808D01*
X10394Y43799D01*
X10383Y43790D01*
X10363Y43770D01*
X10343Y43747D01*
X10324Y43722D01*
X10305Y43695D01*
X10180Y43500D01*
X10299Y43500D01*
X10394Y43649D01*
X10414Y43679D01*
X10432Y43706D01*
X10448Y43729D01*
X10462Y43748D01*
X10475Y43763D01*
X10488Y43777D01*
X10500Y43787D01*
X10510Y43795D01*
X10521Y43802D01*
X10532Y43807D01*
X10543Y43811D01*
X10554Y43814D01*
X10563Y43816D01*
X10575Y43817D01*
X10589Y43818D01*
X10606Y43818D01*
X10716Y43818D01*
X10716Y43500D01*
X10811Y43500D01*
X10811Y43500D01*
X9795Y43500D02*
X9883Y43500D01*
X9883Y44060D01*
X9900Y44045D01*
X9919Y44030D01*
X9942Y44015D01*
X9966Y44000D01*
X9991Y43985D01*
X10015Y43973D01*
X10037Y43963D01*
X10059Y43954D01*
X10059Y44039D01*
X10023Y44057D01*
X9989Y44077D01*
X9958Y44099D01*
X9930Y44123D01*
X9904Y44148D01*
X9883Y44172D01*
X9865Y44195D01*
X9852Y44219D01*
X9795Y44219D01*
X9795Y43500D01*
X9795Y43500D01*
X9570Y43853D02*
X9568Y43913D01*
X9563Y43968D01*
X9555Y44016D01*
X9544Y44057D01*
X9529Y44094D01*
X9511Y44126D01*
X9490Y44154D01*
X9466Y44177D01*
X9439Y44195D01*
X9408Y44208D01*
X9374Y44216D01*
X9336Y44219D01*
X9308Y44217D01*
X9282Y44213D01*
X9258Y44206D01*
X9235Y44196D01*
X9215Y44183D01*
X9196Y44167D01*
X9179Y44149D01*
X9164Y44129D01*
X9150Y44106D01*
X9138Y44080D01*
X9128Y44052D01*
X9119Y44022D01*
X9112Y43988D01*
X9107Y43949D01*
X9104Y43904D01*
X9103Y43853D01*
X9105Y43793D01*
X9109Y43739D01*
X9118Y43691D01*
X9129Y43650D01*
X9143Y43613D01*
X9161Y43581D01*
X9182Y43553D01*
X9206Y43530D01*
X9234Y43512D01*
X9265Y43498D01*
X9299Y43490D01*
X9336Y43488D01*
X9343Y43488D01*
X9336Y43560D01*
X9307Y43564D01*
X9281Y43575D01*
X9256Y43593D01*
X9235Y43619D01*
X9217Y43655D01*
X9204Y43707D01*
X9196Y43772D01*
X9193Y43853D01*
X9196Y43934D01*
X9204Y44000D01*
X9217Y44051D01*
X9235Y44088D01*
X9256Y44113D01*
X9281Y44131D01*
X9308Y44142D01*
X9337Y44146D01*
X9366Y44143D01*
X9392Y44133D01*
X9414Y44117D01*
X9434Y44095D01*
X9454Y44055D01*
X9468Y44002D01*
X9477Y43934D01*
X9479Y43853D01*
X9479Y43853D01*
X9477Y43772D01*
X9469Y43706D01*
X9456Y43655D01*
X9438Y43618D01*
X9416Y43593D01*
X9392Y43575D01*
X9365Y43564D01*
X9336Y43560D01*
X9343Y43488D01*
X9385Y43492D01*
X9429Y43506D01*
X9467Y43530D01*
X9499Y43562D01*
X9530Y43614D01*
X9552Y43679D01*
X9565Y43759D01*
X9570Y43853D01*
X9570Y43853D01*
G37*
%LNbottom silkscreen component f4d1e5de21fa8109*%
X20675Y77585D02*
X20675Y78415D01*
X21925Y77585D02*
X21925Y78415D01*
G36*
X21352Y75901D02*
X21257Y75877D01*
X21275Y75822D01*
X21299Y75774D01*
X21328Y75733D01*
X21364Y75699D01*
X21405Y75672D01*
X21450Y75653D01*
X21500Y75642D01*
X21553Y75638D01*
X21609Y75641D01*
X21658Y75650D01*
X21703Y75664D01*
X21742Y75685D01*
X21776Y75711D01*
X21805Y75743D01*
X21831Y75779D01*
X21852Y75821D01*
X21869Y75867D01*
X21880Y75914D01*
X21887Y75963D01*
X21890Y76013D01*
X21887Y76067D01*
X21879Y76118D01*
X21866Y76165D01*
X21847Y76208D01*
X21823Y76247D01*
X21795Y76282D01*
X21763Y76311D01*
X21726Y76335D01*
X21685Y76354D01*
X21643Y76367D01*
X21598Y76375D01*
X21552Y76378D01*
X21500Y76375D01*
X21453Y76364D01*
X21410Y76347D01*
X21371Y76323D01*
X21337Y76293D01*
X21309Y76258D01*
X21286Y76216D01*
X21269Y76170D01*
X21362Y76148D01*
X21376Y76184D01*
X21393Y76215D01*
X21412Y76241D01*
X21435Y76261D01*
X21460Y76277D01*
X21488Y76288D01*
X21520Y76295D01*
X21554Y76297D01*
X21593Y76295D01*
X21630Y76287D01*
X21662Y76275D01*
X21692Y76257D01*
X21717Y76236D01*
X21739Y76211D01*
X21756Y76183D01*
X21770Y76151D01*
X21780Y76118D01*
X21787Y76084D01*
X21791Y76049D01*
X21792Y76014D01*
X21791Y75970D01*
X21786Y75928D01*
X21777Y75890D01*
X21766Y75854D01*
X21750Y75822D01*
X21732Y75795D01*
X21709Y75772D01*
X21683Y75753D01*
X21654Y75738D01*
X21624Y75727D01*
X21593Y75721D01*
X21561Y75719D01*
X21523Y75722D01*
X21488Y75730D01*
X21456Y75745D01*
X21426Y75765D01*
X21401Y75790D01*
X21380Y75822D01*
X21364Y75859D01*
X21352Y75901D01*
X21352Y75901D01*
X20714Y75734D02*
X20714Y75650D01*
X21187Y75650D01*
X21187Y75666D01*
X21185Y75681D01*
X21182Y75696D01*
X21177Y75711D01*
X21167Y75735D01*
X21153Y75759D01*
X21138Y75783D01*
X21119Y75806D01*
X21097Y75831D01*
X21070Y75857D01*
X21039Y75885D01*
X21004Y75915D01*
X20950Y75960D01*
X20906Y76000D01*
X20872Y76036D01*
X20846Y76066D01*
X20828Y76094D01*
X20816Y76121D01*
X20808Y76147D01*
X20805Y76172D01*
X20808Y76197D01*
X20815Y76220D01*
X20826Y76241D01*
X20843Y76260D01*
X20863Y76276D01*
X20886Y76287D01*
X20912Y76294D01*
X20940Y76296D01*
X20970Y76294D01*
X20997Y76286D01*
X21021Y76275D01*
X21042Y76258D01*
X21058Y76237D01*
X21070Y76212D01*
X21078Y76184D01*
X21080Y76152D01*
X21171Y76162D01*
X21163Y76209D01*
X21148Y76251D01*
X21128Y76286D01*
X21101Y76316D01*
X21068Y76339D01*
X21030Y76356D01*
X20987Y76365D01*
X20938Y76369D01*
X20889Y76365D01*
X20846Y76354D01*
X20808Y76337D01*
X20775Y76312D01*
X20749Y76281D01*
X20730Y76248D01*
X20719Y76211D01*
X20715Y76170D01*
X20716Y76149D01*
X20719Y76127D01*
X20725Y76106D01*
X20733Y76086D01*
X20743Y76065D01*
X20756Y76043D01*
X20772Y76021D01*
X20791Y75998D01*
X20815Y75973D01*
X20845Y75944D01*
X20882Y75910D01*
X20926Y75872D01*
X20962Y75842D01*
X20991Y75816D01*
X21013Y75797D01*
X21028Y75782D01*
X21039Y75770D01*
X21049Y75758D01*
X21057Y75746D01*
X21065Y75734D01*
X20714Y75734D01*
X20714Y75734D01*
G37*
%LNbottom silkscreen component 4ea57519bcb4f12c*%
X13915Y79375D02*
X13085Y79375D01*
X13915Y80625D02*
X13085Y80625D01*
G36*
X13602Y81151D02*
X13507Y81127D01*
X13525Y81072D01*
X13549Y81024D01*
X13578Y80983D01*
X13614Y80949D01*
X13655Y80922D01*
X13700Y80903D01*
X13750Y80892D01*
X13803Y80888D01*
X13859Y80891D01*
X13908Y80900D01*
X13953Y80914D01*
X13992Y80935D01*
X14026Y80961D01*
X14055Y80993D01*
X14081Y81029D01*
X14102Y81071D01*
X14119Y81117D01*
X14130Y81164D01*
X14137Y81213D01*
X14140Y81263D01*
X14137Y81317D01*
X14129Y81368D01*
X14116Y81415D01*
X14097Y81458D01*
X14073Y81497D01*
X14045Y81532D01*
X14013Y81561D01*
X13976Y81585D01*
X13935Y81604D01*
X13893Y81617D01*
X13848Y81625D01*
X13802Y81628D01*
X13750Y81625D01*
X13703Y81614D01*
X13660Y81597D01*
X13621Y81573D01*
X13587Y81543D01*
X13559Y81508D01*
X13536Y81466D01*
X13519Y81420D01*
X13612Y81398D01*
X13626Y81434D01*
X13643Y81465D01*
X13662Y81491D01*
X13685Y81511D01*
X13710Y81527D01*
X13738Y81538D01*
X13770Y81545D01*
X13804Y81547D01*
X13843Y81545D01*
X13880Y81537D01*
X13912Y81525D01*
X13942Y81507D01*
X13967Y81486D01*
X13989Y81461D01*
X14006Y81433D01*
X14020Y81401D01*
X14030Y81368D01*
X14037Y81334D01*
X14041Y81299D01*
X14042Y81264D01*
X14041Y81220D01*
X14036Y81178D01*
X14027Y81140D01*
X14016Y81104D01*
X14000Y81072D01*
X13982Y81045D01*
X13959Y81022D01*
X13933Y81003D01*
X13904Y80988D01*
X13874Y80977D01*
X13843Y80971D01*
X13811Y80969D01*
X13773Y80972D01*
X13738Y80980D01*
X13706Y80995D01*
X13676Y81015D01*
X13651Y81040D01*
X13630Y81072D01*
X13614Y81109D01*
X13602Y81151D01*
X13602Y81151D01*
X13095Y80900D02*
X13183Y80900D01*
X13183Y81460D01*
X13200Y81445D01*
X13219Y81430D01*
X13242Y81415D01*
X13266Y81400D01*
X13291Y81385D01*
X13315Y81373D01*
X13337Y81363D01*
X13359Y81354D01*
X13359Y81439D01*
X13323Y81457D01*
X13289Y81477D01*
X13258Y81499D01*
X13230Y81523D01*
X13204Y81548D01*
X13183Y81572D01*
X13165Y81595D01*
X13152Y81619D01*
X13095Y81619D01*
X13095Y80900D01*
X13095Y80900D01*
G37*
%LNbottom silkscreen component b15d75c6ec27c82e*%
X9585Y58125D02*
X10415Y58125D01*
X9585Y56875D02*
X10415Y56875D01*
G36*
X10511Y58450D02*
X10511Y59166D01*
X10194Y59166D01*
X10149Y59165D01*
X10109Y59161D01*
X10076Y59155D01*
X10048Y59147D01*
X10024Y59135D01*
X10003Y59120D01*
X9985Y59101D01*
X9969Y59078D01*
X9956Y59053D01*
X9946Y59027D01*
X9941Y58999D01*
X9939Y58971D01*
X9942Y58934D01*
X9951Y58900D01*
X9967Y58870D01*
X9988Y58842D01*
X10016Y58818D01*
X10051Y58799D01*
X10092Y58785D01*
X10116Y58780D01*
X10131Y58857D01*
X10111Y58863D01*
X10094Y58871D01*
X10079Y58881D01*
X10066Y58893D01*
X10055Y58906D01*
X10047Y58921D01*
X10041Y58937D01*
X10038Y58953D01*
X10036Y58971D01*
X10039Y58995D01*
X10046Y59017D01*
X10057Y59037D01*
X10073Y59054D01*
X10094Y59068D01*
X10121Y59079D01*
X10153Y59085D01*
X10190Y59087D01*
X10416Y59087D01*
X10416Y58850D01*
X10416Y58850D01*
X10213Y58850D01*
X10182Y58851D01*
X10155Y58853D01*
X10131Y58857D01*
X10116Y58780D01*
X10140Y58776D01*
X10123Y58767D01*
X10107Y58758D01*
X10094Y58749D01*
X10083Y58740D01*
X10063Y58720D01*
X10043Y58697D01*
X10024Y58672D01*
X10005Y58645D01*
X9880Y58450D01*
X9999Y58450D01*
X10094Y58599D01*
X10114Y58629D01*
X10132Y58656D01*
X10148Y58679D01*
X10162Y58698D01*
X10175Y58713D01*
X10188Y58727D01*
X10200Y58737D01*
X10210Y58745D01*
X10221Y58752D01*
X10232Y58757D01*
X10243Y58761D01*
X10254Y58764D01*
X10263Y58766D01*
X10275Y58767D01*
X10289Y58768D01*
X10306Y58768D01*
X10416Y58768D01*
X10416Y58450D01*
X10511Y58450D01*
X10511Y58450D01*
X9544Y58450D02*
X9544Y58621D01*
X9855Y58621D01*
X9855Y58702D01*
X9600Y59064D01*
X9544Y59025D01*
X9768Y58702D01*
X9544Y58702D01*
X9544Y58702D01*
X9544Y59025D01*
X9600Y59064D01*
X9528Y59166D01*
X9456Y59166D01*
X9456Y58702D01*
X9360Y58702D01*
X9360Y58621D01*
X9456Y58621D01*
X9456Y58450D01*
X9544Y58450D01*
X9544Y58450D01*
G37*
%LNbottom silkscreen component 92b6b987cdba25fc*%
X9585Y88125D02*
X10415Y88125D01*
X9585Y86875D02*
X10415Y86875D01*
G36*
X10511Y88450D02*
X10511Y89166D01*
X10194Y89166D01*
X10149Y89165D01*
X10109Y89161D01*
X10076Y89155D01*
X10048Y89147D01*
X10024Y89135D01*
X10003Y89120D01*
X9985Y89101D01*
X9969Y89078D01*
X9956Y89053D01*
X9946Y89027D01*
X9941Y88999D01*
X9939Y88971D01*
X9942Y88934D01*
X9951Y88900D01*
X9967Y88870D01*
X9988Y88842D01*
X10016Y88818D01*
X10051Y88799D01*
X10092Y88785D01*
X10116Y88780D01*
X10131Y88857D01*
X10111Y88863D01*
X10094Y88871D01*
X10079Y88881D01*
X10066Y88893D01*
X10055Y88906D01*
X10047Y88921D01*
X10041Y88937D01*
X10038Y88953D01*
X10036Y88971D01*
X10039Y88995D01*
X10046Y89017D01*
X10057Y89037D01*
X10073Y89054D01*
X10094Y89068D01*
X10121Y89079D01*
X10153Y89085D01*
X10190Y89087D01*
X10416Y89087D01*
X10416Y88850D01*
X10416Y88850D01*
X10213Y88850D01*
X10182Y88851D01*
X10155Y88853D01*
X10131Y88857D01*
X10116Y88780D01*
X10140Y88776D01*
X10123Y88767D01*
X10107Y88758D01*
X10094Y88749D01*
X10083Y88740D01*
X10063Y88720D01*
X10043Y88697D01*
X10024Y88672D01*
X10005Y88645D01*
X9880Y88450D01*
X9999Y88450D01*
X10094Y88599D01*
X10114Y88629D01*
X10132Y88656D01*
X10148Y88679D01*
X10162Y88698D01*
X10175Y88713D01*
X10188Y88727D01*
X10200Y88737D01*
X10210Y88745D01*
X10221Y88752D01*
X10232Y88757D01*
X10243Y88761D01*
X10254Y88764D01*
X10263Y88766D01*
X10275Y88767D01*
X10289Y88768D01*
X10306Y88768D01*
X10416Y88768D01*
X10416Y88450D01*
X10511Y88450D01*
X10511Y88450D01*
X9495Y88450D02*
X9583Y88450D01*
X9583Y89010D01*
X9600Y88995D01*
X9619Y88980D01*
X9642Y88965D01*
X9666Y88950D01*
X9691Y88935D01*
X9715Y88923D01*
X9737Y88913D01*
X9759Y88904D01*
X9759Y88989D01*
X9723Y89007D01*
X9689Y89027D01*
X9658Y89049D01*
X9630Y89073D01*
X9604Y89098D01*
X9583Y89122D01*
X9565Y89145D01*
X9552Y89169D01*
X9495Y89169D01*
X9495Y88450D01*
X9495Y88450D01*
G37*
%LNbottom silkscreen component 800e5b6bc9c18d00*%
X9585Y78125D02*
X10415Y78125D01*
X9585Y76875D02*
X10415Y76875D01*
G36*
X10511Y78450D02*
X10511Y79166D01*
X10194Y79166D01*
X10149Y79165D01*
X10109Y79161D01*
X10076Y79155D01*
X10048Y79147D01*
X10024Y79135D01*
X10003Y79120D01*
X9985Y79101D01*
X9969Y79078D01*
X9956Y79053D01*
X9946Y79027D01*
X9941Y78999D01*
X9939Y78971D01*
X9942Y78934D01*
X9951Y78900D01*
X9967Y78870D01*
X9988Y78842D01*
X10016Y78818D01*
X10051Y78799D01*
X10092Y78785D01*
X10116Y78780D01*
X10131Y78857D01*
X10111Y78863D01*
X10094Y78871D01*
X10079Y78881D01*
X10066Y78893D01*
X10055Y78906D01*
X10047Y78921D01*
X10041Y78937D01*
X10038Y78953D01*
X10036Y78971D01*
X10039Y78995D01*
X10046Y79017D01*
X10057Y79037D01*
X10073Y79054D01*
X10094Y79068D01*
X10121Y79079D01*
X10153Y79085D01*
X10190Y79087D01*
X10416Y79087D01*
X10416Y78850D01*
X10416Y78850D01*
X10213Y78850D01*
X10182Y78851D01*
X10155Y78853D01*
X10131Y78857D01*
X10116Y78780D01*
X10140Y78776D01*
X10123Y78767D01*
X10107Y78758D01*
X10094Y78749D01*
X10083Y78740D01*
X10063Y78720D01*
X10043Y78697D01*
X10024Y78672D01*
X10005Y78645D01*
X9880Y78450D01*
X9999Y78450D01*
X10094Y78599D01*
X10114Y78629D01*
X10132Y78656D01*
X10148Y78679D01*
X10162Y78698D01*
X10175Y78713D01*
X10188Y78727D01*
X10200Y78737D01*
X10210Y78745D01*
X10221Y78752D01*
X10232Y78757D01*
X10243Y78761D01*
X10254Y78764D01*
X10263Y78766D01*
X10275Y78767D01*
X10289Y78768D01*
X10306Y78768D01*
X10416Y78768D01*
X10416Y78450D01*
X10511Y78450D01*
X10511Y78450D01*
X9364Y78534D02*
X9364Y78450D01*
X9837Y78450D01*
X9837Y78466D01*
X9835Y78481D01*
X9832Y78496D01*
X9827Y78511D01*
X9817Y78535D01*
X9803Y78559D01*
X9788Y78583D01*
X9769Y78606D01*
X9747Y78631D01*
X9720Y78657D01*
X9689Y78685D01*
X9654Y78715D01*
X9600Y78760D01*
X9556Y78800D01*
X9522Y78836D01*
X9496Y78866D01*
X9478Y78894D01*
X9466Y78921D01*
X9458Y78947D01*
X9455Y78972D01*
X9458Y78997D01*
X9465Y79020D01*
X9476Y79041D01*
X9493Y79060D01*
X9513Y79076D01*
X9536Y79087D01*
X9562Y79094D01*
X9590Y79096D01*
X9620Y79094D01*
X9647Y79086D01*
X9671Y79075D01*
X9692Y79058D01*
X9708Y79037D01*
X9720Y79012D01*
X9728Y78984D01*
X9730Y78952D01*
X9821Y78962D01*
X9813Y79009D01*
X9799Y79051D01*
X9778Y79086D01*
X9751Y79116D01*
X9718Y79139D01*
X9680Y79156D01*
X9637Y79165D01*
X9588Y79169D01*
X9539Y79165D01*
X9496Y79154D01*
X9458Y79137D01*
X9425Y79112D01*
X9399Y79081D01*
X9380Y79048D01*
X9369Y79011D01*
X9365Y78970D01*
X9366Y78949D01*
X9369Y78927D01*
X9375Y78906D01*
X9383Y78886D01*
X9393Y78865D01*
X9406Y78843D01*
X9422Y78821D01*
X9441Y78798D01*
X9465Y78773D01*
X9495Y78744D01*
X9532Y78710D01*
X9576Y78672D01*
X9612Y78642D01*
X9641Y78616D01*
X9663Y78597D01*
X9678Y78582D01*
X9689Y78570D01*
X9699Y78558D01*
X9707Y78546D01*
X9715Y78534D01*
X9364Y78534D01*
X9364Y78534D01*
G37*
%LNtext*%
G36*
X14581Y51173D02*
X14581Y52247D01*
X13805Y52247D01*
X13805Y52120D01*
X14439Y52120D01*
X14439Y51791D01*
X13845Y51791D01*
X13845Y51666D01*
X14439Y51666D01*
X14439Y51300D01*
X13780Y51300D01*
X13780Y51173D01*
X14581Y51173D01*
X14581Y51173D01*
X13091Y51173D02*
X13091Y51288D01*
X13140Y51230D01*
X13198Y51189D01*
X13264Y51164D01*
X13338Y51156D01*
X13372Y51157D01*
X13404Y51162D01*
X13436Y51171D01*
X13466Y51182D01*
X13494Y51196D01*
X13518Y51212D01*
X13538Y51229D01*
X13555Y51248D01*
X13568Y51269D01*
X13579Y51293D01*
X13589Y51318D01*
X13595Y51346D01*
X13599Y51368D01*
X13602Y51396D01*
X13603Y51430D01*
X13604Y51469D01*
X13604Y51951D01*
X13472Y51951D01*
X13472Y51520D01*
X13471Y51472D01*
X13470Y51433D01*
X13467Y51403D01*
X13464Y51381D01*
X13456Y51356D01*
X13444Y51334D01*
X13429Y51315D01*
X13411Y51299D01*
X13390Y51286D01*
X13366Y51277D01*
X13340Y51271D01*
X13311Y51269D01*
X13282Y51271D01*
X13254Y51277D01*
X13226Y51286D01*
X13200Y51300D01*
X13176Y51316D01*
X13156Y51336D01*
X13139Y51358D01*
X13126Y51382D01*
X13117Y51412D01*
X13110Y51447D01*
X13106Y51488D01*
X13105Y51534D01*
X13105Y51951D01*
X12973Y51951D01*
X12973Y51173D01*
X13091Y51173D01*
X13091Y51173D01*
X12768Y51173D02*
X12768Y51951D01*
X12649Y51951D01*
X12649Y51833D01*
X12627Y51871D01*
X12606Y51902D01*
X12585Y51926D01*
X12565Y51942D01*
X12546Y51954D01*
X12525Y51962D01*
X12503Y51967D01*
X12481Y51969D01*
X12447Y51966D01*
X12414Y51958D01*
X12380Y51945D01*
X12345Y51926D01*
X12391Y51804D01*
X12415Y51816D01*
X12439Y51825D01*
X12463Y51831D01*
X12487Y51833D01*
X12508Y51831D01*
X12528Y51826D01*
X12547Y51818D01*
X12565Y51807D01*
X12581Y51792D01*
X12594Y51775D01*
X12605Y51756D01*
X12614Y51734D01*
X12624Y51698D01*
X12631Y51661D01*
X12635Y51621D01*
X12636Y51581D01*
X12636Y51173D01*
X12768Y51173D01*
X12768Y51173D01*
X12316Y51562D02*
X12308Y51663D01*
X12286Y51750D01*
X12248Y51823D01*
X12196Y51882D01*
X12143Y51920D01*
X12085Y51947D01*
X12021Y51963D01*
X11951Y51969D01*
X11875Y51962D01*
X11805Y51942D01*
X11744Y51910D01*
X11689Y51864D01*
X11644Y51806D01*
X11613Y51738D01*
X11594Y51661D01*
X11587Y51573D01*
X11590Y51502D01*
X11598Y51439D01*
X11613Y51384D01*
X11632Y51337D01*
X11657Y51296D01*
X11688Y51261D01*
X11723Y51230D01*
X11763Y51203D01*
X11807Y51183D01*
X11853Y51168D01*
X11901Y51159D01*
X11951Y51156D01*
X11960Y51157D01*
X11951Y51264D01*
X11904Y51269D01*
X11861Y51283D01*
X11823Y51306D01*
X11788Y51339D01*
X11759Y51381D01*
X11739Y51433D01*
X11727Y51495D01*
X11723Y51567D01*
X11727Y51634D01*
X11739Y51693D01*
X11760Y51744D01*
X11788Y51785D01*
X11823Y51818D01*
X11862Y51841D01*
X11904Y51855D01*
X11951Y51860D01*
X11999Y51855D01*
X12042Y51841D01*
X12081Y51818D01*
X12115Y51786D01*
X12144Y51744D01*
X12164Y51693D01*
X12176Y51632D01*
X12180Y51562D01*
X12180Y51562D01*
X12176Y51492D01*
X12164Y51432D01*
X12144Y51380D01*
X12115Y51338D01*
X12081Y51306D01*
X12042Y51283D01*
X11999Y51269D01*
X11951Y51264D01*
X11960Y51157D01*
X12029Y51162D01*
X12099Y51182D01*
X12161Y51215D01*
X12215Y51260D01*
X12259Y51319D01*
X12291Y51388D01*
X12310Y51470D01*
X12316Y51562D01*
X12316Y51562D01*
X11434Y51173D02*
X11434Y51951D01*
X11315Y51951D01*
X11315Y51833D01*
X11293Y51871D01*
X11272Y51902D01*
X11251Y51926D01*
X11232Y51942D01*
X11212Y51954D01*
X11191Y51962D01*
X11170Y51967D01*
X11147Y51969D01*
X11114Y51966D01*
X11080Y51958D01*
X11046Y51945D01*
X11011Y51926D01*
X11057Y51804D01*
X11081Y51816D01*
X11105Y51825D01*
X11129Y51831D01*
X11154Y51833D01*
X11175Y51831D01*
X11195Y51826D01*
X11213Y51818D01*
X11231Y51807D01*
X11247Y51792D01*
X11261Y51775D01*
X11272Y51756D01*
X11280Y51734D01*
X11290Y51698D01*
X11297Y51661D01*
X11301Y51621D01*
X11302Y51581D01*
X11302Y51173D01*
X11434Y51173D01*
X11434Y51173D01*
X10426Y51269D02*
X10462Y51240D01*
X10467Y51237D01*
X10517Y51311D01*
X10494Y51332D01*
X10474Y51356D01*
X10458Y51384D01*
X10449Y51409D01*
X10442Y51439D01*
X10438Y51474D01*
X10437Y51515D01*
X10437Y51564D01*
X10437Y51564D01*
X10477Y51550D01*
X10526Y51537D01*
X10585Y51525D01*
X10652Y51514D01*
X10690Y51508D01*
X10721Y51501D01*
X10747Y51495D01*
X10767Y51488D01*
X10783Y51479D01*
X10797Y51470D01*
X10809Y51458D01*
X10819Y51445D01*
X10827Y51430D01*
X10833Y51415D01*
X10836Y51399D01*
X10837Y51382D01*
X10835Y51357D01*
X10827Y51334D01*
X10815Y51313D01*
X10797Y51294D01*
X10775Y51279D01*
X10748Y51268D01*
X10717Y51261D01*
X10680Y51259D01*
X10643Y51261D01*
X10609Y51267D01*
X10576Y51278D01*
X10545Y51292D01*
X10517Y51311D01*
X10467Y51237D01*
X10497Y51216D01*
X10532Y51196D01*
X10567Y51181D01*
X10601Y51170D01*
X10637Y51162D01*
X10674Y51157D01*
X10712Y51156D01*
X10772Y51160D01*
X10825Y51171D01*
X10871Y51191D01*
X10909Y51218D01*
X10939Y51252D01*
X10961Y51290D01*
X10974Y51332D01*
X10978Y51378D01*
X10976Y51406D01*
X10971Y51433D01*
X10963Y51459D01*
X10952Y51483D01*
X10938Y51505D01*
X10922Y51525D01*
X10904Y51543D01*
X10884Y51559D01*
X10862Y51572D01*
X10839Y51584D01*
X10815Y51594D01*
X10789Y51602D01*
X10767Y51607D01*
X10740Y51612D01*
X10708Y51617D01*
X10672Y51622D01*
X10597Y51632D01*
X10533Y51642D01*
X10480Y51654D01*
X10437Y51667D01*
X10436Y51679D01*
X10436Y51689D01*
X10436Y51697D01*
X10436Y51701D01*
X10438Y51739D01*
X10445Y51770D01*
X10457Y51795D01*
X10473Y51815D01*
X10502Y51834D01*
X10536Y51848D01*
X10577Y51857D01*
X10623Y51860D01*
X10667Y51858D01*
X10704Y51851D01*
X10735Y51841D01*
X10761Y51827D01*
X10781Y51808D01*
X10799Y51782D01*
X10814Y51750D01*
X10826Y51712D01*
X10955Y51729D01*
X10945Y51769D01*
X10932Y51804D01*
X10916Y51835D01*
X10897Y51863D01*
X10875Y51887D01*
X10848Y51908D01*
X10817Y51926D01*
X10781Y51941D01*
X10741Y51953D01*
X10699Y51962D01*
X10653Y51967D01*
X10604Y51969D01*
X10557Y51967D01*
X10514Y51963D01*
X10476Y51956D01*
X10442Y51945D01*
X10413Y51933D01*
X10388Y51919D01*
X10368Y51903D01*
X10351Y51886D01*
X10337Y51867D01*
X10326Y51846D01*
X10317Y51823D01*
X10310Y51797D01*
X10307Y51776D01*
X10305Y51749D01*
X10304Y51716D01*
X10303Y51675D01*
X10303Y51499D01*
X10303Y51416D01*
X10301Y51349D01*
X10299Y51300D01*
X10295Y51267D01*
X10290Y51243D01*
X10282Y51219D01*
X10273Y51196D01*
X10262Y51173D01*
X10399Y51173D01*
X10409Y51195D01*
X10416Y51218D01*
X10422Y51243D01*
X10426Y51269D01*
X10426Y51269D01*
X9591Y51458D02*
X9462Y51441D01*
X9476Y51378D01*
X9500Y51322D01*
X9531Y51273D01*
X9570Y51232D01*
X9617Y51198D01*
X9668Y51175D01*
X9724Y51160D01*
X9785Y51156D01*
X9861Y51162D01*
X9929Y51182D01*
X9990Y51214D01*
X10042Y51260D01*
X10085Y51318D01*
X10115Y51387D01*
X10133Y51468D01*
X10139Y51559D01*
X10137Y51620D01*
X10129Y51677D01*
X10116Y51731D01*
X10097Y51780D01*
X10074Y51824D01*
X10045Y51862D01*
X10010Y51895D01*
X9970Y51922D01*
X9927Y51942D01*
X9881Y51957D01*
X9834Y51966D01*
X9785Y51969D01*
X9724Y51965D01*
X9670Y51953D01*
X9621Y51933D01*
X9577Y51905D01*
X9541Y51869D01*
X9511Y51827D01*
X9489Y51778D01*
X9474Y51723D01*
X9602Y51703D01*
X9613Y51740D01*
X9628Y51772D01*
X9646Y51799D01*
X9667Y51821D01*
X9692Y51838D01*
X9719Y51850D01*
X9748Y51858D01*
X9780Y51860D01*
X9827Y51856D01*
X9870Y51842D01*
X9908Y51820D01*
X9941Y51789D01*
X9969Y51748D01*
X9988Y51697D01*
X10000Y51635D01*
X10004Y51563D01*
X10000Y51490D01*
X9989Y51428D01*
X9970Y51376D01*
X9944Y51335D01*
X9911Y51304D01*
X9874Y51282D01*
X9833Y51269D01*
X9787Y51264D01*
X9750Y51267D01*
X9716Y51276D01*
X9685Y51291D01*
X9657Y51312D01*
X9634Y51339D01*
X9615Y51372D01*
X9601Y51412D01*
X9591Y51458D01*
X9591Y51458D01*
X9348Y51173D02*
X9348Y52247D01*
X9216Y52247D01*
X9216Y51635D01*
X8904Y51951D01*
X8734Y51951D01*
X9031Y51663D01*
X8704Y51173D01*
X8866Y51173D01*
X9123Y51571D01*
X9216Y51482D01*
X9216Y51173D01*
X9348Y51173D01*
X9348Y51173D01*
X8061Y51173D02*
X8183Y51173D01*
X8183Y52247D01*
X8051Y52247D01*
X8051Y51864D01*
X8006Y51910D01*
X7956Y51943D01*
X7900Y51962D01*
X7838Y51969D01*
X7802Y51967D01*
X7768Y51962D01*
X7735Y51952D01*
X7702Y51940D01*
X7671Y51924D01*
X7644Y51905D01*
X7619Y51883D01*
X7597Y51859D01*
X7577Y51831D01*
X7560Y51801D01*
X7545Y51768D01*
X7532Y51732D01*
X7521Y51695D01*
X7514Y51656D01*
X7510Y51615D01*
X7508Y51574D01*
X7514Y51480D01*
X7533Y51397D01*
X7564Y51325D01*
X7607Y51265D01*
X7659Y51217D01*
X7716Y51183D01*
X7778Y51163D01*
X7844Y51156D01*
X7910Y51163D01*
X7967Y51185D01*
X8018Y51220D01*
X8056Y51265D01*
X7990Y51321D01*
X7951Y51290D01*
X7906Y51271D01*
X7855Y51264D01*
X7814Y51269D01*
X7775Y51283D01*
X7739Y51306D01*
X7706Y51339D01*
X7678Y51381D01*
X7659Y51433D01*
X7647Y51493D01*
X7643Y51563D01*
X7647Y51634D01*
X7658Y51695D01*
X7677Y51747D01*
X7703Y51788D01*
X7735Y51820D01*
X7770Y51842D01*
X7808Y51856D01*
X7850Y51860D01*
X7891Y51856D01*
X7930Y51842D01*
X7966Y51818D01*
X7999Y51785D01*
X8027Y51744D01*
X8046Y51693D01*
X8058Y51635D01*
X8062Y51568D01*
X8062Y51568D01*
X8060Y51503D01*
X8052Y51448D01*
X8041Y51402D01*
X8024Y51366D01*
X7990Y51321D01*
X8056Y51265D01*
X8061Y51271D01*
X8061Y51173D01*
X8061Y51173D01*
X6838Y51173D02*
X6838Y51288D01*
X6888Y51230D01*
X6945Y51189D01*
X7011Y51164D01*
X7085Y51156D01*
X7119Y51157D01*
X7151Y51162D01*
X7183Y51171D01*
X7213Y51182D01*
X7241Y51196D01*
X7265Y51212D01*
X7286Y51229D01*
X7302Y51248D01*
X7315Y51269D01*
X7327Y51293D01*
X7336Y51318D01*
X7343Y51346D01*
X7346Y51368D01*
X7349Y51396D01*
X7350Y51430D01*
X7351Y51469D01*
X7351Y51951D01*
X7219Y51951D01*
X7219Y51520D01*
X7218Y51472D01*
X7217Y51433D01*
X7214Y51403D01*
X7211Y51381D01*
X7203Y51356D01*
X7191Y51334D01*
X7177Y51315D01*
X7158Y51299D01*
X7137Y51286D01*
X7113Y51277D01*
X7087Y51271D01*
X7059Y51269D01*
X7029Y51271D01*
X7001Y51277D01*
X6974Y51286D01*
X6947Y51300D01*
X6923Y51316D01*
X6903Y51336D01*
X6886Y51358D01*
X6874Y51382D01*
X6864Y51412D01*
X6857Y51447D01*
X6853Y51488D01*
X6852Y51534D01*
X6852Y51951D01*
X6720Y51951D01*
X6720Y51173D01*
X6838Y51173D01*
X6838Y51173D01*
X6482Y51173D02*
X6482Y51849D01*
X6599Y51849D01*
X6599Y51951D01*
X6482Y51951D01*
X6482Y52034D01*
X6481Y52071D01*
X6479Y52102D01*
X6474Y52129D01*
X6468Y52150D01*
X6457Y52175D01*
X6442Y52197D01*
X6423Y52216D01*
X6401Y52234D01*
X6375Y52247D01*
X6344Y52257D01*
X6308Y52263D01*
X6267Y52265D01*
X6238Y52265D01*
X6208Y52262D01*
X6177Y52258D01*
X6144Y52252D01*
X6164Y52137D01*
X6184Y52140D01*
X6203Y52143D01*
X6223Y52144D01*
X6241Y52145D01*
X6269Y52143D01*
X6292Y52138D01*
X6311Y52130D01*
X6326Y52119D01*
X6337Y52103D01*
X6345Y52082D01*
X6349Y52055D01*
X6351Y52023D01*
X6351Y51951D01*
X6199Y51951D01*
X6199Y51849D01*
X6351Y51849D01*
X6351Y51173D01*
X6482Y51173D01*
X6482Y51173D01*
X6092Y51173D02*
X6092Y51849D01*
X6209Y51849D01*
X6209Y51951D01*
X6092Y51951D01*
X6092Y52034D01*
X6092Y52071D01*
X6089Y52102D01*
X6085Y52129D01*
X6079Y52150D01*
X6067Y52175D01*
X6052Y52197D01*
X6034Y52216D01*
X6012Y52234D01*
X5985Y52247D01*
X5954Y52257D01*
X5918Y52263D01*
X5877Y52265D01*
X5849Y52265D01*
X5819Y52262D01*
X5787Y52258D01*
X5754Y52252D01*
X5774Y52137D01*
X5794Y52140D01*
X5814Y52143D01*
X5833Y52144D01*
X5851Y52145D01*
X5879Y52143D01*
X5903Y52138D01*
X5922Y52130D01*
X5936Y52119D01*
X5947Y52103D01*
X5955Y52082D01*
X5960Y52055D01*
X5961Y52023D01*
X5961Y51951D01*
X5810Y51951D01*
X5810Y51849D01*
X5961Y51849D01*
X5961Y51173D01*
X6092Y51173D01*
X6092Y51173D01*
X5175Y51424D02*
X5039Y51407D01*
X5058Y51351D01*
X5084Y51301D01*
X5118Y51258D01*
X5158Y51222D01*
X5204Y51193D01*
X5257Y51172D01*
X5316Y51160D01*
X5381Y51156D01*
X5461Y51162D01*
X5534Y51182D01*
X5597Y51215D01*
X5651Y51261D01*
X5695Y51319D01*
X5726Y51387D01*
X5745Y51466D01*
X5751Y51556D01*
X5745Y51648D01*
X5726Y51730D01*
X5694Y51801D01*
X5650Y51860D01*
X5596Y51908D01*
X5534Y51942D01*
X5465Y51962D01*
X5388Y51969D01*
X5377Y51968D01*
X5386Y51860D01*
X5430Y51857D01*
X5470Y51845D01*
X5506Y51826D01*
X5539Y51800D01*
X5567Y51767D01*
X5587Y51729D01*
X5601Y51685D01*
X5608Y51637D01*
X5608Y51637D01*
X5173Y51637D01*
X5180Y51683D01*
X5190Y51723D01*
X5205Y51757D01*
X5223Y51784D01*
X5257Y51817D01*
X5295Y51841D01*
X5339Y51856D01*
X5386Y51860D01*
X5377Y51968D01*
X5313Y51962D01*
X5246Y51942D01*
X5186Y51909D01*
X5133Y51863D01*
X5090Y51804D01*
X5059Y51735D01*
X5040Y51655D01*
X5034Y51564D01*
X5034Y51557D01*
X5034Y51549D01*
X5035Y51540D01*
X5035Y51529D01*
X5615Y51529D01*
X5608Y51468D01*
X5593Y51415D01*
X5571Y51370D01*
X5542Y51332D01*
X5508Y51302D01*
X5469Y51281D01*
X5427Y51268D01*
X5380Y51264D01*
X5345Y51267D01*
X5313Y51274D01*
X5283Y51286D01*
X5256Y51302D01*
X5232Y51324D01*
X5210Y51352D01*
X5191Y51385D01*
X5175Y51424D01*
X5175Y51424D01*
X4874Y51173D02*
X4874Y51951D01*
X4756Y51951D01*
X4756Y51833D01*
X4734Y51871D01*
X4712Y51902D01*
X4692Y51926D01*
X4672Y51942D01*
X4652Y51954D01*
X4632Y51962D01*
X4610Y51967D01*
X4587Y51969D01*
X4554Y51966D01*
X4520Y51958D01*
X4486Y51945D01*
X4452Y51926D01*
X4497Y51804D01*
X4521Y51816D01*
X4546Y51825D01*
X4570Y51831D01*
X4594Y51833D01*
X4615Y51831D01*
X4635Y51826D01*
X4654Y51818D01*
X4672Y51807D01*
X4688Y51792D01*
X4701Y51775D01*
X4712Y51756D01*
X4721Y51734D01*
X4730Y51698D01*
X4737Y51661D01*
X4741Y51621D01*
X4743Y51581D01*
X4743Y51173D01*
X4874Y51173D01*
X4874Y51173D01*
X3841Y51424D02*
X3705Y51407D01*
X3724Y51351D01*
X3751Y51301D01*
X3784Y51258D01*
X3824Y51222D01*
X3871Y51193D01*
X3923Y51172D01*
X3982Y51160D01*
X4047Y51156D01*
X4128Y51162D01*
X4200Y51182D01*
X4263Y51215D01*
X4317Y51261D01*
X4361Y51319D01*
X4392Y51387D01*
X4411Y51466D01*
X4417Y51556D01*
X4411Y51648D01*
X4392Y51730D01*
X4361Y51801D01*
X4316Y51860D01*
X4262Y51908D01*
X4200Y51942D01*
X4131Y51962D01*
X4054Y51969D01*
X4043Y51968D01*
X4053Y51860D01*
X4096Y51857D01*
X4136Y51845D01*
X4173Y51826D01*
X4205Y51800D01*
X4233Y51767D01*
X4253Y51729D01*
X4267Y51685D01*
X4274Y51637D01*
X4274Y51637D01*
X3840Y51637D01*
X3846Y51683D01*
X3856Y51723D01*
X3871Y51757D01*
X3889Y51784D01*
X3923Y51817D01*
X3962Y51841D01*
X4005Y51856D01*
X4053Y51860D01*
X4043Y51968D01*
X3980Y51962D01*
X3912Y51942D01*
X3852Y51909D01*
X3799Y51863D01*
X3756Y51804D01*
X3725Y51735D01*
X3707Y51655D01*
X3700Y51564D01*
X3700Y51557D01*
X3701Y51549D01*
X3701Y51540D01*
X3701Y51529D01*
X4281Y51529D01*
X4274Y51468D01*
X4259Y51415D01*
X4238Y51370D01*
X4209Y51332D01*
X4174Y51302D01*
X4135Y51281D01*
X4093Y51268D01*
X4046Y51264D01*
X4011Y51267D01*
X3979Y51274D01*
X3949Y51286D01*
X3922Y51302D01*
X3898Y51324D01*
X3876Y51352D01*
X3857Y51385D01*
X3841Y51424D01*
X3841Y51424D01*
X3035Y51173D02*
X3035Y51271D01*
X3095Y51333D01*
X3093Y51335D01*
X3066Y51375D01*
X3048Y51424D01*
X3036Y51483D01*
X3032Y51551D01*
X3036Y51625D01*
X3048Y51689D01*
X3067Y51742D01*
X3094Y51785D01*
X3126Y51818D01*
X3163Y51841D01*
X3202Y51855D01*
X3246Y51860D01*
X3288Y51855D01*
X3326Y51842D01*
X3361Y51819D01*
X3392Y51788D01*
X3418Y51747D01*
X3437Y51695D01*
X3448Y51634D01*
X3451Y51562D01*
X3451Y51562D01*
X3447Y51492D01*
X3436Y51431D01*
X3416Y51380D01*
X3388Y51338D01*
X3355Y51306D01*
X3320Y51283D01*
X3281Y51269D01*
X3240Y51264D01*
X3198Y51269D01*
X3160Y51282D01*
X3125Y51304D01*
X3095Y51333D01*
X3035Y51271D01*
X3076Y51221D01*
X3126Y51185D01*
X3185Y51163D01*
X3252Y51156D01*
X3298Y51159D01*
X3341Y51169D01*
X3383Y51185D01*
X3423Y51207D01*
X3460Y51235D01*
X3492Y51268D01*
X3520Y51307D01*
X3544Y51350D01*
X3563Y51398D01*
X3576Y51449D01*
X3584Y51504D01*
X3587Y51562D01*
X3584Y51618D01*
X3577Y51673D01*
X3565Y51724D01*
X3548Y51773D01*
X3526Y51817D01*
X3500Y51857D01*
X3468Y51890D01*
X3432Y51918D01*
X3392Y51940D01*
X3349Y51956D01*
X3305Y51966D01*
X3258Y51969D01*
X3224Y51967D01*
X3192Y51961D01*
X3161Y51952D01*
X3133Y51939D01*
X3107Y51923D01*
X3083Y51905D01*
X3062Y51884D01*
X3043Y51862D01*
X3043Y52247D01*
X2912Y52247D01*
X2912Y51173D01*
X3035Y51173D01*
X3035Y51173D01*
X12901Y49700D02*
X12901Y50478D01*
X12783Y50478D01*
X12783Y50369D01*
X12763Y50396D01*
X12741Y50420D01*
X12715Y50442D01*
X12686Y50461D01*
X12654Y50476D01*
X12621Y50487D01*
X12585Y50493D01*
X12547Y50495D01*
X12506Y50493D01*
X12469Y50486D01*
X12435Y50475D01*
X12406Y50460D01*
X12380Y50440D01*
X12358Y50416D01*
X12341Y50390D01*
X12328Y50359D01*
X12278Y50419D01*
X12221Y50461D01*
X12158Y50487D01*
X12087Y50495D01*
X12033Y50491D01*
X11985Y50479D01*
X11944Y50459D01*
X11909Y50431D01*
X11882Y50395D01*
X11863Y50350D01*
X11851Y50296D01*
X11847Y50234D01*
X11847Y49700D01*
X11978Y49700D01*
X11978Y50190D01*
X11979Y50227D01*
X11981Y50258D01*
X11985Y50284D01*
X11991Y50304D01*
X11999Y50320D01*
X12009Y50335D01*
X12022Y50348D01*
X12038Y50360D01*
X12055Y50369D01*
X12074Y50376D01*
X12095Y50380D01*
X12117Y50381D01*
X12156Y50378D01*
X12192Y50368D01*
X12224Y50350D01*
X12253Y50327D01*
X12277Y50295D01*
X12294Y50256D01*
X12304Y50208D01*
X12307Y50152D01*
X12307Y49700D01*
X12439Y49700D01*
X12439Y50205D01*
X12441Y50247D01*
X12447Y50282D01*
X12457Y50312D01*
X12471Y50337D01*
X12490Y50356D01*
X12514Y50370D01*
X12543Y50378D01*
X12577Y50381D01*
X12604Y50379D01*
X12630Y50374D01*
X12655Y50365D01*
X12680Y50352D01*
X12702Y50336D01*
X12720Y50316D01*
X12736Y50293D01*
X12748Y50266D01*
X12757Y50235D01*
X12764Y50197D01*
X12768Y50154D01*
X12769Y50104D01*
X12769Y49700D01*
X12901Y49700D01*
X12901Y49700D01*
X11142Y49700D02*
X11142Y49814D01*
X11191Y49757D01*
X11249Y49715D01*
X11315Y49691D01*
X11389Y49682D01*
X11422Y49684D01*
X11455Y49689D01*
X11487Y49697D01*
X11517Y49709D01*
X11545Y49723D01*
X11569Y49739D01*
X11589Y49756D01*
X11606Y49775D01*
X11619Y49796D01*
X11630Y49819D01*
X11640Y49845D01*
X11646Y49873D01*
X11650Y49895D01*
X11653Y49923D01*
X11654Y49957D01*
X11655Y49996D01*
X11655Y50478D01*
X11523Y50478D01*
X11523Y50046D01*
X11522Y49999D01*
X11521Y49960D01*
X11518Y49929D01*
X11515Y49907D01*
X11507Y49883D01*
X11495Y49861D01*
X11480Y49842D01*
X11462Y49826D01*
X11441Y49813D01*
X11417Y49803D01*
X11391Y49798D01*
X11362Y49796D01*
X11333Y49798D01*
X11305Y49804D01*
X11277Y49813D01*
X11251Y49826D01*
X11227Y49843D01*
X11207Y49862D01*
X11190Y49884D01*
X11177Y49909D01*
X11168Y49938D01*
X11161Y49973D01*
X11157Y50014D01*
X11156Y50061D01*
X11156Y50478D01*
X11024Y50478D01*
X11024Y49700D01*
X11142Y49700D01*
X11142Y49700D01*
X10820Y49700D02*
X10820Y50774D01*
X10688Y50774D01*
X10688Y49700D01*
X10820Y49700D01*
X10820Y49700D01*
X10196Y49818D02*
X10177Y49701D01*
X10204Y49696D01*
X10230Y49693D01*
X10254Y49690D01*
X10277Y49690D01*
X10311Y49691D01*
X10341Y49695D01*
X10366Y49703D01*
X10388Y49712D01*
X10406Y49725D01*
X10422Y49739D01*
X10434Y49755D01*
X10444Y49772D01*
X10451Y49796D01*
X10456Y49830D01*
X10459Y49874D01*
X10460Y49928D01*
X10460Y50375D01*
X10557Y50375D01*
X10557Y50478D01*
X10460Y50478D01*
X10460Y50670D01*
X10329Y50750D01*
X10329Y50478D01*
X10196Y50478D01*
X10196Y50375D01*
X10329Y50375D01*
X10329Y49920D01*
X10328Y49895D01*
X10327Y49874D01*
X10325Y49859D01*
X10322Y49848D01*
X10318Y49840D01*
X10313Y49833D01*
X10307Y49827D01*
X10299Y49822D01*
X10290Y49818D01*
X10280Y49815D01*
X10268Y49813D01*
X10254Y49813D01*
X10242Y49813D01*
X10229Y49814D01*
X10213Y49816D01*
X10196Y49818D01*
X10196Y49818D01*
X9651Y49700D02*
X9651Y50478D01*
X9533Y50478D01*
X9533Y50369D01*
X9513Y50396D01*
X9490Y50420D01*
X9464Y50442D01*
X9435Y50461D01*
X9404Y50476D01*
X9370Y50487D01*
X9335Y50493D01*
X9297Y50495D01*
X9256Y50493D01*
X9218Y50486D01*
X9185Y50475D01*
X9155Y50460D01*
X9130Y50440D01*
X9108Y50416D01*
X9091Y50390D01*
X9077Y50359D01*
X9028Y50419D01*
X8971Y50461D01*
X8907Y50487D01*
X8837Y50495D01*
X8782Y50491D01*
X8735Y50479D01*
X8693Y50459D01*
X8659Y50431D01*
X8632Y50395D01*
X8612Y50350D01*
X8601Y50296D01*
X8597Y50234D01*
X8597Y49700D01*
X8728Y49700D01*
X8728Y50190D01*
X8729Y50227D01*
X8731Y50258D01*
X8735Y50284D01*
X8741Y50304D01*
X8748Y50320D01*
X8759Y50335D01*
X8772Y50348D01*
X8787Y50360D01*
X8805Y50369D01*
X8824Y50376D01*
X8844Y50380D01*
X8866Y50381D01*
X8906Y50378D01*
X8941Y50368D01*
X8974Y50350D01*
X9002Y50327D01*
X9026Y50295D01*
X9043Y50256D01*
X9053Y50208D01*
X9057Y50152D01*
X9057Y49700D01*
X9189Y49700D01*
X9189Y50205D01*
X9191Y50247D01*
X9197Y50282D01*
X9207Y50312D01*
X9221Y50337D01*
X9239Y50356D01*
X9263Y50370D01*
X9292Y50378D01*
X9326Y50381D01*
X9354Y50379D01*
X9380Y50374D01*
X9405Y50365D01*
X9429Y50352D01*
X9451Y50336D01*
X9470Y50316D01*
X9485Y50293D01*
X9498Y50266D01*
X9507Y50235D01*
X9514Y50197D01*
X9517Y50154D01*
X9519Y50104D01*
X9519Y49700D01*
X9651Y49700D01*
X9651Y49700D01*
X8450Y50089D02*
X8443Y50190D01*
X8420Y50277D01*
X8383Y50350D01*
X8330Y50409D01*
X8277Y50447D01*
X8219Y50474D01*
X8155Y50490D01*
X8085Y50495D01*
X8009Y50489D01*
X7940Y50469D01*
X7878Y50436D01*
X7823Y50390D01*
X7779Y50333D01*
X7747Y50265D01*
X7728Y50188D01*
X7721Y50100D01*
X7724Y50029D01*
X7733Y49966D01*
X7747Y49911D01*
X7766Y49864D01*
X7792Y49823D01*
X7822Y49787D01*
X7857Y49756D01*
X7898Y49730D01*
X7942Y49709D01*
X7988Y49694D01*
X8036Y49685D01*
X8085Y49682D01*
X8095Y49683D01*
X8085Y49791D01*
X8038Y49795D01*
X7996Y49809D01*
X7957Y49833D01*
X7922Y49866D01*
X7894Y49908D01*
X7873Y49960D01*
X7861Y50022D01*
X7857Y50093D01*
X7861Y50161D01*
X7873Y50220D01*
X7894Y50270D01*
X7922Y50312D01*
X7957Y50344D01*
X7996Y50368D01*
X8039Y50382D01*
X8085Y50386D01*
X8133Y50382D01*
X8176Y50368D01*
X8215Y50345D01*
X8250Y50312D01*
X8278Y50271D01*
X8298Y50219D01*
X8311Y50159D01*
X8315Y50089D01*
X8315Y50089D01*
X8311Y50019D01*
X8298Y49958D01*
X8278Y49907D01*
X8250Y49865D01*
X8215Y49833D01*
X8176Y49809D01*
X8133Y49795D01*
X8085Y49791D01*
X8095Y49683D01*
X8163Y49689D01*
X8233Y49709D01*
X8295Y49741D01*
X8349Y49787D01*
X8394Y49845D01*
X8425Y49915D01*
X8444Y49996D01*
X8450Y50089D01*
X8450Y50089D01*
X7062Y49700D02*
X7062Y49798D01*
X7122Y49860D01*
X7120Y49861D01*
X7094Y49901D01*
X7075Y49951D01*
X7064Y50009D01*
X7060Y50077D01*
X7064Y50152D01*
X7075Y50216D01*
X7095Y50269D01*
X7122Y50312D01*
X7154Y50344D01*
X7190Y50368D01*
X7230Y50382D01*
X7273Y50386D01*
X7315Y50382D01*
X7354Y50368D01*
X7389Y50346D01*
X7420Y50315D01*
X7446Y50273D01*
X7464Y50222D01*
X7475Y50160D01*
X7479Y50088D01*
X7479Y50088D01*
X7475Y50018D01*
X7463Y49958D01*
X7444Y49906D01*
X7416Y49865D01*
X7383Y49832D01*
X7347Y49809D01*
X7309Y49795D01*
X7267Y49791D01*
X7226Y49795D01*
X7187Y49808D01*
X7152Y49831D01*
X7122Y49860D01*
X7062Y49798D01*
X7104Y49748D01*
X7154Y49711D01*
X7212Y49690D01*
X7280Y49682D01*
X7325Y49686D01*
X7369Y49695D01*
X7411Y49711D01*
X7451Y49734D01*
X7488Y49762D01*
X7520Y49795D01*
X7548Y49833D01*
X7572Y49877D01*
X7590Y49925D01*
X7604Y49976D01*
X7612Y50030D01*
X7614Y50088D01*
X7612Y50145D01*
X7605Y50199D01*
X7593Y50251D01*
X7576Y50299D01*
X7554Y50344D01*
X7527Y50383D01*
X7496Y50417D01*
X7459Y50445D01*
X7419Y50467D01*
X7377Y50483D01*
X7332Y50492D01*
X7286Y50495D01*
X7251Y50494D01*
X7219Y50488D01*
X7189Y50479D01*
X7160Y50466D01*
X7134Y50450D01*
X7111Y50432D01*
X7090Y50411D01*
X7071Y50388D01*
X7071Y50774D01*
X6940Y50774D01*
X6940Y49700D01*
X7062Y49700D01*
X7062Y49700D01*
X6223Y49700D02*
X6223Y49814D01*
X6272Y49757D01*
X6330Y49715D01*
X6396Y49691D01*
X6470Y49682D01*
X6504Y49684D01*
X6536Y49689D01*
X6568Y49697D01*
X6598Y49709D01*
X6626Y49723D01*
X6650Y49739D01*
X6670Y49756D01*
X6687Y49775D01*
X6700Y49796D01*
X6711Y49819D01*
X6721Y49845D01*
X6728Y49873D01*
X6731Y49895D01*
X6734Y49923D01*
X6735Y49957D01*
X6736Y49996D01*
X6736Y50478D01*
X6604Y50478D01*
X6604Y50046D01*
X6603Y49999D01*
X6602Y49960D01*
X6599Y49929D01*
X6596Y49907D01*
X6588Y49883D01*
X6576Y49861D01*
X6561Y49842D01*
X6543Y49826D01*
X6522Y49813D01*
X6498Y49803D01*
X6472Y49798D01*
X6443Y49796D01*
X6414Y49798D01*
X6386Y49804D01*
X6358Y49813D01*
X6332Y49826D01*
X6308Y49843D01*
X6288Y49862D01*
X6271Y49884D01*
X6258Y49909D01*
X6249Y49938D01*
X6242Y49973D01*
X6238Y50014D01*
X6237Y50061D01*
X6237Y50478D01*
X6105Y50478D01*
X6105Y49700D01*
X6223Y49700D01*
X6223Y49700D01*
X5901Y49700D02*
X5901Y50774D01*
X5769Y50774D01*
X5769Y49700D01*
X5901Y49700D01*
X5901Y49700D01*
X5033Y49950D02*
X4896Y49934D01*
X4916Y49877D01*
X4942Y49828D01*
X4976Y49785D01*
X5016Y49748D01*
X5062Y49719D01*
X5115Y49699D01*
X5174Y49687D01*
X5239Y49682D01*
X5319Y49689D01*
X5392Y49709D01*
X5455Y49742D01*
X5509Y49788D01*
X5553Y49845D01*
X5584Y49914D01*
X5603Y49993D01*
X5609Y50082D01*
X5603Y50175D01*
X5584Y50257D01*
X5552Y50327D01*
X5508Y50387D01*
X5454Y50434D01*
X5392Y50468D01*
X5323Y50489D01*
X5246Y50495D01*
X5235Y50494D01*
X5244Y50387D01*
X5288Y50383D01*
X5328Y50372D01*
X5364Y50353D01*
X5397Y50326D01*
X5425Y50293D01*
X5445Y50255D01*
X5459Y50212D01*
X5466Y50164D01*
X5466Y50164D01*
X5031Y50164D01*
X5038Y50210D01*
X5048Y50249D01*
X5063Y50283D01*
X5081Y50311D01*
X5115Y50344D01*
X5153Y50368D01*
X5197Y50382D01*
X5244Y50387D01*
X5235Y50494D01*
X5171Y50489D01*
X5104Y50469D01*
X5044Y50436D01*
X4991Y50389D01*
X4948Y50331D01*
X4917Y50261D01*
X4898Y50181D01*
X4892Y50090D01*
X4892Y50084D01*
X4892Y50076D01*
X4893Y50066D01*
X4893Y50055D01*
X5473Y50055D01*
X5466Y49995D01*
X5451Y49942D01*
X5429Y49897D01*
X5400Y49859D01*
X5366Y49829D01*
X5327Y49808D01*
X5284Y49795D01*
X5238Y49791D01*
X5203Y49793D01*
X5171Y49800D01*
X5141Y49812D01*
X5114Y49829D01*
X5090Y49851D01*
X5068Y49878D01*
X5049Y49912D01*
X5033Y49950D01*
X5033Y49950D01*
X12330Y47700D02*
X12746Y48774D01*
X12592Y48774D01*
X12313Y47994D01*
X12297Y47948D01*
X12282Y47903D01*
X12269Y47860D01*
X12257Y47818D01*
X12244Y47862D01*
X12230Y47906D01*
X12215Y47950D01*
X12199Y47994D01*
X11909Y48774D01*
X11764Y48774D01*
X12184Y47700D01*
X12330Y47700D01*
X12330Y47700D01*
X11203Y47950D02*
X11067Y47934D01*
X11087Y47877D01*
X11113Y47828D01*
X11146Y47785D01*
X11187Y47748D01*
X11233Y47719D01*
X11286Y47699D01*
X11345Y47687D01*
X11409Y47682D01*
X11490Y47689D01*
X11562Y47709D01*
X11626Y47742D01*
X11680Y47788D01*
X11724Y47845D01*
X11755Y47914D01*
X11774Y47993D01*
X11780Y48082D01*
X11774Y48175D01*
X11755Y48257D01*
X11723Y48327D01*
X11679Y48387D01*
X11625Y48434D01*
X11563Y48468D01*
X11493Y48489D01*
X11417Y48495D01*
X11406Y48494D01*
X11415Y48387D01*
X11459Y48383D01*
X11499Y48372D01*
X11535Y48353D01*
X11568Y48326D01*
X11595Y48293D01*
X11616Y48255D01*
X11630Y48212D01*
X11636Y48164D01*
X11636Y48164D01*
X11202Y48164D01*
X11208Y48210D01*
X11219Y48249D01*
X11233Y48283D01*
X11252Y48311D01*
X11286Y48344D01*
X11324Y48368D01*
X11367Y48382D01*
X11415Y48387D01*
X11406Y48494D01*
X11342Y48489D01*
X11275Y48469D01*
X11215Y48436D01*
X11162Y48389D01*
X11118Y48331D01*
X11088Y48261D01*
X11069Y48181D01*
X11063Y48090D01*
X11063Y48084D01*
X11063Y48076D01*
X11063Y48066D01*
X11064Y48055D01*
X11644Y48055D01*
X11636Y47995D01*
X11622Y47942D01*
X11600Y47897D01*
X11571Y47859D01*
X11537Y47829D01*
X11498Y47808D01*
X11455Y47795D01*
X11409Y47791D01*
X11374Y47793D01*
X11341Y47800D01*
X11312Y47812D01*
X11285Y47829D01*
X11260Y47851D01*
X11239Y47878D01*
X11220Y47912D01*
X11203Y47950D01*
X11203Y47950D01*
X10903Y47700D02*
X10903Y48478D01*
X10785Y48478D01*
X10785Y48360D01*
X10762Y48398D01*
X10741Y48429D01*
X10720Y48452D01*
X10701Y48469D01*
X10681Y48481D01*
X10660Y48489D01*
X10639Y48494D01*
X10616Y48495D01*
X10583Y48493D01*
X10549Y48485D01*
X10515Y48472D01*
X10481Y48453D01*
X10526Y48331D01*
X10550Y48343D01*
X10574Y48352D01*
X10598Y48357D01*
X10623Y48359D01*
X10644Y48358D01*
X10664Y48353D01*
X10683Y48345D01*
X10700Y48333D01*
X10716Y48319D01*
X10730Y48302D01*
X10741Y48283D01*
X10749Y48261D01*
X10759Y48225D01*
X10766Y48187D01*
X10770Y48148D01*
X10771Y48107D01*
X10771Y47700D01*
X10903Y47700D01*
X10903Y47700D01*
X10455Y47932D02*
X10325Y47953D01*
X10317Y47916D01*
X10304Y47883D01*
X10286Y47856D01*
X10263Y47833D01*
X10236Y47814D01*
X10203Y47801D01*
X10166Y47793D01*
X10123Y47791D01*
X10081Y47793D01*
X10044Y47800D01*
X10013Y47812D01*
X9988Y47828D01*
X9969Y47847D01*
X9955Y47868D01*
X9947Y47890D01*
X9944Y47915D01*
X9947Y47936D01*
X9954Y47955D01*
X9966Y47971D01*
X9983Y47985D01*
X10002Y47994D01*
X10031Y48005D01*
X10069Y48017D01*
X10118Y48030D01*
X10185Y48047D01*
X10241Y48064D01*
X10286Y48079D01*
X10319Y48093D01*
X10345Y48108D01*
X10368Y48125D01*
X10388Y48145D01*
X10404Y48167D01*
X10417Y48191D01*
X10426Y48217D01*
X10431Y48243D01*
X10433Y48271D01*
X10432Y48297D01*
X10427Y48321D01*
X10420Y48345D01*
X10409Y48368D01*
X10396Y48389D01*
X10381Y48408D01*
X10364Y48426D01*
X10344Y48441D01*
X10328Y48452D01*
X10308Y48462D01*
X10286Y48471D01*
X10261Y48480D01*
X10233Y48487D01*
X10205Y48491D01*
X10177Y48494D01*
X10147Y48495D01*
X10102Y48494D01*
X10061Y48489D01*
X10022Y48481D01*
X9986Y48469D01*
X9954Y48455D01*
X9926Y48438D01*
X9902Y48419D01*
X9884Y48398D01*
X9868Y48373D01*
X9856Y48345D01*
X9846Y48313D01*
X9838Y48277D01*
X9967Y48260D01*
X9974Y48288D01*
X9984Y48313D01*
X9999Y48335D01*
X10018Y48353D01*
X10041Y48368D01*
X10069Y48379D01*
X10101Y48385D01*
X10137Y48387D01*
X10179Y48385D01*
X10215Y48380D01*
X10244Y48370D01*
X10267Y48357D01*
X10284Y48341D01*
X10296Y48324D01*
X10303Y48306D01*
X10306Y48287D01*
X10305Y48274D01*
X10302Y48262D01*
X10296Y48251D01*
X10289Y48241D01*
X10280Y48230D01*
X10269Y48221D01*
X10255Y48213D01*
X10239Y48205D01*
X10224Y48201D01*
X10200Y48193D01*
X10166Y48184D01*
X10122Y48172D01*
X10058Y48154D01*
X10004Y48138D01*
X9960Y48123D01*
X9927Y48111D01*
X9901Y48097D01*
X9878Y48081D01*
X9858Y48063D01*
X9840Y48041D01*
X9827Y48017D01*
X9817Y47990D01*
X9811Y47961D01*
X9809Y47929D01*
X9811Y47896D01*
X9819Y47865D01*
X9831Y47834D01*
X9847Y47804D01*
X9869Y47777D01*
X9894Y47753D01*
X9924Y47732D01*
X9958Y47714D01*
X9996Y47700D01*
X10036Y47690D01*
X10078Y47684D01*
X10122Y47682D01*
X10194Y47686D01*
X10256Y47698D01*
X10309Y47718D01*
X10354Y47745D01*
X10390Y47781D01*
X10419Y47824D01*
X10440Y47874D01*
X10455Y47932D01*
X10455Y47932D01*
X9651Y47700D02*
X9651Y48478D01*
X9520Y48478D01*
X9520Y47700D01*
X9651Y47700D01*
X9651Y47700D01*
X9651Y48622D02*
X9651Y48774D01*
X9520Y48774D01*
X9520Y48622D01*
X9651Y48622D01*
X9651Y48622D01*
X9368Y48089D02*
X9361Y48190D01*
X9338Y48277D01*
X9300Y48350D01*
X9248Y48409D01*
X9195Y48447D01*
X9137Y48474D01*
X9073Y48490D01*
X9003Y48495D01*
X8927Y48489D01*
X8858Y48469D01*
X8796Y48436D01*
X8741Y48390D01*
X8697Y48333D01*
X8665Y48265D01*
X8646Y48188D01*
X8639Y48100D01*
X8642Y48029D01*
X8651Y47966D01*
X8665Y47911D01*
X8684Y47864D01*
X8709Y47823D01*
X8740Y47787D01*
X8775Y47756D01*
X8815Y47730D01*
X8859Y47709D01*
X8905Y47694D01*
X8953Y47685D01*
X9003Y47682D01*
X9012Y47683D01*
X9003Y47791D01*
X8956Y47795D01*
X8913Y47809D01*
X8875Y47833D01*
X8840Y47866D01*
X8811Y47908D01*
X8791Y47960D01*
X8779Y48022D01*
X8775Y48093D01*
X8779Y48161D01*
X8791Y48220D01*
X8812Y48270D01*
X8840Y48312D01*
X8875Y48344D01*
X8914Y48368D01*
X8957Y48382D01*
X9003Y48386D01*
X9051Y48382D01*
X9094Y48368D01*
X9133Y48345D01*
X9167Y48312D01*
X9196Y48271D01*
X9216Y48219D01*
X9228Y48159D01*
X9233Y48089D01*
X9233Y48089D01*
X9228Y48019D01*
X9216Y47958D01*
X9196Y47907D01*
X9167Y47865D01*
X9133Y47833D01*
X9094Y47809D01*
X9051Y47795D01*
X9003Y47791D01*
X9012Y47683D01*
X9081Y47689D01*
X9151Y47709D01*
X9213Y47741D01*
X9267Y47787D01*
X9311Y47845D01*
X9343Y47915D01*
X9362Y47996D01*
X9368Y48089D01*
X9368Y48089D01*
X8485Y47700D02*
X8485Y48478D01*
X8366Y48478D01*
X8366Y48367D01*
X8318Y48423D01*
X8261Y48463D01*
X8195Y48487D01*
X8119Y48495D01*
X8084Y48494D01*
X8051Y48489D01*
X8019Y48481D01*
X7989Y48470D01*
X7962Y48457D01*
X7938Y48441D01*
X7917Y48423D01*
X7901Y48404D01*
X7887Y48382D01*
X7876Y48359D01*
X7867Y48334D01*
X7860Y48306D01*
X7857Y48285D01*
X7854Y48256D01*
X7853Y48221D01*
X7853Y48178D01*
X7853Y47700D01*
X7984Y47700D01*
X7984Y48173D01*
X7985Y48211D01*
X7988Y48244D01*
X7993Y48271D01*
X8000Y48294D01*
X8009Y48313D01*
X8021Y48330D01*
X8036Y48344D01*
X8054Y48357D01*
X8075Y48368D01*
X8097Y48375D01*
X8121Y48380D01*
X8146Y48381D01*
X8187Y48378D01*
X8225Y48368D01*
X8260Y48351D01*
X8292Y48328D01*
X8318Y48295D01*
X8338Y48250D01*
X8349Y48194D01*
X8353Y48125D01*
X8353Y47700D01*
X8485Y47700D01*
X8485Y47700D01*
X6774Y47700D02*
X6906Y47700D01*
X6906Y48540D01*
X6931Y48517D01*
X6961Y48495D01*
X6994Y48472D01*
X7030Y48449D01*
X7068Y48428D01*
X7104Y48410D01*
X7138Y48394D01*
X7169Y48381D01*
X7169Y48509D01*
X7116Y48536D01*
X7066Y48566D01*
X7019Y48599D01*
X6976Y48635D01*
X6938Y48671D01*
X6905Y48707D01*
X6879Y48743D01*
X6859Y48778D01*
X6774Y48778D01*
X6774Y47700D01*
X6774Y47700D01*
X6362Y47700D02*
X6362Y47850D01*
X6212Y47850D01*
X6212Y47700D01*
X6362Y47700D01*
X6362Y47700D01*
X6019Y48230D02*
X6017Y48320D01*
X6010Y48401D01*
X5997Y48473D01*
X5980Y48536D01*
X5958Y48591D01*
X5932Y48639D01*
X5900Y48680D01*
X5864Y48715D01*
X5823Y48743D01*
X5777Y48762D01*
X5725Y48774D01*
X5669Y48778D01*
X5627Y48776D01*
X5588Y48769D01*
X5552Y48759D01*
X5518Y48743D01*
X5487Y48724D01*
X5458Y48701D01*
X5433Y48674D01*
X5410Y48643D01*
X5390Y48608D01*
X5372Y48570D01*
X5357Y48529D01*
X5343Y48483D01*
X5333Y48432D01*
X5325Y48373D01*
X5321Y48305D01*
X5319Y48230D01*
X5322Y48140D01*
X5329Y48059D01*
X5341Y47987D01*
X5358Y47924D01*
X5380Y47870D01*
X5406Y47822D01*
X5438Y47780D01*
X5474Y47745D01*
X5515Y47717D01*
X5562Y47698D01*
X5613Y47686D01*
X5669Y47682D01*
X5679Y47683D01*
X5669Y47790D01*
X5626Y47796D01*
X5586Y47812D01*
X5549Y47840D01*
X5517Y47878D01*
X5490Y47933D01*
X5470Y48010D01*
X5459Y48109D01*
X5455Y48230D01*
X5459Y48351D01*
X5470Y48450D01*
X5490Y48527D01*
X5517Y48582D01*
X5549Y48620D01*
X5586Y48647D01*
X5627Y48664D01*
X5671Y48669D01*
X5714Y48664D01*
X5752Y48650D01*
X5786Y48626D01*
X5816Y48592D01*
X5846Y48533D01*
X5867Y48452D01*
X5880Y48351D01*
X5884Y48230D01*
X5884Y48230D01*
X5880Y48108D01*
X5868Y48009D01*
X5849Y47932D01*
X5822Y47878D01*
X5789Y47839D01*
X5753Y47812D01*
X5713Y47796D01*
X5669Y47790D01*
X5679Y47683D01*
X5743Y47689D01*
X5808Y47710D01*
X5865Y47744D01*
X5913Y47793D01*
X5960Y47871D01*
X5993Y47969D01*
X6013Y48089D01*
X6019Y48230D01*
X6019Y48230D01*
G37*
M02*