  0
SECTION
  2
BLOCKS
  0
ENDSEC
  0
SECTION
  2
ENTITIES
  0
LINE
  8
0
 10
20
 20
128.5
 11
0
 21
128.5
  0
LINE
  8
0
 10
0
 20
128.5
 11
0
 21
0
  0
LINE
  8
0
 10
0
 20
0
 11
20
 21
0
  0
LINE
  8
0
 10
20
 20
0
 11
20
 21
128.5
  0
LINE
  8
0
 10
7.34317
 20
123.908
 11
7.18785
 21
123.931
  0
LINE
  8
0
 10
7.18785
 20
123.931
 11
7.03554
 21
123.969
  0
LINE
  8
0
 10
7.03554
 20
123.969
 11
6.8877
 21
124.022
  0
LINE
  8
0
 10
6.8877
 20
124.022
 11
6.74576
 21
124.089
  0
LINE
  8
0
 10
6.74576
 20
124.089
 11
6.61108
 21
124.17
  0
LINE
  8
0
 10
6.61108
 20
124.17
 11
6.48497
 21
124.263
  0
LINE
  8
0
 10
6.48497
 20
124.263
 11
6.36862
 21
124.369
  0
LINE
  8
0
 10
6.36862
 20
124.369
 11
6.26317
 21
124.485
  0
LINE
  8
0
 10
6.26317
 20
124.485
 11
6.16965
 21
124.611
  0
LINE
  8
0
 10
6.16965
 20
124.611
 11
6.08891
 21
124.746
  0
LINE
  8
0
 10
6.08891
 20
124.746
 11
6.02179
 21
124.888
  0
LINE
  8
0
 10
6.02179
 20
124.888
 11
5.96889
 21
125.036
  0
LINE
  8
0
 10
5.96889
 20
125.036
 11
5.93074
 21
125.188
  0
LINE
  8
0
 10
5.93074
 20
125.188
 11
5.9077
 21
125.343
  0
LINE
  8
0
 10
5.9077
 20
125.343
 11
5.89999
 21
125.5
  0
LINE
  8
0
 10
5.89999
 20
125.5
 11
5.9077
 21
125.657
  0
LINE
  8
0
 10
5.9077
 20
125.657
 11
5.93074
 21
125.812
  0
LINE
  8
0
 10
5.93074
 20
125.812
 11
5.96889
 21
125.964
  0
LINE
  8
0
 10
5.96889
 20
125.964
 11
6.02179
 21
126.112
  0
LINE
  8
0
 10
6.02179
 20
126.112
 11
6.08891
 21
126.254
  0
LINE
  8
0
 10
6.08891
 20
126.254
 11
6.16965
 21
126.389
  0
LINE
  8
0
 10
6.16965
 20
126.389
 11
6.26317
 21
126.515
  0
LINE
  8
0
 10
6.26317
 20
126.515
 11
6.36862
 21
126.631
  0
LINE
  8
0
 10
6.36862
 20
126.631
 11
6.48497
 21
126.737
  0
LINE
  8
0
 10
6.48497
 20
126.737
 11
6.61108
 21
126.83
  0
LINE
  8
0
 10
6.61108
 20
126.83
 11
6.74576
 21
126.911
  0
LINE
  8
0
 10
6.74576
 20
126.911
 11
6.8877
 21
126.978
  0
LINE
  8
0
 10
6.8877
 20
126.978
 11
7.03554
 21
127.031
  0
LINE
  8
0
 10
7.03554
 20
127.031
 11
7.18785
 21
127.069
  0
LINE
  8
0
 10
7.18785
 20
127.069
 11
7.34317
 21
127.092
  0
LINE
  8
0
 10
7.34317
 20
127.092
 11
7.5
 21
127.1
  0
LINE
  8
0
 10
7.5
 20
127.1
 11
7.65681
 21
127.092
  0
LINE
  8
0
 10
7.65681
 20
127.092
 11
7.81213
 21
127.069
  0
LINE
  8
0
 10
7.81213
 20
127.069
 11
7.96445
 21
127.031
  0
LINE
  8
0
 10
7.96445
 20
127.031
 11
8.11229
 21
126.978
  0
LINE
  8
0
 10
8.11229
 20
126.978
 11
8.25423
 21
126.911
  0
LINE
  8
0
 10
8.25423
 20
126.911
 11
8.3889
 21
126.83
  0
LINE
  8
0
 10
8.3889
 20
126.83
 11
8.51501
 21
126.737
  0
LINE
  8
0
 10
8.51501
 20
126.737
 11
8.63136
 21
126.631
  0
LINE
  8
0
 10
8.63136
 20
126.631
 11
8.73682
 21
126.515
  0
LINE
  8
0
 10
8.73682
 20
126.515
 11
8.83034
 21
126.389
  0
LINE
  8
0
 10
8.83034
 20
126.389
 11
8.91107
 21
126.254
  0
LINE
  8
0
 10
8.91107
 20
126.254
 11
8.9782
 21
126.112
  0
LINE
  8
0
 10
8.9782
 20
126.112
 11
9.0311
 21
125.964
  0
LINE
  8
0
 10
9.0311
 20
125.964
 11
9.06924
 21
125.812
  0
LINE
  8
0
 10
9.06924
 20
125.812
 11
9.09229
 21
125.657
  0
LINE
  8
0
 10
9.09229
 20
125.657
 11
9.09999
 21
125.5
  0
LINE
  8
0
 10
9.09999
 20
125.5
 11
9.09229
 21
125.343
  0
LINE
  8
0
 10
9.09229
 20
125.343
 11
9.06924
 21
125.188
  0
LINE
  8
0
 10
9.06924
 20
125.188
 11
9.0311
 21
125.036
  0
LINE
  8
0
 10
9.0311
 20
125.036
 11
8.9782
 21
124.888
  0
LINE
  8
0
 10
8.9782
 20
124.888
 11
8.91107
 21
124.746
  0
LINE
  8
0
 10
8.91107
 20
124.746
 11
8.83034
 21
124.611
  0
LINE
  8
0
 10
8.83034
 20
124.611
 11
8.73682
 21
124.485
  0
LINE
  8
0
 10
8.73682
 20
124.485
 11
8.63136
 21
124.369
  0
LINE
  8
0
 10
8.63136
 20
124.369
 11
8.51501
 21
124.263
  0
LINE
  8
0
 10
8.51501
 20
124.263
 11
8.3889
 21
124.17
  0
LINE
  8
0
 10
8.3889
 20
124.17
 11
8.25423
 21
124.089
  0
LINE
  8
0
 10
8.25423
 20
124.089
 11
8.11229
 21
124.022
  0
LINE
  8
0
 10
8.11229
 20
124.022
 11
7.96445
 21
123.969
  0
LINE
  8
0
 10
7.96445
 20
123.969
 11
7.81213
 21
123.931
  0
LINE
  8
0
 10
7.81213
 20
123.931
 11
7.65681
 21
123.908
  0
LINE
  8
0
 10
7.65681
 20
123.908
 11
7.5
 21
123.9
  0
LINE
  8
0
 10
7.5
 20
123.9
 11
7.34317
 21
123.908
  0
LINE
  8
0
 10
13.0069
 20
105.767
 11
12.6672
 21
105.817
  0
LINE
  8
0
 10
12.6672
 20
105.817
 11
12.334
 21
105.901
  0
LINE
  8
0
 10
12.334
 20
105.901
 11
12.0106
 21
106.016
  0
LINE
  8
0
 10
12.0106
 20
106.016
 11
11.7001
 21
106.163
  0
LINE
  8
0
 10
11.7001
 20
106.163
 11
11.4055
 21
106.34
  0
LINE
  8
0
 10
11.4055
 20
106.34
 11
11.1296
 21
106.544
  0
LINE
  8
0
 10
11.1296
 20
106.544
 11
10.8751
 21
106.775
  0
LINE
  8
0
 10
10.8751
 20
106.775
 11
10.6445
 21
107.03
  0
LINE
  8
0
 10
10.6445
 20
107.03
 11
10.4398
 21
107.305
  0
LINE
  8
0
 10
10.4398
 20
107.305
 11
10.2633
 21
107.6
  0
LINE
  8
0
 10
10.2633
 20
107.6
 11
10.1164
 21
107.911
  0
LINE
  8
0
 10
10.1164
 20
107.911
 11
10.0007
 21
108.234
  0
LINE
  8
0
 10
10.0007
 20
108.234
 11
9.91725
 21
108.567
  0
LINE
  8
0
 10
9.91725
 20
108.567
 11
9.86685
 21
108.907
  0
LINE
  8
0
 10
9.86685
 20
108.907
 11
9.84999
 21
109.25
  0
LINE
  8
0
 10
9.84999
 20
109.25
 11
9.86685
 21
109.593
  0
LINE
  8
0
 10
9.86685
 20
109.593
 11
9.91725
 21
109.933
  0
LINE
  8
0
 10
9.91725
 20
109.933
 11
10.0007
 21
110.266
  0
LINE
  8
0
 10
10.0007
 20
110.266
 11
10.1164
 21
110.589
  0
LINE
  8
0
 10
10.1164
 20
110.589
 11
10.2633
 21
110.9
  0
LINE
  8
0
 10
10.2633
 20
110.9
 11
10.4398
 21
111.194
  0
LINE
  8
0
 10
10.4398
 20
111.194
 11
10.6445
 21
111.47
  0
LINE
  8
0
 10
10.6445
 20
111.47
 11
10.8751
 21
111.725
  0
LINE
  8
0
 10
10.8751
 20
111.725
 11
11.1296
 21
111.956
  0
LINE
  8
0
 10
11.1296
 20
111.956
 11
11.4055
 21
112.16
  0
LINE
  8
0
 10
11.4055
 20
112.16
 11
11.7001
 21
112.337
  0
LINE
  8
0
 10
11.7001
 20
112.337
 11
12.0106
 21
112.484
  0
LINE
  8
0
 10
12.0106
 20
112.484
 11
12.334
 21
112.599
  0
LINE
  8
0
 10
12.334
 20
112.599
 11
12.6672
 21
112.683
  0
LINE
  8
0
 10
12.6672
 20
112.683
 11
13.0069
 21
112.733
  0
LINE
  8
0
 10
13.0069
 20
112.733
 11
13.35
 21
112.75
  0
LINE
  8
0
 10
13.35
 20
112.75
 11
13.693
 21
112.733
  0
LINE
  8
0
 10
13.693
 20
112.733
 11
14.0328
 21
112.683
  0
LINE
  8
0
 10
14.0328
 20
112.683
 11
14.366
 21
112.599
  0
LINE
  8
0
 10
14.366
 20
112.599
 11
14.6894
 21
112.484
  0
LINE
  8
0
 10
14.6894
 20
112.484
 11
14.9999
 21
112.337
  0
LINE
  8
0
 10
14.9999
 20
112.337
 11
15.2945
 21
112.16
  0
LINE
  8
0
 10
15.2945
 20
112.16
 11
15.5704
 21
111.956
  0
LINE
  8
0
 10
15.5704
 20
111.956
 11
15.8249
 21
111.725
  0
LINE
  8
0
 10
15.8249
 20
111.725
 11
16.0555
 21
111.47
  0
LINE
  8
0
 10
16.0555
 20
111.47
 11
16.2601
 21
111.194
  0
LINE
  8
0
 10
16.2601
 20
111.194
 11
16.4367
 21
110.9
  0
LINE
  8
0
 10
16.4367
 20
110.9
 11
16.5836
 21
110.589
  0
LINE
  8
0
 10
16.5836
 20
110.589
 11
16.6993
 21
110.266
  0
LINE
  8
0
 10
16.6993
 20
110.266
 11
16.7827
 21
109.933
  0
LINE
  8
0
 10
16.7827
 20
109.933
 11
16.8331
 21
109.593
  0
LINE
  8
0
 10
16.8331
 20
109.593
 11
16.85
 21
109.25
  0
LINE
  8
0
 10
16.85
 20
109.25
 11
16.8331
 21
108.907
  0
LINE
  8
0
 10
16.8331
 20
108.907
 11
16.7827
 21
108.567
  0
LINE
  8
0
 10
16.7827
 20
108.567
 11
16.6993
 21
108.234
  0
LINE
  8
0
 10
16.6993
 20
108.234
 11
16.5836
 21
107.911
  0
LINE
  8
0
 10
16.5836
 20
107.911
 11
16.4367
 21
107.6
  0
LINE
  8
0
 10
16.4367
 20
107.6
 11
16.2601
 21
107.305
  0
LINE
  8
0
 10
16.2601
 20
107.305
 11
16.0555
 21
107.03
  0
LINE
  8
0
 10
16.0555
 20
107.03
 11
15.8249
 21
106.775
  0
LINE
  8
0
 10
15.8249
 20
106.775
 11
15.5704
 21
106.544
  0
LINE
  8
0
 10
15.5704
 20
106.544
 11
15.2945
 21
106.34
  0
LINE
  8
0
 10
15.2945
 20
106.34
 11
14.9999
 21
106.163
  0
LINE
  8
0
 10
14.9999
 20
106.163
 11
14.6894
 21
106.016
  0
LINE
  8
0
 10
14.6894
 20
106.016
 11
14.366
 21
105.901
  0
LINE
  8
0
 10
14.366
 20
105.901
 11
14.0328
 21
105.817
  0
LINE
  8
0
 10
14.0328
 20
105.817
 11
13.693
 21
105.767
  0
LINE
  8
0
 10
13.693
 20
105.767
 11
13.35
 21
105.75
  0
LINE
  8
0
 10
13.35
 20
105.75
 11
13.0069
 21
105.767
  0
LINE
  8
0
 10
13.0069
 20
95.7668
 11
12.6672
 21
95.8172
  0
LINE
  8
0
 10
12.6672
 20
95.8172
 11
12.334
 21
95.9007
  0
LINE
  8
0
 10
12.334
 20
95.9007
 11
12.0106
 21
96.0164
  0
LINE
  8
0
 10
12.0106
 20
96.0164
 11
11.7001
 21
96.1633
  0
LINE
  8
0
 10
11.7001
 20
96.1633
 11
11.4055
 21
96.3398
  0
LINE
  8
0
 10
11.4055
 20
96.3398
 11
11.1296
 21
96.5444
  0
LINE
  8
0
 10
11.1296
 20
96.5444
 11
10.8751
 21
96.7751
  0
LINE
  8
0
 10
10.8751
 20
96.7751
 11
10.6445
 21
97.0296
  0
LINE
  8
0
 10
10.6445
 20
97.0296
 11
10.4398
 21
97.3055
  0
LINE
  8
0
 10
10.4398
 20
97.3055
 11
10.2633
 21
97.6001
  0
LINE
  8
0
 10
10.2633
 20
97.6001
 11
10.1164
 21
97.9106
  0
LINE
  8
0
 10
10.1164
 20
97.9106
 11
10.0007
 21
98.234
  0
LINE
  8
0
 10
10.0007
 20
98.234
 11
9.91725
 21
98.5672
  0
LINE
  8
0
 10
9.91725
 20
98.5672
 11
9.86685
 21
98.9069
  0
LINE
  8
0
 10
9.86685
 20
98.9069
 11
9.84999
 21
99.25
  0
LINE
  8
0
 10
9.84999
 20
99.25
 11
9.86685
 21
99.593
  0
LINE
  8
0
 10
9.86685
 20
99.593
 11
9.91725
 21
99.9328
  0
LINE
  8
0
 10
9.91725
 20
99.9328
 11
10.0007
 21
100.266
  0
LINE
  8
0
 10
10.0007
 20
100.266
 11
10.1164
 21
100.589
  0
LINE
  8
0
 10
10.1164
 20
100.589
 11
10.2633
 21
100.9
  0
LINE
  8
0
 10
10.2633
 20
100.9
 11
10.4398
 21
101.194
  0
LINE
  8
0
 10
10.4398
 20
101.194
 11
10.6445
 21
101.47
  0
LINE
  8
0
 10
10.6445
 20
101.47
 11
10.8751
 21
101.725
  0
LINE
  8
0
 10
10.8751
 20
101.725
 11
11.1296
 21
101.956
  0
LINE
  8
0
 10
11.1296
 20
101.956
 11
11.4055
 21
102.16
  0
LINE
  8
0
 10
11.4055
 20
102.16
 11
11.7001
 21
102.337
  0
LINE
  8
0
 10
11.7001
 20
102.337
 11
12.0106
 21
102.484
  0
LINE
  8
0
 10
12.0106
 20
102.484
 11
12.334
 21
102.599
  0
LINE
  8
0
 10
12.334
 20
102.599
 11
12.6672
 21
102.683
  0
LINE
  8
0
 10
12.6672
 20
102.683
 11
13.0069
 21
102.733
  0
LINE
  8
0
 10
13.0069
 20
102.733
 11
13.35
 21
102.75
  0
LINE
  8
0
 10
13.35
 20
102.75
 11
13.693
 21
102.733
  0
LINE
  8
0
 10
13.693
 20
102.733
 11
14.0328
 21
102.683
  0
LINE
  8
0
 10
14.0328
 20
102.683
 11
14.366
 21
102.599
  0
LINE
  8
0
 10
14.366
 20
102.599
 11
14.6894
 21
102.484
  0
LINE
  8
0
 10
14.6894
 20
102.484
 11
14.9999
 21
102.337
  0
LINE
  8
0
 10
14.9999
 20
102.337
 11
15.2945
 21
102.16
  0
LINE
  8
0
 10
15.2945
 20
102.16
 11
15.5704
 21
101.956
  0
LINE
  8
0
 10
15.5704
 20
101.956
 11
15.8249
 21
101.725
  0
LINE
  8
0
 10
15.8249
 20
101.725
 11
16.0555
 21
101.47
  0
LINE
  8
0
 10
16.0555
 20
101.47
 11
16.2601
 21
101.194
  0
LINE
  8
0
 10
16.2601
 20
101.194
 11
16.4367
 21
100.9
  0
LINE
  8
0
 10
16.4367
 20
100.9
 11
16.5836
 21
100.589
  0
LINE
  8
0
 10
16.5836
 20
100.589
 11
16.6993
 21
100.266
  0
LINE
  8
0
 10
16.6993
 20
100.266
 11
16.7827
 21
99.9328
  0
LINE
  8
0
 10
16.7827
 20
99.9328
 11
16.8331
 21
99.593
  0
LINE
  8
0
 10
16.8331
 20
99.593
 11
16.85
 21
99.25
  0
LINE
  8
0
 10
16.85
 20
99.25
 11
16.8331
 21
98.9069
  0
LINE
  8
0
 10
16.8331
 20
98.9069
 11
16.7827
 21
98.5672
  0
LINE
  8
0
 10
16.7827
 20
98.5672
 11
16.6993
 21
98.234
  0
LINE
  8
0
 10
16.6993
 20
98.234
 11
16.5836
 21
97.9106
  0
LINE
  8
0
 10
16.5836
 20
97.9106
 11
16.4367
 21
97.6001
  0
LINE
  8
0
 10
16.4367
 20
97.6001
 11
16.2601
 21
97.3055
  0
LINE
  8
0
 10
16.2601
 20
97.3055
 11
16.0555
 21
97.0296
  0
LINE
  8
0
 10
16.0555
 20
97.0296
 11
15.8249
 21
96.7751
  0
LINE
  8
0
 10
15.8249
 20
96.7751
 11
15.5704
 21
96.5444
  0
LINE
  8
0
 10
15.5704
 20
96.5444
 11
15.2945
 21
96.3398
  0
LINE
  8
0
 10
15.2945
 20
96.3398
 11
14.9999
 21
96.1633
  0
LINE
  8
0
 10
14.9999
 20
96.1633
 11
14.6894
 21
96.0164
  0
LINE
  8
0
 10
14.6894
 20
96.0164
 11
14.366
 21
95.9007
  0
LINE
  8
0
 10
14.366
 20
95.9007
 11
14.0328
 21
95.8172
  0
LINE
  8
0
 10
14.0328
 20
95.8172
 11
13.693
 21
95.7668
  0
LINE
  8
0
 10
13.693
 20
95.7668
 11
13.35
 21
95.75
  0
LINE
  8
0
 10
13.35
 20
95.75
 11
13.0069
 21
95.7668
  0
LINE
  8
0
 10
13.0069
 20
85.7668
 11
12.6672
 21
85.8172
  0
LINE
  8
0
 10
12.6672
 20
85.8172
 11
12.334
 21
85.9007
  0
LINE
  8
0
 10
12.334
 20
85.9007
 11
12.0106
 21
86.0164
  0
LINE
  8
0
 10
12.0106
 20
86.0164
 11
11.7001
 21
86.1633
  0
LINE
  8
0
 10
11.7001
 20
86.1633
 11
11.4055
 21
86.3398
  0
LINE
  8
0
 10
11.4055
 20
86.3398
 11
11.1296
 21
86.5444
  0
LINE
  8
0
 10
11.1296
 20
86.5444
 11
10.8751
 21
86.7751
  0
LINE
  8
0
 10
10.8751
 20
86.7751
 11
10.6445
 21
87.0296
  0
LINE
  8
0
 10
10.6445
 20
87.0296
 11
10.4398
 21
87.3055
  0
LINE
  8
0
 10
10.4398
 20
87.3055
 11
10.2633
 21
87.6001
  0
LINE
  8
0
 10
10.2633
 20
87.6001
 11
10.1164
 21
87.9106
  0
LINE
  8
0
 10
10.1164
 20
87.9106
 11
10.0007
 21
88.234
  0
LINE
  8
0
 10
10.0007
 20
88.234
 11
9.91725
 21
88.5672
  0
LINE
  8
0
 10
9.91725
 20
88.5672
 11
9.86685
 21
88.9069
  0
LINE
  8
0
 10
9.86685
 20
88.9069
 11
9.84999
 21
89.25
  0
LINE
  8
0
 10
9.84999
 20
89.25
 11
9.86685
 21
89.593
  0
LINE
  8
0
 10
9.86685
 20
89.593
 11
9.91725
 21
89.9328
  0
LINE
  8
0
 10
9.91725
 20
89.9328
 11
10.0007
 21
90.266
  0
LINE
  8
0
 10
10.0007
 20
90.266
 11
10.1164
 21
90.5894
  0
LINE
  8
0
 10
10.1164
 20
90.5894
 11
10.2633
 21
90.8999
  0
LINE
  8
0
 10
10.2633
 20
90.8999
 11
10.4398
 21
91.1945
  0
LINE
  8
0
 10
10.4398
 20
91.1945
 11
10.6445
 21
91.4704
  0
LINE
  8
0
 10
10.6445
 20
91.4704
 11
10.8751
 21
91.7249
  0
LINE
  8
0
 10
10.8751
 20
91.7249
 11
11.1296
 21
91.9555
  0
LINE
  8
0
 10
11.1296
 20
91.9555
 11
11.4055
 21
92.1601
  0
LINE
  8
0
 10
11.4055
 20
92.1601
 11
11.7001
 21
92.3367
  0
LINE
  8
0
 10
11.7001
 20
92.3367
 11
12.0106
 21
92.4836
  0
LINE
  8
0
 10
12.0106
 20
92.4836
 11
12.334
 21
92.5993
  0
LINE
  8
0
 10
12.334
 20
92.5993
 11
12.6672
 21
92.6827
  0
LINE
  8
0
 10
12.6672
 20
92.6827
 11
13.0069
 21
92.7331
  0
LINE
  8
0
 10
13.0069
 20
92.7331
 11
13.35
 21
92.75
  0
LINE
  8
0
 10
13.35
 20
92.75
 11
13.693
 21
92.7331
  0
LINE
  8
0
 10
13.693
 20
92.7331
 11
14.0328
 21
92.6827
  0
LINE
  8
0
 10
14.0328
 20
92.6827
 11
14.366
 21
92.5993
  0
LINE
  8
0
 10
14.366
 20
92.5993
 11
14.6894
 21
92.4836
  0
LINE
  8
0
 10
14.6894
 20
92.4836
 11
14.9999
 21
92.3367
  0
LINE
  8
0
 10
14.9999
 20
92.3367
 11
15.2945
 21
92.1601
  0
LINE
  8
0
 10
15.2945
 20
92.1601
 11
15.5704
 21
91.9555
  0
LINE
  8
0
 10
15.5704
 20
91.9555
 11
15.8249
 21
91.7249
  0
LINE
  8
0
 10
15.8249
 20
91.7249
 11
16.0555
 21
91.4704
  0
LINE
  8
0
 10
16.0555
 20
91.4704
 11
16.2601
 21
91.1945
  0
LINE
  8
0
 10
16.2601
 20
91.1945
 11
16.4367
 21
90.8999
  0
LINE
  8
0
 10
16.4367
 20
90.8999
 11
16.5836
 21
90.5894
  0
LINE
  8
0
 10
16.5836
 20
90.5894
 11
16.6993
 21
90.266
  0
LINE
  8
0
 10
16.6993
 20
90.266
 11
16.7827
 21
89.9328
  0
LINE
  8
0
 10
16.7827
 20
89.9328
 11
16.8331
 21
89.593
  0
LINE
  8
0
 10
16.8331
 20
89.593
 11
16.85
 21
89.25
  0
LINE
  8
0
 10
16.85
 20
89.25
 11
16.8331
 21
88.9069
  0
LINE
  8
0
 10
16.8331
 20
88.9069
 11
16.7827
 21
88.5672
  0
LINE
  8
0
 10
16.7827
 20
88.5672
 11
16.6993
 21
88.234
  0
LINE
  8
0
 10
16.6993
 20
88.234
 11
16.5836
 21
87.9106
  0
LINE
  8
0
 10
16.5836
 20
87.9106
 11
16.4367
 21
87.6001
  0
LINE
  8
0
 10
16.4367
 20
87.6001
 11
16.2601
 21
87.3055
  0
LINE
  8
0
 10
16.2601
 20
87.3055
 11
16.0555
 21
87.0296
  0
LINE
  8
0
 10
16.0555
 20
87.0296
 11
15.8249
 21
86.7751
  0
LINE
  8
0
 10
15.8249
 20
86.7751
 11
15.5704
 21
86.5444
  0
LINE
  8
0
 10
15.5704
 20
86.5444
 11
15.2945
 21
86.3398
  0
LINE
  8
0
 10
15.2945
 20
86.3398
 11
14.9999
 21
86.1633
  0
LINE
  8
0
 10
14.9999
 20
86.1633
 11
14.6894
 21
86.0164
  0
LINE
  8
0
 10
14.6894
 20
86.0164
 11
14.366
 21
85.9007
  0
LINE
  8
0
 10
14.366
 20
85.9007
 11
14.0328
 21
85.8172
  0
LINE
  8
0
 10
14.0328
 20
85.8172
 11
13.693
 21
85.7668
  0
LINE
  8
0
 10
13.693
 20
85.7668
 11
13.35
 21
85.75
  0
LINE
  8
0
 10
13.35
 20
85.75
 11
13.0069
 21
85.7668
  0
LINE
  8
0
 10
13.0069
 20
75.7668
 11
12.6672
 21
75.8172
  0
LINE
  8
0
 10
12.6672
 20
75.8172
 11
12.334
 21
75.9007
  0
LINE
  8
0
 10
12.334
 20
75.9007
 11
12.0106
 21
76.0164
  0
LINE
  8
0
 10
12.0106
 20
76.0164
 11
11.7001
 21
76.1633
  0
LINE
  8
0
 10
11.7001
 20
76.1633
 11
11.4055
 21
76.3398
  0
LINE
  8
0
 10
11.4055
 20
76.3398
 11
11.1296
 21
76.5444
  0
LINE
  8
0
 10
11.1296
 20
76.5444
 11
10.8751
 21
76.7751
  0
LINE
  8
0
 10
10.8751
 20
76.7751
 11
10.6445
 21
77.0296
  0
LINE
  8
0
 10
10.6445
 20
77.0296
 11
10.4398
 21
77.3055
  0
LINE
  8
0
 10
10.4398
 20
77.3055
 11
10.2633
 21
77.6001
  0
LINE
  8
0
 10
10.2633
 20
77.6001
 11
10.1164
 21
77.9106
  0
LINE
  8
0
 10
10.1164
 20
77.9106
 11
10.0007
 21
78.234
  0
LINE
  8
0
 10
10.0007
 20
78.234
 11
9.91725
 21
78.5672
  0
LINE
  8
0
 10
9.91725
 20
78.5672
 11
9.86685
 21
78.9069
  0
LINE
  8
0
 10
9.86685
 20
78.9069
 11
9.84999
 21
79.25
  0
LINE
  8
0
 10
9.84999
 20
79.25
 11
9.86685
 21
79.593
  0
LINE
  8
0
 10
9.86685
 20
79.593
 11
9.91725
 21
79.9328
  0
LINE
  8
0
 10
9.91725
 20
79.9328
 11
10.0007
 21
80.266
  0
LINE
  8
0
 10
10.0007
 20
80.266
 11
10.1164
 21
80.5894
  0
LINE
  8
0
 10
10.1164
 20
80.5894
 11
10.2633
 21
80.8999
  0
LINE
  8
0
 10
10.2633
 20
80.8999
 11
10.4398
 21
81.1945
  0
LINE
  8
0
 10
10.4398
 20
81.1945
 11
10.6445
 21
81.4704
  0
LINE
  8
0
 10
10.6445
 20
81.4704
 11
10.8751
 21
81.7249
  0
LINE
  8
0
 10
10.8751
 20
81.7249
 11
11.1296
 21
81.9555
  0
LINE
  8
0
 10
11.1296
 20
81.9555
 11
11.4055
 21
82.1601
  0
LINE
  8
0
 10
11.4055
 20
82.1601
 11
11.7001
 21
82.3367
  0
LINE
  8
0
 10
11.7001
 20
82.3367
 11
12.0106
 21
82.4836
  0
LINE
  8
0
 10
12.0106
 20
82.4836
 11
12.334
 21
82.5993
  0
LINE
  8
0
 10
12.334
 20
82.5993
 11
12.6672
 21
82.6827
  0
LINE
  8
0
 10
12.6672
 20
82.6827
 11
13.0069
 21
82.7331
  0
LINE
  8
0
 10
13.0069
 20
82.7331
 11
13.35
 21
82.75
  0
LINE
  8
0
 10
13.35
 20
82.75
 11
13.693
 21
82.7331
  0
LINE
  8
0
 10
13.693
 20
82.7331
 11
14.0328
 21
82.6827
  0
LINE
  8
0
 10
14.0328
 20
82.6827
 11
14.366
 21
82.5993
  0
LINE
  8
0
 10
14.366
 20
82.5993
 11
14.6894
 21
82.4836
  0
LINE
  8
0
 10
14.6894
 20
82.4836
 11
14.9999
 21
82.3367
  0
LINE
  8
0
 10
14.9999
 20
82.3367
 11
15.2945
 21
82.1601
  0
LINE
  8
0
 10
15.2945
 20
82.1601
 11
15.5704
 21
81.9555
  0
LINE
  8
0
 10
15.5704
 20
81.9555
 11
15.8249
 21
81.7249
  0
LINE
  8
0
 10
15.8249
 20
81.7249
 11
16.0555
 21
81.4704
  0
LINE
  8
0
 10
16.0555
 20
81.4704
 11
16.2601
 21
81.1945
  0
LINE
  8
0
 10
16.2601
 20
81.1945
 11
16.4367
 21
80.8999
  0
LINE
  8
0
 10
16.4367
 20
80.8999
 11
16.5836
 21
80.5894
  0
LINE
  8
0
 10
16.5836
 20
80.5894
 11
16.6993
 21
80.266
  0
LINE
  8
0
 10
16.6993
 20
80.266
 11
16.7827
 21
79.9328
  0
LINE
  8
0
 10
16.7827
 20
79.9328
 11
16.8331
 21
79.593
  0
LINE
  8
0
 10
16.8331
 20
79.593
 11
16.85
 21
79.25
  0
LINE
  8
0
 10
16.85
 20
79.25
 11
16.8331
 21
78.9069
  0
LINE
  8
0
 10
16.8331
 20
78.9069
 11
16.7827
 21
78.5672
  0
LINE
  8
0
 10
16.7827
 20
78.5672
 11
16.6993
 21
78.234
  0
LINE
  8
0
 10
16.6993
 20
78.234
 11
16.5836
 21
77.9106
  0
LINE
  8
0
 10
16.5836
 20
77.9106
 11
16.4367
 21
77.6001
  0
LINE
  8
0
 10
16.4367
 20
77.6001
 11
16.2601
 21
77.3055
  0
LINE
  8
0
 10
16.2601
 20
77.3055
 11
16.0555
 21
77.0296
  0
LINE
  8
0
 10
16.0555
 20
77.0296
 11
15.8249
 21
76.7751
  0
LINE
  8
0
 10
15.8249
 20
76.7751
 11
15.5704
 21
76.5444
  0
LINE
  8
0
 10
15.5704
 20
76.5444
 11
15.2945
 21
76.3398
  0
LINE
  8
0
 10
15.2945
 20
76.3398
 11
14.9999
 21
76.1633
  0
LINE
  8
0
 10
14.9999
 20
76.1633
 11
14.6894
 21
76.0164
  0
LINE
  8
0
 10
14.6894
 20
76.0164
 11
14.366
 21
75.9007
  0
LINE
  8
0
 10
14.366
 20
75.9007
 11
14.0328
 21
75.8172
  0
LINE
  8
0
 10
14.0328
 20
75.8172
 11
13.693
 21
75.7668
  0
LINE
  8
0
 10
13.693
 20
75.7668
 11
13.35
 21
75.75
  0
LINE
  8
0
 10
13.35
 20
75.75
 11
13.0069
 21
75.7668
  0
LINE
  8
0
 10
13.0069
 20
65.7668
 11
12.6672
 21
65.8172
  0
LINE
  8
0
 10
12.6672
 20
65.8172
 11
12.334
 21
65.9007
  0
LINE
  8
0
 10
12.334
 20
65.9007
 11
12.0106
 21
66.0164
  0
LINE
  8
0
 10
12.0106
 20
66.0164
 11
11.7001
 21
66.1633
  0
LINE
  8
0
 10
11.7001
 20
66.1633
 11
11.4055
 21
66.3398
  0
LINE
  8
0
 10
11.4055
 20
66.3398
 11
11.1296
 21
66.5444
  0
LINE
  8
0
 10
11.1296
 20
66.5444
 11
10.8751
 21
66.7751
  0
LINE
  8
0
 10
10.8751
 20
66.7751
 11
10.6445
 21
67.0296
  0
LINE
  8
0
 10
10.6445
 20
67.0296
 11
10.4398
 21
67.3055
  0
LINE
  8
0
 10
10.4398
 20
67.3055
 11
10.2633
 21
67.6001
  0
LINE
  8
0
 10
10.2633
 20
67.6001
 11
10.1164
 21
67.9106
  0
LINE
  8
0
 10
10.1164
 20
67.9106
 11
10.0007
 21
68.234
  0
LINE
  8
0
 10
10.0007
 20
68.234
 11
9.91725
 21
68.5672
  0
LINE
  8
0
 10
9.91725
 20
68.5672
 11
9.86685
 21
68.9069
  0
LINE
  8
0
 10
9.86685
 20
68.9069
 11
9.84999
 21
69.25
  0
LINE
  8
0
 10
9.84999
 20
69.25
 11
9.86685
 21
69.593
  0
LINE
  8
0
 10
9.86685
 20
69.593
 11
9.91725
 21
69.9328
  0
LINE
  8
0
 10
9.91725
 20
69.9328
 11
10.0007
 21
70.266
  0
LINE
  8
0
 10
10.0007
 20
70.266
 11
10.1164
 21
70.5894
  0
LINE
  8
0
 10
10.1164
 20
70.5894
 11
10.2633
 21
70.8999
  0
LINE
  8
0
 10
10.2633
 20
70.8999
 11
10.4398
 21
71.1945
  0
LINE
  8
0
 10
10.4398
 20
71.1945
 11
10.6445
 21
71.4704
  0
LINE
  8
0
 10
10.6445
 20
71.4704
 11
10.8751
 21
71.7249
  0
LINE
  8
0
 10
10.8751
 20
71.7249
 11
11.1296
 21
71.9555
  0
LINE
  8
0
 10
11.1296
 20
71.9555
 11
11.4055
 21
72.1601
  0
LINE
  8
0
 10
11.4055
 20
72.1601
 11
11.7001
 21
72.3367
  0
LINE
  8
0
 10
11.7001
 20
72.3367
 11
12.0106
 21
72.4836
  0
LINE
  8
0
 10
12.0106
 20
72.4836
 11
12.334
 21
72.5993
  0
LINE
  8
0
 10
12.334
 20
72.5993
 11
12.6672
 21
72.6827
  0
LINE
  8
0
 10
12.6672
 20
72.6827
 11
13.0069
 21
72.7331
  0
LINE
  8
0
 10
13.0069
 20
72.7331
 11
13.35
 21
72.75
  0
LINE
  8
0
 10
13.35
 20
72.75
 11
13.693
 21
72.7331
  0
LINE
  8
0
 10
13.693
 20
72.7331
 11
14.0328
 21
72.6827
  0
LINE
  8
0
 10
14.0328
 20
72.6827
 11
14.366
 21
72.5993
  0
LINE
  8
0
 10
14.366
 20
72.5993
 11
14.6894
 21
72.4836
  0
LINE
  8
0
 10
14.6894
 20
72.4836
 11
14.9999
 21
72.3367
  0
LINE
  8
0
 10
14.9999
 20
72.3367
 11
15.2945
 21
72.1601
  0
LINE
  8
0
 10
15.2945
 20
72.1601
 11
15.5704
 21
71.9555
  0
LINE
  8
0
 10
15.5704
 20
71.9555
 11
15.8249
 21
71.7249
  0
LINE
  8
0
 10
15.8249
 20
71.7249
 11
16.0555
 21
71.4704
  0
LINE
  8
0
 10
16.0555
 20
71.4704
 11
16.2601
 21
71.1945
  0
LINE
  8
0
 10
16.2601
 20
71.1945
 11
16.4367
 21
70.8999
  0
LINE
  8
0
 10
16.4367
 20
70.8999
 11
16.5836
 21
70.5894
  0
LINE
  8
0
 10
16.5836
 20
70.5894
 11
16.6993
 21
70.266
  0
LINE
  8
0
 10
16.6993
 20
70.266
 11
16.7827
 21
69.9328
  0
LINE
  8
0
 10
16.7827
 20
69.9328
 11
16.8331
 21
69.593
  0
LINE
  8
0
 10
16.8331
 20
69.593
 11
16.85
 21
69.25
  0
LINE
  8
0
 10
16.85
 20
69.25
 11
16.8331
 21
68.9069
  0
LINE
  8
0
 10
16.8331
 20
68.9069
 11
16.7827
 21
68.5672
  0
LINE
  8
0
 10
16.7827
 20
68.5672
 11
16.6993
 21
68.234
  0
LINE
  8
0
 10
16.6993
 20
68.234
 11
16.5836
 21
67.9106
  0
LINE
  8
0
 10
16.5836
 20
67.9106
 11
16.4367
 21
67.6001
  0
LINE
  8
0
 10
16.4367
 20
67.6001
 11
16.2601
 21
67.3055
  0
LINE
  8
0
 10
16.2601
 20
67.3055
 11
16.0555
 21
67.0296
  0
LINE
  8
0
 10
16.0555
 20
67.0296
 11
15.8249
 21
66.7751
  0
LINE
  8
0
 10
15.8249
 20
66.7751
 11
15.5704
 21
66.5444
  0
LINE
  8
0
 10
15.5704
 20
66.5444
 11
15.2945
 21
66.3398
  0
LINE
  8
0
 10
15.2945
 20
66.3398
 11
14.9999
 21
66.1633
  0
LINE
  8
0
 10
14.9999
 20
66.1633
 11
14.6894
 21
66.0164
  0
LINE
  8
0
 10
14.6894
 20
66.0164
 11
14.366
 21
65.9007
  0
LINE
  8
0
 10
14.366
 20
65.9007
 11
14.0328
 21
65.8172
  0
LINE
  8
0
 10
14.0328
 20
65.8172
 11
13.693
 21
65.7668
  0
LINE
  8
0
 10
13.693
 20
65.7668
 11
13.35
 21
65.75
  0
LINE
  8
0
 10
13.35
 20
65.75
 11
13.0069
 21
65.7668
  0
LINE
  8
0
 10
13.0069
 20
55.7668
 11
12.6672
 21
55.8172
  0
LINE
  8
0
 10
12.6672
 20
55.8172
 11
12.334
 21
55.9007
  0
LINE
  8
0
 10
12.334
 20
55.9007
 11
12.0106
 21
56.0164
  0
LINE
  8
0
 10
12.0106
 20
56.0164
 11
11.7001
 21
56.1633
  0
LINE
  8
0
 10
11.7001
 20
56.1633
 11
11.4055
 21
56.3398
  0
LINE
  8
0
 10
11.4055
 20
56.3398
 11
11.1296
 21
56.5444
  0
LINE
  8
0
 10
11.1296
 20
56.5444
 11
10.8751
 21
56.7751
  0
LINE
  8
0
 10
10.8751
 20
56.7751
 11
10.6445
 21
57.0296
  0
LINE
  8
0
 10
10.6445
 20
57.0296
 11
10.4398
 21
57.3055
  0
LINE
  8
0
 10
10.4398
 20
57.3055
 11
10.2633
 21
57.6001
  0
LINE
  8
0
 10
10.2633
 20
57.6001
 11
10.1164
 21
57.9106
  0
LINE
  8
0
 10
10.1164
 20
57.9106
 11
10.0007
 21
58.234
  0
LINE
  8
0
 10
10.0007
 20
58.234
 11
9.91725
 21
58.5672
  0
LINE
  8
0
 10
9.91725
 20
58.5672
 11
9.86685
 21
58.9069
  0
LINE
  8
0
 10
9.86685
 20
58.9069
 11
9.84999
 21
59.25
  0
LINE
  8
0
 10
9.84999
 20
59.25
 11
9.86685
 21
59.593
  0
LINE
  8
0
 10
9.86685
 20
59.593
 11
9.91725
 21
59.9328
  0
LINE
  8
0
 10
9.91725
 20
59.9328
 11
10.0007
 21
60.266
  0
LINE
  8
0
 10
10.0007
 20
60.266
 11
10.1164
 21
60.5894
  0
LINE
  8
0
 10
10.1164
 20
60.5894
 11
10.2633
 21
60.8999
  0
LINE
  8
0
 10
10.2633
 20
60.8999
 11
10.4398
 21
61.1945
  0
LINE
  8
0
 10
10.4398
 20
61.1945
 11
10.6445
 21
61.4704
  0
LINE
  8
0
 10
10.6445
 20
61.4704
 11
10.8751
 21
61.7249
  0
LINE
  8
0
 10
10.8751
 20
61.7249
 11
11.1296
 21
61.9555
  0
LINE
  8
0
 10
11.1296
 20
61.9555
 11
11.4055
 21
62.1601
  0
LINE
  8
0
 10
11.4055
 20
62.1601
 11
11.7001
 21
62.3367
  0
LINE
  8
0
 10
11.7001
 20
62.3367
 11
12.0106
 21
62.4836
  0
LINE
  8
0
 10
12.0106
 20
62.4836
 11
12.334
 21
62.5993
  0
LINE
  8
0
 10
12.334
 20
62.5993
 11
12.6672
 21
62.6827
  0
LINE
  8
0
 10
12.6672
 20
62.6827
 11
13.0069
 21
62.7331
  0
LINE
  8
0
 10
13.0069
 20
62.7331
 11
13.35
 21
62.75
  0
LINE
  8
0
 10
13.35
 20
62.75
 11
13.693
 21
62.7331
  0
LINE
  8
0
 10
13.693
 20
62.7331
 11
14.0328
 21
62.6827
  0
LINE
  8
0
 10
14.0328
 20
62.6827
 11
14.366
 21
62.5993
  0
LINE
  8
0
 10
14.366
 20
62.5993
 11
14.6894
 21
62.4836
  0
LINE
  8
0
 10
14.6894
 20
62.4836
 11
14.9999
 21
62.3367
  0
LINE
  8
0
 10
14.9999
 20
62.3367
 11
15.2945
 21
62.1601
  0
LINE
  8
0
 10
15.2945
 20
62.1601
 11
15.5704
 21
61.9555
  0
LINE
  8
0
 10
15.5704
 20
61.9555
 11
15.8249
 21
61.7249
  0
LINE
  8
0
 10
15.8249
 20
61.7249
 11
16.0555
 21
61.4704
  0
LINE
  8
0
 10
16.0555
 20
61.4704
 11
16.2601
 21
61.1945
  0
LINE
  8
0
 10
16.2601
 20
61.1945
 11
16.4367
 21
60.8999
  0
LINE
  8
0
 10
16.4367
 20
60.8999
 11
16.5836
 21
60.5894
  0
LINE
  8
0
 10
16.5836
 20
60.5894
 11
16.6993
 21
60.266
  0
LINE
  8
0
 10
16.6993
 20
60.266
 11
16.7827
 21
59.9328
  0
LINE
  8
0
 10
16.7827
 20
59.9328
 11
16.8331
 21
59.593
  0
LINE
  8
0
 10
16.8331
 20
59.593
 11
16.85
 21
59.25
  0
LINE
  8
0
 10
16.85
 20
59.25
 11
16.8331
 21
58.9069
  0
LINE
  8
0
 10
16.8331
 20
58.9069
 11
16.7827
 21
58.5672
  0
LINE
  8
0
 10
16.7827
 20
58.5672
 11
16.6993
 21
58.234
  0
LINE
  8
0
 10
16.6993
 20
58.234
 11
16.5836
 21
57.9106
  0
LINE
  8
0
 10
16.5836
 20
57.9106
 11
16.4367
 21
57.6001
  0
LINE
  8
0
 10
16.4367
 20
57.6001
 11
16.2601
 21
57.3055
  0
LINE
  8
0
 10
16.2601
 20
57.3055
 11
16.0555
 21
57.0296
  0
LINE
  8
0
 10
16.0555
 20
57.0296
 11
15.8249
 21
56.7751
  0
LINE
  8
0
 10
15.8249
 20
56.7751
 11
15.5704
 21
56.5444
  0
LINE
  8
0
 10
15.5704
 20
56.5444
 11
15.2945
 21
56.3398
  0
LINE
  8
0
 10
15.2945
 20
56.3398
 11
14.9999
 21
56.1633
  0
LINE
  8
0
 10
14.9999
 20
56.1633
 11
14.6894
 21
56.0164
  0
LINE
  8
0
 10
14.6894
 20
56.0164
 11
14.366
 21
55.9007
  0
LINE
  8
0
 10
14.366
 20
55.9007
 11
14.0328
 21
55.8172
  0
LINE
  8
0
 10
14.0328
 20
55.8172
 11
13.693
 21
55.7668
  0
LINE
  8
0
 10
13.693
 20
55.7668
 11
13.35
 21
55.75
  0
LINE
  8
0
 10
13.35
 20
55.75
 11
13.0069
 21
55.7668
  0
LINE
  8
0
 10
13.0069
 20
45.7668
 11
12.6672
 21
45.8172
  0
LINE
  8
0
 10
12.6672
 20
45.8172
 11
12.334
 21
45.9007
  0
LINE
  8
0
 10
12.334
 20
45.9007
 11
12.0106
 21
46.0164
  0
LINE
  8
0
 10
12.0106
 20
46.0164
 11
11.7001
 21
46.1633
  0
LINE
  8
0
 10
11.7001
 20
46.1633
 11
11.4055
 21
46.3398
  0
LINE
  8
0
 10
11.4055
 20
46.3398
 11
11.1296
 21
46.5444
  0
LINE
  8
0
 10
11.1296
 20
46.5444
 11
10.8751
 21
46.7751
  0
LINE
  8
0
 10
10.8751
 20
46.7751
 11
10.6445
 21
47.0296
  0
LINE
  8
0
 10
10.6445
 20
47.0296
 11
10.4398
 21
47.3055
  0
LINE
  8
0
 10
10.4398
 20
47.3055
 11
10.2633
 21
47.6001
  0
LINE
  8
0
 10
10.2633
 20
47.6001
 11
10.1164
 21
47.9106
  0
LINE
  8
0
 10
10.1164
 20
47.9106
 11
10.0007
 21
48.234
  0
LINE
  8
0
 10
10.0007
 20
48.234
 11
9.91725
 21
48.5672
  0
LINE
  8
0
 10
9.91725
 20
48.5672
 11
9.86685
 21
48.9069
  0
LINE
  8
0
 10
9.86685
 20
48.9069
 11
9.84999
 21
49.25
  0
LINE
  8
0
 10
9.84999
 20
49.25
 11
9.86685
 21
49.593
  0
LINE
  8
0
 10
9.86685
 20
49.593
 11
9.91725
 21
49.9328
  0
LINE
  8
0
 10
9.91725
 20
49.9328
 11
10.0007
 21
50.266
  0
LINE
  8
0
 10
10.0007
 20
50.266
 11
10.1164
 21
50.5894
  0
LINE
  8
0
 10
10.1164
 20
50.5894
 11
10.2633
 21
50.8999
  0
LINE
  8
0
 10
10.2633
 20
50.8999
 11
10.4398
 21
51.1945
  0
LINE
  8
0
 10
10.4398
 20
51.1945
 11
10.6445
 21
51.4704
  0
LINE
  8
0
 10
10.6445
 20
51.4704
 11
10.8751
 21
51.7249
  0
LINE
  8
0
 10
10.8751
 20
51.7249
 11
11.1296
 21
51.9555
  0
LINE
  8
0
 10
11.1296
 20
51.9555
 11
11.4055
 21
52.1601
  0
LINE
  8
0
 10
11.4055
 20
52.1601
 11
11.7001
 21
52.3367
  0
LINE
  8
0
 10
11.7001
 20
52.3367
 11
12.0106
 21
52.4836
  0
LINE
  8
0
 10
12.0106
 20
52.4836
 11
12.334
 21
52.5993
  0
LINE
  8
0
 10
12.334
 20
52.5993
 11
12.6672
 21
52.6827
  0
LINE
  8
0
 10
12.6672
 20
52.6827
 11
13.0069
 21
52.7331
  0
LINE
  8
0
 10
13.0069
 20
52.7331
 11
13.35
 21
52.75
  0
LINE
  8
0
 10
13.35
 20
52.75
 11
13.693
 21
52.7331
  0
LINE
  8
0
 10
13.693
 20
52.7331
 11
14.0328
 21
52.6827
  0
LINE
  8
0
 10
14.0328
 20
52.6827
 11
14.366
 21
52.5993
  0
LINE
  8
0
 10
14.366
 20
52.5993
 11
14.6894
 21
52.4836
  0
LINE
  8
0
 10
14.6894
 20
52.4836
 11
14.9999
 21
52.3367
  0
LINE
  8
0
 10
14.9999
 20
52.3367
 11
15.2945
 21
52.1601
  0
LINE
  8
0
 10
15.2945
 20
52.1601
 11
15.5704
 21
51.9555
  0
LINE
  8
0
 10
15.5704
 20
51.9555
 11
15.8249
 21
51.7249
  0
LINE
  8
0
 10
15.8249
 20
51.7249
 11
16.0555
 21
51.4704
  0
LINE
  8
0
 10
16.0555
 20
51.4704
 11
16.2601
 21
51.1945
  0
LINE
  8
0
 10
16.2601
 20
51.1945
 11
16.4367
 21
50.8999
  0
LINE
  8
0
 10
16.4367
 20
50.8999
 11
16.5836
 21
50.5894
  0
LINE
  8
0
 10
16.5836
 20
50.5894
 11
16.6993
 21
50.266
  0
LINE
  8
0
 10
16.6993
 20
50.266
 11
16.7827
 21
49.9328
  0
LINE
  8
0
 10
16.7827
 20
49.9328
 11
16.8331
 21
49.593
  0
LINE
  8
0
 10
16.8331
 20
49.593
 11
16.85
 21
49.25
  0
LINE
  8
0
 10
16.85
 20
49.25
 11
16.8331
 21
48.9069
  0
LINE
  8
0
 10
16.8331
 20
48.9069
 11
16.7827
 21
48.5672
  0
LINE
  8
0
 10
16.7827
 20
48.5672
 11
16.6993
 21
48.234
  0
LINE
  8
0
 10
16.6993
 20
48.234
 11
16.5836
 21
47.9106
  0
LINE
  8
0
 10
16.5836
 20
47.9106
 11
16.4367
 21
47.6001
  0
LINE
  8
0
 10
16.4367
 20
47.6001
 11
16.2601
 21
47.3055
  0
LINE
  8
0
 10
16.2601
 20
47.3055
 11
16.0555
 21
47.0296
  0
LINE
  8
0
 10
16.0555
 20
47.0296
 11
15.8249
 21
46.7751
  0
LINE
  8
0
 10
15.8249
 20
46.7751
 11
15.5704
 21
46.5444
  0
LINE
  8
0
 10
15.5704
 20
46.5444
 11
15.2945
 21
46.3398
  0
LINE
  8
0
 10
15.2945
 20
46.3398
 11
14.9999
 21
46.1633
  0
LINE
  8
0
 10
14.9999
 20
46.1633
 11
14.6894
 21
46.0164
  0
LINE
  8
0
 10
14.6894
 20
46.0164
 11
14.366
 21
45.9007
  0
LINE
  8
0
 10
14.366
 20
45.9007
 11
14.0328
 21
45.8172
  0
LINE
  8
0
 10
14.0328
 20
45.8172
 11
13.693
 21
45.7668
  0
LINE
  8
0
 10
13.693
 20
45.7668
 11
13.35
 21
45.75
  0
LINE
  8
0
 10
13.35
 20
45.75
 11
13.0069
 21
45.7668
  0
LINE
  8
0
 10
13.0069
 20
35.7668
 11
12.6672
 21
35.8172
  0
LINE
  8
0
 10
12.6672
 20
35.8172
 11
12.334
 21
35.9007
  0
LINE
  8
0
 10
12.334
 20
35.9007
 11
12.0106
 21
36.0164
  0
LINE
  8
0
 10
12.0106
 20
36.0164
 11
11.7001
 21
36.1633
  0
LINE
  8
0
 10
11.7001
 20
36.1633
 11
11.4055
 21
36.3398
  0
LINE
  8
0
 10
11.4055
 20
36.3398
 11
11.1296
 21
36.5444
  0
LINE
  8
0
 10
11.1296
 20
36.5444
 11
10.8751
 21
36.7751
  0
LINE
  8
0
 10
10.8751
 20
36.7751
 11
10.6445
 21
37.0296
  0
LINE
  8
0
 10
10.6445
 20
37.0296
 11
10.4398
 21
37.3055
  0
LINE
  8
0
 10
10.4398
 20
37.3055
 11
10.2633
 21
37.6001
  0
LINE
  8
0
 10
10.2633
 20
37.6001
 11
10.1164
 21
37.9106
  0
LINE
  8
0
 10
10.1164
 20
37.9106
 11
10.0007
 21
38.234
  0
LINE
  8
0
 10
10.0007
 20
38.234
 11
9.91725
 21
38.5672
  0
LINE
  8
0
 10
9.91725
 20
38.5672
 11
9.86685
 21
38.9069
  0
LINE
  8
0
 10
9.86685
 20
38.9069
 11
9.84999
 21
39.25
  0
LINE
  8
0
 10
9.84999
 20
39.25
 11
9.86685
 21
39.593
  0
LINE
  8
0
 10
9.86685
 20
39.593
 11
9.91725
 21
39.9328
  0
LINE
  8
0
 10
9.91725
 20
39.9328
 11
10.0007
 21
40.266
  0
LINE
  8
0
 10
10.0007
 20
40.266
 11
10.1164
 21
40.5894
  0
LINE
  8
0
 10
10.1164
 20
40.5894
 11
10.2633
 21
40.8999
  0
LINE
  8
0
 10
10.2633
 20
40.8999
 11
10.4398
 21
41.1945
  0
LINE
  8
0
 10
10.4398
 20
41.1945
 11
10.6445
 21
41.4704
  0
LINE
  8
0
 10
10.6445
 20
41.4704
 11
10.8751
 21
41.7249
  0
LINE
  8
0
 10
10.8751
 20
41.7249
 11
11.1296
 21
41.9555
  0
LINE
  8
0
 10
11.1296
 20
41.9555
 11
11.4055
 21
42.1601
  0
LINE
  8
0
 10
11.4055
 20
42.1601
 11
11.7001
 21
42.3367
  0
LINE
  8
0
 10
11.7001
 20
42.3367
 11
12.0106
 21
42.4836
  0
LINE
  8
0
 10
12.0106
 20
42.4836
 11
12.334
 21
42.5993
  0
LINE
  8
0
 10
12.334
 20
42.5993
 11
12.6672
 21
42.6827
  0
LINE
  8
0
 10
12.6672
 20
42.6827
 11
13.0069
 21
42.7331
  0
LINE
  8
0
 10
13.0069
 20
42.7331
 11
13.35
 21
42.75
  0
LINE
  8
0
 10
13.35
 20
42.75
 11
13.693
 21
42.7331
  0
LINE
  8
0
 10
13.693
 20
42.7331
 11
14.0328
 21
42.6827
  0
LINE
  8
0
 10
14.0328
 20
42.6827
 11
14.366
 21
42.5993
  0
LINE
  8
0
 10
14.366
 20
42.5993
 11
14.6894
 21
42.4836
  0
LINE
  8
0
 10
14.6894
 20
42.4836
 11
14.9999
 21
42.3367
  0
LINE
  8
0
 10
14.9999
 20
42.3367
 11
15.2945
 21
42.1601
  0
LINE
  8
0
 10
15.2945
 20
42.1601
 11
15.5704
 21
41.9555
  0
LINE
  8
0
 10
15.5704
 20
41.9555
 11
15.8249
 21
41.7249
  0
LINE
  8
0
 10
15.8249
 20
41.7249
 11
16.0555
 21
41.4704
  0
LINE
  8
0
 10
16.0555
 20
41.4704
 11
16.2601
 21
41.1945
  0
LINE
  8
0
 10
16.2601
 20
41.1945
 11
16.4367
 21
40.8999
  0
LINE
  8
0
 10
16.4367
 20
40.8999
 11
16.5836
 21
40.5894
  0
LINE
  8
0
 10
16.5836
 20
40.5894
 11
16.6993
 21
40.266
  0
LINE
  8
0
 10
16.6993
 20
40.266
 11
16.7827
 21
39.9328
  0
LINE
  8
0
 10
16.7827
 20
39.9328
 11
16.8331
 21
39.593
  0
LINE
  8
0
 10
16.8331
 20
39.593
 11
16.85
 21
39.25
  0
LINE
  8
0
 10
16.85
 20
39.25
 11
16.8331
 21
38.9069
  0
LINE
  8
0
 10
16.8331
 20
38.9069
 11
16.7827
 21
38.5672
  0
LINE
  8
0
 10
16.7827
 20
38.5672
 11
16.6993
 21
38.234
  0
LINE
  8
0
 10
16.6993
 20
38.234
 11
16.5836
 21
37.9106
  0
LINE
  8
0
 10
16.5836
 20
37.9106
 11
16.4367
 21
37.6001
  0
LINE
  8
0
 10
16.4367
 20
37.6001
 11
16.2601
 21
37.3055
  0
LINE
  8
0
 10
16.2601
 20
37.3055
 11
16.0555
 21
37.0296
  0
LINE
  8
0
 10
16.0555
 20
37.0296
 11
15.8249
 21
36.7751
  0
LINE
  8
0
 10
15.8249
 20
36.7751
 11
15.5704
 21
36.5444
  0
LINE
  8
0
 10
15.5704
 20
36.5444
 11
15.2945
 21
36.3398
  0
LINE
  8
0
 10
15.2945
 20
36.3398
 11
14.9999
 21
36.1633
  0
LINE
  8
0
 10
14.9999
 20
36.1633
 11
14.6894
 21
36.0164
  0
LINE
  8
0
 10
14.6894
 20
36.0164
 11
14.366
 21
35.9007
  0
LINE
  8
0
 10
14.366
 20
35.9007
 11
14.0328
 21
35.8172
  0
LINE
  8
0
 10
14.0328
 20
35.8172
 11
13.693
 21
35.7668
  0
LINE
  8
0
 10
13.693
 20
35.7668
 11
13.35
 21
35.75
  0
LINE
  8
0
 10
13.35
 20
35.75
 11
13.0069
 21
35.7668
  0
LINE
  8
0
 10
13.0069
 20
25.7668
 11
12.6672
 21
25.8172
  0
LINE
  8
0
 10
12.6672
 20
25.8172
 11
12.334
 21
25.9007
  0
LINE
  8
0
 10
12.334
 20
25.9007
 11
12.0106
 21
26.0164
  0
LINE
  8
0
 10
12.0106
 20
26.0164
 11
11.7001
 21
26.1633
  0
LINE
  8
0
 10
11.7001
 20
26.1633
 11
11.4055
 21
26.3398
  0
LINE
  8
0
 10
11.4055
 20
26.3398
 11
11.1296
 21
26.5444
  0
LINE
  8
0
 10
11.1296
 20
26.5444
 11
10.8751
 21
26.7751
  0
LINE
  8
0
 10
10.8751
 20
26.7751
 11
10.6445
 21
27.0296
  0
LINE
  8
0
 10
10.6445
 20
27.0296
 11
10.4398
 21
27.3055
  0
LINE
  8
0
 10
10.4398
 20
27.3055
 11
10.2633
 21
27.6001
  0
LINE
  8
0
 10
10.2633
 20
27.6001
 11
10.1164
 21
27.9106
  0
LINE
  8
0
 10
10.1164
 20
27.9106
 11
10.0007
 21
28.234
  0
LINE
  8
0
 10
10.0007
 20
28.234
 11
9.91725
 21
28.5672
  0
LINE
  8
0
 10
9.91725
 20
28.5672
 11
9.86685
 21
28.9069
  0
LINE
  8
0
 10
9.86685
 20
28.9069
 11
9.84999
 21
29.25
  0
LINE
  8
0
 10
9.84999
 20
29.25
 11
9.86685
 21
29.593
  0
LINE
  8
0
 10
9.86685
 20
29.593
 11
9.91725
 21
29.9328
  0
LINE
  8
0
 10
9.91725
 20
29.9328
 11
10.0007
 21
30.266
  0
LINE
  8
0
 10
10.0007
 20
30.266
 11
10.1164
 21
30.5894
  0
LINE
  8
0
 10
10.1164
 20
30.5894
 11
10.2633
 21
30.8999
  0
LINE
  8
0
 10
10.2633
 20
30.8999
 11
10.4398
 21
31.1945
  0
LINE
  8
0
 10
10.4398
 20
31.1945
 11
10.6445
 21
31.4704
  0
LINE
  8
0
 10
10.6445
 20
31.4704
 11
10.8751
 21
31.7249
  0
LINE
  8
0
 10
10.8751
 20
31.7249
 11
11.1296
 21
31.9555
  0
LINE
  8
0
 10
11.1296
 20
31.9555
 11
11.4055
 21
32.1601
  0
LINE
  8
0
 10
11.4055
 20
32.1601
 11
11.7001
 21
32.3367
  0
LINE
  8
0
 10
11.7001
 20
32.3367
 11
12.0106
 21
32.4836
  0
LINE
  8
0
 10
12.0106
 20
32.4836
 11
12.334
 21
32.5993
  0
LINE
  8
0
 10
12.334
 20
32.5993
 11
12.6672
 21
32.6827
  0
LINE
  8
0
 10
12.6672
 20
32.6827
 11
13.0069
 21
32.7331
  0
LINE
  8
0
 10
13.0069
 20
32.7331
 11
13.35
 21
32.75
  0
LINE
  8
0
 10
13.35
 20
32.75
 11
13.693
 21
32.7331
  0
LINE
  8
0
 10
13.693
 20
32.7331
 11
14.0328
 21
32.6827
  0
LINE
  8
0
 10
14.0328
 20
32.6827
 11
14.366
 21
32.5993
  0
LINE
  8
0
 10
14.366
 20
32.5993
 11
14.6894
 21
32.4836
  0
LINE
  8
0
 10
14.6894
 20
32.4836
 11
14.9999
 21
32.3367
  0
LINE
  8
0
 10
14.9999
 20
32.3367
 11
15.2945
 21
32.1601
  0
LINE
  8
0
 10
15.2945
 20
32.1601
 11
15.5704
 21
31.9555
  0
LINE
  8
0
 10
15.5704
 20
31.9555
 11
15.8249
 21
31.7249
  0
LINE
  8
0
 10
15.8249
 20
31.7249
 11
16.0555
 21
31.4704
  0
LINE
  8
0
 10
16.0555
 20
31.4704
 11
16.2601
 21
31.1945
  0
LINE
  8
0
 10
16.2601
 20
31.1945
 11
16.4367
 21
30.8999
  0
LINE
  8
0
 10
16.4367
 20
30.8999
 11
16.5836
 21
30.5894
  0
LINE
  8
0
 10
16.5836
 20
30.5894
 11
16.6993
 21
30.266
  0
LINE
  8
0
 10
16.6993
 20
30.266
 11
16.7827
 21
29.9328
  0
LINE
  8
0
 10
16.7827
 20
29.9328
 11
16.8331
 21
29.593
  0
LINE
  8
0
 10
16.8331
 20
29.593
 11
16.85
 21
29.25
  0
LINE
  8
0
 10
16.85
 20
29.25
 11
16.8331
 21
28.9069
  0
LINE
  8
0
 10
16.8331
 20
28.9069
 11
16.7827
 21
28.5672
  0
LINE
  8
0
 10
16.7827
 20
28.5672
 11
16.6993
 21
28.234
  0
LINE
  8
0
 10
16.6993
 20
28.234
 11
16.5836
 21
27.9106
  0
LINE
  8
0
 10
16.5836
 20
27.9106
 11
16.4367
 21
27.6001
  0
LINE
  8
0
 10
16.4367
 20
27.6001
 11
16.2601
 21
27.3055
  0
LINE
  8
0
 10
16.2601
 20
27.3055
 11
16.0555
 21
27.0296
  0
LINE
  8
0
 10
16.0555
 20
27.0296
 11
15.8249
 21
26.7751
  0
LINE
  8
0
 10
15.8249
 20
26.7751
 11
15.5704
 21
26.5444
  0
LINE
  8
0
 10
15.5704
 20
26.5444
 11
15.2945
 21
26.3398
  0
LINE
  8
0
 10
15.2945
 20
26.3398
 11
14.9999
 21
26.1633
  0
LINE
  8
0
 10
14.9999
 20
26.1633
 11
14.6894
 21
26.0164
  0
LINE
  8
0
 10
14.6894
 20
26.0164
 11
14.366
 21
25.9007
  0
LINE
  8
0
 10
14.366
 20
25.9007
 11
14.0328
 21
25.8172
  0
LINE
  8
0
 10
14.0328
 20
25.8172
 11
13.693
 21
25.7668
  0
LINE
  8
0
 10
13.693
 20
25.7668
 11
13.35
 21
25.75
  0
LINE
  8
0
 10
13.35
 20
25.75
 11
13.0069
 21
25.7668
  0
LINE
  8
0
 10
13.0069
 20
15.7668
 11
12.6672
 21
15.8172
  0
LINE
  8
0
 10
12.6672
 20
15.8172
 11
12.334
 21
15.9007
  0
LINE
  8
0
 10
12.334
 20
15.9007
 11
12.0106
 21
16.0164
  0
LINE
  8
0
 10
12.0106
 20
16.0164
 11
11.7001
 21
16.1633
  0
LINE
  8
0
 10
11.7001
 20
16.1633
 11
11.4055
 21
16.3398
  0
LINE
  8
0
 10
11.4055
 20
16.3398
 11
11.1296
 21
16.5444
  0
LINE
  8
0
 10
11.1296
 20
16.5444
 11
10.8751
 21
16.7751
  0
LINE
  8
0
 10
10.8751
 20
16.7751
 11
10.6445
 21
17.0296
  0
LINE
  8
0
 10
10.6445
 20
17.0296
 11
10.4398
 21
17.3055
  0
LINE
  8
0
 10
10.4398
 20
17.3055
 11
10.2633
 21
17.6001
  0
LINE
  8
0
 10
10.2633
 20
17.6001
 11
10.1164
 21
17.9106
  0
LINE
  8
0
 10
10.1164
 20
17.9106
 11
10.0007
 21
18.234
  0
LINE
  8
0
 10
10.0007
 20
18.234
 11
9.91725
 21
18.5672
  0
LINE
  8
0
 10
9.91725
 20
18.5672
 11
9.86685
 21
18.9069
  0
LINE
  8
0
 10
9.86685
 20
18.9069
 11
9.84999
 21
19.25
  0
LINE
  8
0
 10
9.84999
 20
19.25
 11
9.86685
 21
19.593
  0
LINE
  8
0
 10
9.86685
 20
19.593
 11
9.91725
 21
19.9328
  0
LINE
  8
0
 10
9.91725
 20
19.9328
 11
10.0007
 21
20.266
  0
LINE
  8
0
 10
10.0007
 20
20.266
 11
10.1164
 21
20.5894
  0
LINE
  8
0
 10
10.1164
 20
20.5894
 11
10.2633
 21
20.8999
  0
LINE
  8
0
 10
10.2633
 20
20.8999
 11
10.4398
 21
21.1945
  0
LINE
  8
0
 10
10.4398
 20
21.1945
 11
10.6445
 21
21.4704
  0
LINE
  8
0
 10
10.6445
 20
21.4704
 11
10.8751
 21
21.7249
  0
LINE
  8
0
 10
10.8751
 20
21.7249
 11
11.1296
 21
21.9555
  0
LINE
  8
0
 10
11.1296
 20
21.9555
 11
11.4055
 21
22.1601
  0
LINE
  8
0
 10
11.4055
 20
22.1601
 11
11.7001
 21
22.3367
  0
LINE
  8
0
 10
11.7001
 20
22.3367
 11
12.0106
 21
22.4836
  0
LINE
  8
0
 10
12.0106
 20
22.4836
 11
12.334
 21
22.5993
  0
LINE
  8
0
 10
12.334
 20
22.5993
 11
12.6672
 21
22.6827
  0
LINE
  8
0
 10
12.6672
 20
22.6827
 11
13.0069
 21
22.7331
  0
LINE
  8
0
 10
13.0069
 20
22.7331
 11
13.35
 21
22.75
  0
LINE
  8
0
 10
13.35
 20
22.75
 11
13.693
 21
22.7331
  0
LINE
  8
0
 10
13.693
 20
22.7331
 11
14.0328
 21
22.6827
  0
LINE
  8
0
 10
14.0328
 20
22.6827
 11
14.366
 21
22.5993
  0
LINE
  8
0
 10
14.366
 20
22.5993
 11
14.6894
 21
22.4836
  0
LINE
  8
0
 10
14.6894
 20
22.4836
 11
14.9999
 21
22.3367
  0
LINE
  8
0
 10
14.9999
 20
22.3367
 11
15.2945
 21
22.1601
  0
LINE
  8
0
 10
15.2945
 20
22.1601
 11
15.5704
 21
21.9555
  0
LINE
  8
0
 10
15.5704
 20
21.9555
 11
15.8249
 21
21.7249
  0
LINE
  8
0
 10
15.8249
 20
21.7249
 11
16.0555
 21
21.4704
  0
LINE
  8
0
 10
16.0555
 20
21.4704
 11
16.2601
 21
21.1945
  0
LINE
  8
0
 10
16.2601
 20
21.1945
 11
16.4367
 21
20.8999
  0
LINE
  8
0
 10
16.4367
 20
20.8999
 11
16.5836
 21
20.5894
  0
LINE
  8
0
 10
16.5836
 20
20.5894
 11
16.6993
 21
20.266
  0
LINE
  8
0
 10
16.6993
 20
20.266
 11
16.7827
 21
19.9328
  0
LINE
  8
0
 10
16.7827
 20
19.9328
 11
16.8331
 21
19.593
  0
LINE
  8
0
 10
16.8331
 20
19.593
 11
16.85
 21
19.25
  0
LINE
  8
0
 10
16.85
 20
19.25
 11
16.8331
 21
18.9069
  0
LINE
  8
0
 10
16.8331
 20
18.9069
 11
16.7827
 21
18.5672
  0
LINE
  8
0
 10
16.7827
 20
18.5672
 11
16.6993
 21
18.234
  0
LINE
  8
0
 10
16.6993
 20
18.234
 11
16.5836
 21
17.9106
  0
LINE
  8
0
 10
16.5836
 20
17.9106
 11
16.4367
 21
17.6001
  0
LINE
  8
0
 10
16.4367
 20
17.6001
 11
16.2601
 21
17.3055
  0
LINE
  8
0
 10
16.2601
 20
17.3055
 11
16.0555
 21
17.0296
  0
LINE
  8
0
 10
16.0555
 20
17.0296
 11
15.8249
 21
16.7751
  0
LINE
  8
0
 10
15.8249
 20
16.7751
 11
15.5704
 21
16.5444
  0
LINE
  8
0
 10
15.5704
 20
16.5444
 11
15.2945
 21
16.3398
  0
LINE
  8
0
 10
15.2945
 20
16.3398
 11
14.9999
 21
16.1633
  0
LINE
  8
0
 10
14.9999
 20
16.1633
 11
14.6894
 21
16.0164
  0
LINE
  8
0
 10
14.6894
 20
16.0164
 11
14.366
 21
15.9007
  0
LINE
  8
0
 10
14.366
 20
15.9007
 11
14.0328
 21
15.8172
  0
LINE
  8
0
 10
14.0328
 20
15.8172
 11
13.693
 21
15.7668
  0
LINE
  8
0
 10
13.693
 20
15.7668
 11
13.35
 21
15.75
  0
LINE
  8
0
 10
13.35
 20
15.75
 11
13.0069
 21
15.7668
  0
LINE
  8
0
 10
7.34317
 20
1.4077
 11
7.18785
 21
1.43074
  0
LINE
  8
0
 10
7.18785
 20
1.43074
 11
7.03554
 21
1.46889
  0
LINE
  8
0
 10
7.03554
 20
1.46889
 11
6.8877
 21
1.52179
  0
LINE
  8
0
 10
6.8877
 20
1.52179
 11
6.74576
 21
1.58891
  0
LINE
  8
0
 10
6.74576
 20
1.58891
 11
6.61108
 21
1.66965
  0
LINE
  8
0
 10
6.61108
 20
1.66965
 11
6.48497
 21
1.76317
  0
LINE
  8
0
 10
6.48497
 20
1.76317
 11
6.36862
 21
1.86862
  0
LINE
  8
0
 10
6.36862
 20
1.86862
 11
6.26317
 21
1.98497
  0
LINE
  8
0
 10
6.26317
 20
1.98497
 11
6.16965
 21
2.11108
  0
LINE
  8
0
 10
6.16965
 20
2.11108
 11
6.08891
 21
2.24576
  0
LINE
  8
0
 10
6.08891
 20
2.24576
 11
6.02179
 21
2.3877
  0
LINE
  8
0
 10
6.02179
 20
2.3877
 11
5.96889
 21
2.53554
  0
LINE
  8
0
 10
5.96889
 20
2.53554
 11
5.93074
 21
2.68785
  0
LINE
  8
0
 10
5.93074
 20
2.68785
 11
5.9077
 21
2.84317
  0
LINE
  8
0
 10
5.9077
 20
2.84317
 11
5.89999
 21
3
  0
LINE
  8
0
 10
5.89999
 20
3
 11
5.9077
 21
3.15681
  0
LINE
  8
0
 10
5.9077
 20
3.15681
 11
5.93074
 21
3.31213
  0
LINE
  8
0
 10
5.93074
 20
3.31213
 11
5.96889
 21
3.46445
  0
LINE
  8
0
 10
5.96889
 20
3.46445
 11
6.02179
 21
3.61229
  0
LINE
  8
0
 10
6.02179
 20
3.61229
 11
6.08891
 21
3.75423
  0
LINE
  8
0
 10
6.08891
 20
3.75423
 11
6.16965
 21
3.8889
  0
LINE
  8
0
 10
6.16965
 20
3.8889
 11
6.26317
 21
4.01501
  0
LINE
  8
0
 10
6.26317
 20
4.01501
 11
6.36862
 21
4.13136
  0
LINE
  8
0
 10
6.36862
 20
4.13136
 11
6.48497
 21
4.23682
  0
LINE
  8
0
 10
6.48497
 20
4.23682
 11
6.61108
 21
4.33034
  0
LINE
  8
0
 10
6.61108
 20
4.33034
 11
6.74576
 21
4.41107
  0
LINE
  8
0
 10
6.74576
 20
4.41107
 11
6.8877
 21
4.4782
  0
LINE
  8
0
 10
6.8877
 20
4.4782
 11
7.03554
 21
4.5311
  0
LINE
  8
0
 10
7.03554
 20
4.5311
 11
7.18785
 21
4.56924
  0
LINE
  8
0
 10
7.18785
 20
4.56924
 11
7.34317
 21
4.59229
  0
LINE
  8
0
 10
7.34317
 20
4.59229
 11
7.5
 21
4.59999
  0
LINE
  8
0
 10
7.5
 20
4.59999
 11
7.65681
 21
4.59229
  0
LINE
  8
0
 10
7.65681
 20
4.59229
 11
7.81213
 21
4.56924
  0
LINE
  8
0
 10
7.81213
 20
4.56924
 11
7.96445
 21
4.5311
  0
LINE
  8
0
 10
7.96445
 20
4.5311
 11
8.11229
 21
4.4782
  0
LINE
  8
0
 10
8.11229
 20
4.4782
 11
8.25423
 21
4.41107
  0
LINE
  8
0
 10
8.25423
 20
4.41107
 11
8.3889
 21
4.33034
  0
LINE
  8
0
 10
8.3889
 20
4.33034
 11
8.51501
 21
4.23682
  0
LINE
  8
0
 10
8.51501
 20
4.23682
 11
8.63136
 21
4.13136
  0
LINE
  8
0
 10
8.63136
 20
4.13136
 11
8.73682
 21
4.01501
  0
LINE
  8
0
 10
8.73682
 20
4.01501
 11
8.83034
 21
3.8889
  0
LINE
  8
0
 10
8.83034
 20
3.8889
 11
8.91107
 21
3.75423
  0
LINE
  8
0
 10
8.91107
 20
3.75423
 11
8.9782
 21
3.61229
  0
LINE
  8
0
 10
8.9782
 20
3.61229
 11
9.0311
 21
3.46445
  0
LINE
  8
0
 10
9.0311
 20
3.46445
 11
9.06924
 21
3.31213
  0
LINE
  8
0
 10
9.06924
 20
3.31213
 11
9.09229
 21
3.15681
  0
LINE
  8
0
 10
9.09229
 20
3.15681
 11
9.09999
 21
3
  0
LINE
  8
0
 10
9.09999
 20
3
 11
9.09229
 21
2.84317
  0
LINE
  8
0
 10
9.09229
 20
2.84317
 11
9.06924
 21
2.68785
  0
LINE
  8
0
 10
9.06924
 20
2.68785
 11
9.0311
 21
2.53554
  0
LINE
  8
0
 10
9.0311
 20
2.53554
 11
8.9782
 21
2.3877
  0
LINE
  8
0
 10
8.9782
 20
2.3877
 11
8.91107
 21
2.24576
  0
LINE
  8
0
 10
8.91107
 20
2.24576
 11
8.83034
 21
2.11108
  0
LINE
  8
0
 10
8.83034
 20
2.11108
 11
8.73682
 21
1.98497
  0
LINE
  8
0
 10
8.73682
 20
1.98497
 11
8.63136
 21
1.86862
  0
LINE
  8
0
 10
8.63136
 20
1.86862
 11
8.51501
 21
1.76317
  0
LINE
  8
0
 10
8.51501
 20
1.76317
 11
8.3889
 21
1.66965
  0
LINE
  8
0
 10
8.3889
 20
1.66965
 11
8.25423
 21
1.58891
  0
LINE
  8
0
 10
8.25423
 20
1.58891
 11
8.11229
 21
1.52179
  0
LINE
  8
0
 10
8.11229
 20
1.52179
 11
7.96445
 21
1.46889
  0
LINE
  8
0
 10
7.96445
 20
1.46889
 11
7.81213
 21
1.43074
  0
LINE
  8
0
 10
7.81213
 20
1.43074
 11
7.65681
 21
1.4077
  0
LINE
  8
0
 10
7.65681
 20
1.4077
 11
7.5
 21
1.39999
  0
LINE
  8
0
 10
7.5
 20
1.39999
 11
7.34317
 21
1.4077
  0
ENDSEC
  0
SECTION
  2
OBJECTS
  0
DICTIONARY
  0
ENDSEC
  0
EOF
