<?xml version="1.0" standalone="no"?>
<!DOCTYPE svg PUBLIC "-//W3C//DTD SVG 1.1//EN" "http://www.w3.org/Graphics/SVG/1.1/DTD/svg11.dtd">
<svg width="20mm" height="129mm" viewBox="0 -129 20 129" xmlns="http://www.w3.org/2000/svg" version="1.1">
<title>OpenSCAD Model</title>
<path d="
M 20,-128.5 L 0,-128.5 L 0,-0 L 20,-0 z
M 7.34317,-123.908 L 7.18785,-123.931 L 7.03554,-123.969 L 6.8877,-124.022 L 6.74576,-124.089 L 6.61108,-124.17
 L 6.48497,-124.263 L 6.36862,-124.369 L 6.26317,-124.485 L 6.16965,-124.611 L 6.08891,-124.746 L 6.02179,-124.888
 L 5.96889,-125.036 L 5.93074,-125.188 L 5.9077,-125.343 L 5.89999,-125.5 L 5.9077,-125.657 L 5.93074,-125.812
 L 5.96889,-125.964 L 6.02179,-126.112 L 6.08891,-126.254 L 6.16965,-126.389 L 6.26317,-126.515 L 6.36862,-126.631
 L 6.48497,-126.737 L 6.61108,-126.83 L 6.74576,-126.911 L 6.8877,-126.978 L 7.03554,-127.031 L 7.18785,-127.069
 L 7.34317,-127.092 L 7.5,-127.1 L 7.65681,-127.092 L 7.81213,-127.069 L 7.96445,-127.031 L 8.11229,-126.978
 L 8.25423,-126.911 L 8.3889,-126.83 L 8.51501,-126.737 L 8.63136,-126.631 L 8.73682,-126.515 L 8.83034,-126.389
 L 8.91107,-126.254 L 8.9782,-126.112 L 9.0311,-125.964 L 9.06924,-125.812 L 9.09229,-125.657 L 9.09999,-125.5
 L 9.09229,-125.343 L 9.06924,-125.188 L 9.0311,-125.036 L 8.9782,-124.888 L 8.91107,-124.746 L 8.83034,-124.611
 L 8.73682,-124.485 L 8.63136,-124.369 L 8.51501,-124.263 L 8.3889,-124.17 L 8.25423,-124.089 L 8.11229,-124.022
 L 7.96445,-123.969 L 7.81213,-123.931 L 7.65681,-123.908 L 7.5,-123.9 z
M 13.0069,-105.767 L 12.6672,-105.817 L 12.334,-105.901 L 12.0106,-106.016 L 11.7001,-106.163 L 11.4055,-106.34
 L 11.1296,-106.544 L 10.8751,-106.775 L 10.6445,-107.03 L 10.4398,-107.305 L 10.2633,-107.6 L 10.1164,-107.911
 L 10.0007,-108.234 L 9.91725,-108.567 L 9.86685,-108.907 L 9.84999,-109.25 L 9.86685,-109.593 L 9.91725,-109.933
 L 10.0007,-110.266 L 10.1164,-110.589 L 10.2633,-110.9 L 10.4398,-111.194 L 10.6445,-111.47 L 10.8751,-111.725
 L 11.1296,-111.956 L 11.4055,-112.16 L 11.7001,-112.337 L 12.0106,-112.484 L 12.334,-112.599 L 12.6672,-112.683
 L 13.0069,-112.733 L 13.35,-112.75 L 13.693,-112.733 L 14.0328,-112.683 L 14.366,-112.599 L 14.6894,-112.484
 L 14.9999,-112.337 L 15.2945,-112.16 L 15.5704,-111.956 L 15.8249,-111.725 L 16.0555,-111.47 L 16.2601,-111.194
 L 16.4367,-110.9 L 16.5836,-110.589 L 16.6993,-110.266 L 16.7827,-109.933 L 16.8331,-109.593 L 16.85,-109.25
 L 16.8331,-108.907 L 16.7827,-108.567 L 16.6993,-108.234 L 16.5836,-107.911 L 16.4367,-107.6 L 16.2601,-107.305
 L 16.0555,-107.03 L 15.8249,-106.775 L 15.5704,-106.544 L 15.2945,-106.34 L 14.9999,-106.163 L 14.6894,-106.016
 L 14.366,-105.901 L 14.0328,-105.817 L 13.693,-105.767 L 13.35,-105.75 z
M 13.0069,-95.7668 L 12.6672,-95.8172 L 12.334,-95.9007 L 12.0106,-96.0164 L 11.7001,-96.1633 L 11.4055,-96.3398
 L 11.1296,-96.5444 L 10.8751,-96.7751 L 10.6445,-97.0296 L 10.4398,-97.3055 L 10.2633,-97.6001 L 10.1164,-97.9106
 L 10.0007,-98.234 L 9.91725,-98.5672 L 9.86685,-98.9069 L 9.84999,-99.25 L 9.86685,-99.593 L 9.91725,-99.9328
 L 10.0007,-100.266 L 10.1164,-100.589 L 10.2633,-100.9 L 10.4398,-101.194 L 10.6445,-101.47 L 10.8751,-101.725
 L 11.1296,-101.956 L 11.4055,-102.16 L 11.7001,-102.337 L 12.0106,-102.484 L 12.334,-102.599 L 12.6672,-102.683
 L 13.0069,-102.733 L 13.35,-102.75 L 13.693,-102.733 L 14.0328,-102.683 L 14.366,-102.599 L 14.6894,-102.484
 L 14.9999,-102.337 L 15.2945,-102.16 L 15.5704,-101.956 L 15.8249,-101.725 L 16.0555,-101.47 L 16.2601,-101.194
 L 16.4367,-100.9 L 16.5836,-100.589 L 16.6993,-100.266 L 16.7827,-99.9328 L 16.8331,-99.593 L 16.85,-99.25
 L 16.8331,-98.9069 L 16.7827,-98.5672 L 16.6993,-98.234 L 16.5836,-97.9106 L 16.4367,-97.6001 L 16.2601,-97.3055
 L 16.0555,-97.0296 L 15.8249,-96.7751 L 15.5704,-96.5444 L 15.2945,-96.3398 L 14.9999,-96.1633 L 14.6894,-96.0164
 L 14.366,-95.9007 L 14.0328,-95.8172 L 13.693,-95.7668 L 13.35,-95.75 z
M 13.0069,-85.7668 L 12.6672,-85.8172 L 12.334,-85.9007 L 12.0106,-86.0164 L 11.7001,-86.1633 L 11.4055,-86.3398
 L 11.1296,-86.5444 L 10.8751,-86.7751 L 10.6445,-87.0296 L 10.4398,-87.3055 L 10.2633,-87.6001 L 10.1164,-87.9106
 L 10.0007,-88.234 L 9.91725,-88.5672 L 9.86685,-88.9069 L 9.84999,-89.25 L 9.86685,-89.593 L 9.91725,-89.9328
 L 10.0007,-90.266 L 10.1164,-90.5894 L 10.2633,-90.8999 L 10.4398,-91.1945 L 10.6445,-91.4704 L 10.8751,-91.7249
 L 11.1296,-91.9555 L 11.4055,-92.1601 L 11.7001,-92.3367 L 12.0106,-92.4836 L 12.334,-92.5993 L 12.6672,-92.6827
 L 13.0069,-92.7331 L 13.35,-92.75 L 13.693,-92.7331 L 14.0328,-92.6827 L 14.366,-92.5993 L 14.6894,-92.4836
 L 14.9999,-92.3367 L 15.2945,-92.1601 L 15.5704,-91.9555 L 15.8249,-91.7249 L 16.0555,-91.4704 L 16.2601,-91.1945
 L 16.4367,-90.8999 L 16.5836,-90.5894 L 16.6993,-90.266 L 16.7827,-89.9328 L 16.8331,-89.593 L 16.85,-89.25
 L 16.8331,-88.9069 L 16.7827,-88.5672 L 16.6993,-88.234 L 16.5836,-87.9106 L 16.4367,-87.6001 L 16.2601,-87.3055
 L 16.0555,-87.0296 L 15.8249,-86.7751 L 15.5704,-86.5444 L 15.2945,-86.3398 L 14.9999,-86.1633 L 14.6894,-86.0164
 L 14.366,-85.9007 L 14.0328,-85.8172 L 13.693,-85.7668 L 13.35,-85.75 z
M 13.0069,-75.7668 L 12.6672,-75.8172 L 12.334,-75.9007 L 12.0106,-76.0164 L 11.7001,-76.1633 L 11.4055,-76.3398
 L 11.1296,-76.5444 L 10.8751,-76.7751 L 10.6445,-77.0296 L 10.4398,-77.3055 L 10.2633,-77.6001 L 10.1164,-77.9106
 L 10.0007,-78.234 L 9.91725,-78.5672 L 9.86685,-78.9069 L 9.84999,-79.25 L 9.86685,-79.593 L 9.91725,-79.9328
 L 10.0007,-80.266 L 10.1164,-80.5894 L 10.2633,-80.8999 L 10.4398,-81.1945 L 10.6445,-81.4704 L 10.8751,-81.7249
 L 11.1296,-81.9555 L 11.4055,-82.1601 L 11.7001,-82.3367 L 12.0106,-82.4836 L 12.334,-82.5993 L 12.6672,-82.6827
 L 13.0069,-82.7331 L 13.35,-82.75 L 13.693,-82.7331 L 14.0328,-82.6827 L 14.366,-82.5993 L 14.6894,-82.4836
 L 14.9999,-82.3367 L 15.2945,-82.1601 L 15.5704,-81.9555 L 15.8249,-81.7249 L 16.0555,-81.4704 L 16.2601,-81.1945
 L 16.4367,-80.8999 L 16.5836,-80.5894 L 16.6993,-80.266 L 16.7827,-79.9328 L 16.8331,-79.593 L 16.85,-79.25
 L 16.8331,-78.9069 L 16.7827,-78.5672 L 16.6993,-78.234 L 16.5836,-77.9106 L 16.4367,-77.6001 L 16.2601,-77.3055
 L 16.0555,-77.0296 L 15.8249,-76.7751 L 15.5704,-76.5444 L 15.2945,-76.3398 L 14.9999,-76.1633 L 14.6894,-76.0164
 L 14.366,-75.9007 L 14.0328,-75.8172 L 13.693,-75.7668 L 13.35,-75.75 z
M 13.0069,-65.7668 L 12.6672,-65.8172 L 12.334,-65.9007 L 12.0106,-66.0164 L 11.7001,-66.1633 L 11.4055,-66.3398
 L 11.1296,-66.5444 L 10.8751,-66.7751 L 10.6445,-67.0296 L 10.4398,-67.3055 L 10.2633,-67.6001 L 10.1164,-67.9106
 L 10.0007,-68.234 L 9.91725,-68.5672 L 9.86685,-68.9069 L 9.84999,-69.25 L 9.86685,-69.593 L 9.91725,-69.9328
 L 10.0007,-70.266 L 10.1164,-70.5894 L 10.2633,-70.8999 L 10.4398,-71.1945 L 10.6445,-71.4704 L 10.8751,-71.7249
 L 11.1296,-71.9555 L 11.4055,-72.1601 L 11.7001,-72.3367 L 12.0106,-72.4836 L 12.334,-72.5993 L 12.6672,-72.6827
 L 13.0069,-72.7331 L 13.35,-72.75 L 13.693,-72.7331 L 14.0328,-72.6827 L 14.366,-72.5993 L 14.6894,-72.4836
 L 14.9999,-72.3367 L 15.2945,-72.1601 L 15.5704,-71.9555 L 15.8249,-71.7249 L 16.0555,-71.4704 L 16.2601,-71.1945
 L 16.4367,-70.8999 L 16.5836,-70.5894 L 16.6993,-70.266 L 16.7827,-69.9328 L 16.8331,-69.593 L 16.85,-69.25
 L 16.8331,-68.9069 L 16.7827,-68.5672 L 16.6993,-68.234 L 16.5836,-67.9106 L 16.4367,-67.6001 L 16.2601,-67.3055
 L 16.0555,-67.0296 L 15.8249,-66.7751 L 15.5704,-66.5444 L 15.2945,-66.3398 L 14.9999,-66.1633 L 14.6894,-66.0164
 L 14.366,-65.9007 L 14.0328,-65.8172 L 13.693,-65.7668 L 13.35,-65.75 z
M 13.0069,-55.7668 L 12.6672,-55.8172 L 12.334,-55.9007 L 12.0106,-56.0164 L 11.7001,-56.1633 L 11.4055,-56.3398
 L 11.1296,-56.5444 L 10.8751,-56.7751 L 10.6445,-57.0296 L 10.4398,-57.3055 L 10.2633,-57.6001 L 10.1164,-57.9106
 L 10.0007,-58.234 L 9.91725,-58.5672 L 9.86685,-58.9069 L 9.84999,-59.25 L 9.86685,-59.593 L 9.91725,-59.9328
 L 10.0007,-60.266 L 10.1164,-60.5894 L 10.2633,-60.8999 L 10.4398,-61.1945 L 10.6445,-61.4704 L 10.8751,-61.7249
 L 11.1296,-61.9555 L 11.4055,-62.1601 L 11.7001,-62.3367 L 12.0106,-62.4836 L 12.334,-62.5993 L 12.6672,-62.6827
 L 13.0069,-62.7331 L 13.35,-62.75 L 13.693,-62.7331 L 14.0328,-62.6827 L 14.366,-62.5993 L 14.6894,-62.4836
 L 14.9999,-62.3367 L 15.2945,-62.1601 L 15.5704,-61.9555 L 15.8249,-61.7249 L 16.0555,-61.4704 L 16.2601,-61.1945
 L 16.4367,-60.8999 L 16.5836,-60.5894 L 16.6993,-60.266 L 16.7827,-59.9328 L 16.8331,-59.593 L 16.85,-59.25
 L 16.8331,-58.9069 L 16.7827,-58.5672 L 16.6993,-58.234 L 16.5836,-57.9106 L 16.4367,-57.6001 L 16.2601,-57.3055
 L 16.0555,-57.0296 L 15.8249,-56.7751 L 15.5704,-56.5444 L 15.2945,-56.3398 L 14.9999,-56.1633 L 14.6894,-56.0164
 L 14.366,-55.9007 L 14.0328,-55.8172 L 13.693,-55.7668 L 13.35,-55.75 z
M 13.0069,-45.7668 L 12.6672,-45.8172 L 12.334,-45.9007 L 12.0106,-46.0164 L 11.7001,-46.1633 L 11.4055,-46.3398
 L 11.1296,-46.5444 L 10.8751,-46.7751 L 10.6445,-47.0296 L 10.4398,-47.3055 L 10.2633,-47.6001 L 10.1164,-47.9106
 L 10.0007,-48.234 L 9.91725,-48.5672 L 9.86685,-48.9069 L 9.84999,-49.25 L 9.86685,-49.593 L 9.91725,-49.9328
 L 10.0007,-50.266 L 10.1164,-50.5894 L 10.2633,-50.8999 L 10.4398,-51.1945 L 10.6445,-51.4704 L 10.8751,-51.7249
 L 11.1296,-51.9555 L 11.4055,-52.1601 L 11.7001,-52.3367 L 12.0106,-52.4836 L 12.334,-52.5993 L 12.6672,-52.6827
 L 13.0069,-52.7331 L 13.35,-52.75 L 13.693,-52.7331 L 14.0328,-52.6827 L 14.366,-52.5993 L 14.6894,-52.4836
 L 14.9999,-52.3367 L 15.2945,-52.1601 L 15.5704,-51.9555 L 15.8249,-51.7249 L 16.0555,-51.4704 L 16.2601,-51.1945
 L 16.4367,-50.8999 L 16.5836,-50.5894 L 16.6993,-50.266 L 16.7827,-49.9328 L 16.8331,-49.593 L 16.85,-49.25
 L 16.8331,-48.9069 L 16.7827,-48.5672 L 16.6993,-48.234 L 16.5836,-47.9106 L 16.4367,-47.6001 L 16.2601,-47.3055
 L 16.0555,-47.0296 L 15.8249,-46.7751 L 15.5704,-46.5444 L 15.2945,-46.3398 L 14.9999,-46.1633 L 14.6894,-46.0164
 L 14.366,-45.9007 L 14.0328,-45.8172 L 13.693,-45.7668 L 13.35,-45.75 z
M 13.0069,-35.7668 L 12.6672,-35.8172 L 12.334,-35.9007 L 12.0106,-36.0164 L 11.7001,-36.1633 L 11.4055,-36.3398
 L 11.1296,-36.5444 L 10.8751,-36.7751 L 10.6445,-37.0296 L 10.4398,-37.3055 L 10.2633,-37.6001 L 10.1164,-37.9106
 L 10.0007,-38.234 L 9.91725,-38.5672 L 9.86685,-38.9069 L 9.84999,-39.25 L 9.86685,-39.593 L 9.91725,-39.9328
 L 10.0007,-40.266 L 10.1164,-40.5894 L 10.2633,-40.8999 L 10.4398,-41.1945 L 10.6445,-41.4704 L 10.8751,-41.7249
 L 11.1296,-41.9555 L 11.4055,-42.1601 L 11.7001,-42.3367 L 12.0106,-42.4836 L 12.334,-42.5993 L 12.6672,-42.6827
 L 13.0069,-42.7331 L 13.35,-42.75 L 13.693,-42.7331 L 14.0328,-42.6827 L 14.366,-42.5993 L 14.6894,-42.4836
 L 14.9999,-42.3367 L 15.2945,-42.1601 L 15.5704,-41.9555 L 15.8249,-41.7249 L 16.0555,-41.4704 L 16.2601,-41.1945
 L 16.4367,-40.8999 L 16.5836,-40.5894 L 16.6993,-40.266 L 16.7827,-39.9328 L 16.8331,-39.593 L 16.85,-39.25
 L 16.8331,-38.9069 L 16.7827,-38.5672 L 16.6993,-38.234 L 16.5836,-37.9106 L 16.4367,-37.6001 L 16.2601,-37.3055
 L 16.0555,-37.0296 L 15.8249,-36.7751 L 15.5704,-36.5444 L 15.2945,-36.3398 L 14.9999,-36.1633 L 14.6894,-36.0164
 L 14.366,-35.9007 L 14.0328,-35.8172 L 13.693,-35.7668 L 13.35,-35.75 z
M 13.0069,-25.7668 L 12.6672,-25.8172 L 12.334,-25.9007 L 12.0106,-26.0164 L 11.7001,-26.1633 L 11.4055,-26.3398
 L 11.1296,-26.5444 L 10.8751,-26.7751 L 10.6445,-27.0296 L 10.4398,-27.3055 L 10.2633,-27.6001 L 10.1164,-27.9106
 L 10.0007,-28.234 L 9.91725,-28.5672 L 9.86685,-28.9069 L 9.84999,-29.25 L 9.86685,-29.593 L 9.91725,-29.9328
 L 10.0007,-30.266 L 10.1164,-30.5894 L 10.2633,-30.8999 L 10.4398,-31.1945 L 10.6445,-31.4704 L 10.8751,-31.7249
 L 11.1296,-31.9555 L 11.4055,-32.1601 L 11.7001,-32.3367 L 12.0106,-32.4836 L 12.334,-32.5993 L 12.6672,-32.6827
 L 13.0069,-32.7331 L 13.35,-32.75 L 13.693,-32.7331 L 14.0328,-32.6827 L 14.366,-32.5993 L 14.6894,-32.4836
 L 14.9999,-32.3367 L 15.2945,-32.1601 L 15.5704,-31.9555 L 15.8249,-31.7249 L 16.0555,-31.4704 L 16.2601,-31.1945
 L 16.4367,-30.8999 L 16.5836,-30.5894 L 16.6993,-30.266 L 16.7827,-29.9328 L 16.8331,-29.593 L 16.85,-29.25
 L 16.8331,-28.9069 L 16.7827,-28.5672 L 16.6993,-28.234 L 16.5836,-27.9106 L 16.4367,-27.6001 L 16.2601,-27.3055
 L 16.0555,-27.0296 L 15.8249,-26.7751 L 15.5704,-26.5444 L 15.2945,-26.3398 L 14.9999,-26.1633 L 14.6894,-26.0164
 L 14.366,-25.9007 L 14.0328,-25.8172 L 13.693,-25.7668 L 13.35,-25.75 z
M 13.0069,-15.7668 L 12.6672,-15.8172 L 12.334,-15.9007 L 12.0106,-16.0164 L 11.7001,-16.1633 L 11.4055,-16.3398
 L 11.1296,-16.5444 L 10.8751,-16.7751 L 10.6445,-17.0296 L 10.4398,-17.3055 L 10.2633,-17.6001 L 10.1164,-17.9106
 L 10.0007,-18.234 L 9.91725,-18.5672 L 9.86685,-18.9069 L 9.84999,-19.25 L 9.86685,-19.593 L 9.91725,-19.9328
 L 10.0007,-20.266 L 10.1164,-20.5894 L 10.2633,-20.8999 L 10.4398,-21.1945 L 10.6445,-21.4704 L 10.8751,-21.7249
 L 11.1296,-21.9555 L 11.4055,-22.1601 L 11.7001,-22.3367 L 12.0106,-22.4836 L 12.334,-22.5993 L 12.6672,-22.6827
 L 13.0069,-22.7331 L 13.35,-22.75 L 13.693,-22.7331 L 14.0328,-22.6827 L 14.366,-22.5993 L 14.6894,-22.4836
 L 14.9999,-22.3367 L 15.2945,-22.1601 L 15.5704,-21.9555 L 15.8249,-21.7249 L 16.0555,-21.4704 L 16.2601,-21.1945
 L 16.4367,-20.8999 L 16.5836,-20.5894 L 16.6993,-20.266 L 16.7827,-19.9328 L 16.8331,-19.593 L 16.85,-19.25
 L 16.8331,-18.9069 L 16.7827,-18.5672 L 16.6993,-18.234 L 16.5836,-17.9106 L 16.4367,-17.6001 L 16.2601,-17.3055
 L 16.0555,-17.0296 L 15.8249,-16.7751 L 15.5704,-16.5444 L 15.2945,-16.3398 L 14.9999,-16.1633 L 14.6894,-16.0164
 L 14.366,-15.9007 L 14.0328,-15.8172 L 13.693,-15.7668 L 13.35,-15.75 z
M 7.34317,-1.4077 L 7.18785,-1.43074 L 7.03554,-1.46889 L 6.8877,-1.52179 L 6.74576,-1.58891 L 6.61108,-1.66965
 L 6.48497,-1.76317 L 6.36862,-1.86862 L 6.26317,-1.98497 L 6.16965,-2.11108 L 6.08891,-2.24576 L 6.02179,-2.3877
 L 5.96889,-2.53554 L 5.93074,-2.68785 L 5.9077,-2.84317 L 5.89999,-3 L 5.9077,-3.15681 L 5.93074,-3.31213
 L 5.96889,-3.46445 L 6.02179,-3.61229 L 6.08891,-3.75423 L 6.16965,-3.8889 L 6.26317,-4.01501 L 6.36862,-4.13136
 L 6.48497,-4.23682 L 6.61108,-4.33034 L 6.74576,-4.41107 L 6.8877,-4.4782 L 7.03554,-4.5311 L 7.18785,-4.56924
 L 7.34317,-4.59229 L 7.5,-4.59999 L 7.65681,-4.59229 L 7.81213,-4.56924 L 7.96445,-4.5311 L 8.11229,-4.4782
 L 8.25423,-4.41107 L 8.3889,-4.33034 L 8.51501,-4.23682 L 8.63136,-4.13136 L 8.73682,-4.01501 L 8.83034,-3.8889
 L 8.91107,-3.75423 L 8.9782,-3.61229 L 9.0311,-3.46445 L 9.06924,-3.31213 L 9.09229,-3.15681 L 9.09999,-3
 L 9.09229,-2.84317 L 9.06924,-2.68785 L 9.0311,-2.53554 L 8.9782,-2.3877 L 8.91107,-2.24576 L 8.83034,-2.11108
 L 8.73682,-1.98497 L 8.63136,-1.86862 L 8.51501,-1.76317 L 8.3889,-1.66965 L 8.25423,-1.58891 L 8.11229,-1.52179
 L 7.96445,-1.46889 L 7.81213,-1.43074 L 7.65681,-1.4077 L 7.5,-1.39999 z
" stroke="black" fill="lightgray" stroke-width="0.5"/>
</svg>
