<?xml version="1.0" encoding="utf-8" ?>
<svg baseProfile="tiny" height="399.720463" version="1.2" width="222.362201" xmlns="http://www.w3.org/2000/svg" xmlns:ev="http://www.w3.org/2001/xml-events" xmlns:xlink="http://www.w3.org/1999/xlink"><defs /><g id="paths" stroke="blue"><path d="M 31.889763,375.590542 L 88.582675,375.590542 L 124.015745,340.157472 L 124.015745,248.03149 L 120.472438,244.488183 L 120.472438,152.362201 L 124.015745,148.818894 L 124.015745,56.692912 L 88.582675,21.259842 L 31.889763,21.259842 L 31.889763,375.590542 Z" fill-opacity="0" stroke-linejoin="round" stroke-width="1.0" /></g><g fill="red" id="holes"><circle cx="98.2559" cy="277.7244" r="0.585" stroke-width="0.0" /><circle cx="111.6142" cy="293.9173" r="0.585" stroke-width="0.0" /><circle cx="102.7559" cy="313.7244" r="0.585" stroke-width="0.0" /><circle cx="107.2559" cy="74.126" r="0.585" stroke-width="0.0" /><circle cx="98.2559" cy="83.126" r="0.585" stroke-width="0.0" /><circle cx="102.7559" cy="101.126" r="0.585" stroke-width="0.0" /><circle cx="102.7559" cy="110.126" r="0.585" stroke-width="0.0" /><circle cx="98.2559" cy="74.126" r="0.585" stroke-width="0.0" /><circle cx="102.7559" cy="322.7244" r="0.585" stroke-width="0.0" /><circle cx="107.2559" cy="83.126" r="0.585" stroke-width="0.0" /><circle cx="102.7559" cy="119.126" r="0.585" stroke-width="0.0" /><circle cx="111.2598" cy="102.9331" r="0.585" stroke-width="0.0" /><circle cx="107.2559" cy="65.126" r="0.585" stroke-width="0.0" /><circle cx="107.2559" cy="277.7244" r="0.585" stroke-width="0.0" /><circle cx="98.2559" cy="295.7244" r="0.585" stroke-width="0.0" /><circle cx="102.7559" cy="331.7244" r="0.585" stroke-width="0.0" /><circle cx="98.2559" cy="65.126" r="0.585" stroke-width="0.0" /><circle cx="98.2559" cy="286.7244" r="0.585" stroke-width="0.0" /><circle cx="107.2559" cy="286.7244" r="0.585" stroke-width="0.0" /><circle cx="37.5591" cy="357.874" r="4.4291" stroke-width="0.0" /><circle cx="56.3386" cy="357.874" r="4.4291" stroke-width="0.0" /><circle cx="76.8898" cy="357.874" r="4.4291" stroke-width="0.0" /><circle cx="37.5591" cy="251.5748" r="4.4291" stroke-width="0.0" /><circle cx="56.3386" cy="251.5748" r="4.4291" stroke-width="0.0" /><circle cx="76.8898" cy="251.5748" r="4.4291" stroke-width="0.0" /><circle cx="37.5591" cy="109.8425" r="4.4291" stroke-width="0.0" /><circle cx="56.3386" cy="109.8425" r="4.4291" stroke-width="0.0" /><circle cx="76.8898" cy="109.8425" r="4.4291" stroke-width="0.0" /><circle cx="37.5591" cy="216.1417" r="4.4291" stroke-width="0.0" /><circle cx="56.3386" cy="216.1417" r="4.4291" stroke-width="0.0" /><circle cx="76.8898" cy="216.1417" r="4.4291" stroke-width="0.0" /><circle cx="37.5591" cy="145.2756" r="4.4291" stroke-width="0.0" /><circle cx="56.3386" cy="145.2756" r="4.4291" stroke-width="0.0" /><circle cx="76.8898" cy="145.2756" r="4.4291" stroke-width="0.0" /><circle cx="98.2559" cy="166.9252" r="2.3917" stroke-width="0.0" /><circle cx="98.2559" cy="175.9252" r="2.3917" stroke-width="0.0" /><circle cx="98.2559" cy="184.9252" r="2.3917" stroke-width="0.0" /><circle cx="98.2559" cy="193.9252" r="2.3917" stroke-width="0.0" /><circle cx="98.2559" cy="202.9252" r="2.3917" stroke-width="0.0" /><circle cx="98.2559" cy="211.9252" r="2.3917" stroke-width="0.0" /><circle cx="98.2559" cy="220.9252" r="2.3917" stroke-width="0.0" /><circle cx="98.2559" cy="229.9252" r="2.3917" stroke-width="0.0" /><circle cx="107.2559" cy="166.9252" r="2.3917" stroke-width="0.0" /><circle cx="107.2559" cy="175.9252" r="2.3917" stroke-width="0.0" /><circle cx="107.2559" cy="184.9252" r="2.3917" stroke-width="0.0" /><circle cx="107.2559" cy="193.9252" r="2.3917" stroke-width="0.0" /><circle cx="107.2559" cy="202.9252" r="2.3917" stroke-width="0.0" /><circle cx="107.2559" cy="211.9252" r="2.3917" stroke-width="0.0" /><circle cx="107.2559" cy="220.9252" r="2.3917" stroke-width="0.0" /><circle cx="107.2559" cy="229.9252" r="2.3917" stroke-width="0.0" /><circle cx="88.689" cy="277.7244" r="1.3287" stroke-width="0.0" /><circle cx="88.689" cy="286.7244" r="1.3287" stroke-width="0.0" /><circle cx="88.689" cy="295.7244" r="1.3287" stroke-width="0.0" /><circle cx="88.689" cy="304.7244" r="1.3287" stroke-width="0.0" /><circle cx="88.689" cy="313.7244" r="1.3287" stroke-width="0.0" /><circle cx="88.689" cy="322.7244" r="1.3287" stroke-width="0.0" /><circle cx="88.689" cy="331.7244" r="1.3287" stroke-width="0.0" /><circle cx="116.8228" cy="331.7244" r="1.3287" stroke-width="0.0" /><circle cx="116.8228" cy="322.7244" r="1.3287" stroke-width="0.0" /><circle cx="116.8228" cy="313.7244" r="1.3287" stroke-width="0.0" /><circle cx="116.8228" cy="304.7244" r="1.3287" stroke-width="0.0" /><circle cx="116.8228" cy="295.7244" r="1.3287" stroke-width="0.0" /><circle cx="116.8228" cy="286.7244" r="1.3287" stroke-width="0.0" /><circle cx="116.8228" cy="277.7244" r="1.3287" stroke-width="0.0" /><circle cx="37.5591" cy="38.9764" r="4.4291" stroke-width="0.0" /><circle cx="56.3386" cy="38.9764" r="4.4291" stroke-width="0.0" /><circle cx="76.8898" cy="38.9764" r="4.4291" stroke-width="0.0" /><circle cx="88.689" cy="65.126" r="1.3287" stroke-width="0.0" /><circle cx="88.689" cy="74.126" r="1.3287" stroke-width="0.0" /><circle cx="88.689" cy="83.126" r="1.3287" stroke-width="0.0" /><circle cx="88.689" cy="92.126" r="1.3287" stroke-width="0.0" /><circle cx="88.689" cy="101.126" r="1.3287" stroke-width="0.0" /><circle cx="88.689" cy="110.126" r="1.3287" stroke-width="0.0" /><circle cx="88.689" cy="119.126" r="1.3287" stroke-width="0.0" /><circle cx="116.8228" cy="119.126" r="1.3287" stroke-width="0.0" /><circle cx="116.8228" cy="110.126" r="1.3287" stroke-width="0.0" /><circle cx="116.8228" cy="101.126" r="1.3287" stroke-width="0.0" /><circle cx="116.8228" cy="92.126" r="1.3287" stroke-width="0.0" /><circle cx="116.8228" cy="83.126" r="1.3287" stroke-width="0.0" /><circle cx="116.8228" cy="74.126" r="1.3287" stroke-width="0.0" /><circle cx="116.8228" cy="65.126" r="1.3287" stroke-width="0.0" /><circle cx="37.5591" cy="287.0079" r="4.4291" stroke-width="0.0" /><circle cx="56.3386" cy="287.0079" r="4.4291" stroke-width="0.0" /><circle cx="76.8898" cy="287.0079" r="4.4291" stroke-width="0.0" /><circle cx="37.5591" cy="322.4409" r="4.4291" stroke-width="0.0" /><circle cx="56.3386" cy="322.4409" r="4.4291" stroke-width="0.0" /><circle cx="76.8898" cy="322.4409" r="4.4291" stroke-width="0.0" /><circle cx="37.5591" cy="180.7087" r="4.4291" stroke-width="0.0" /><circle cx="56.3386" cy="180.7087" r="4.4291" stroke-width="0.0" /><circle cx="76.8898" cy="180.7087" r="4.4291" stroke-width="0.0" /><circle cx="37.5591" cy="74.4094" r="4.4291" stroke-width="0.0" /><circle cx="56.3386" cy="74.4094" r="4.4291" stroke-width="0.0" /><circle cx="76.8898" cy="74.4094" r="4.4291" stroke-width="0.0" /></g><g id="rulers" stroke="black"><line stroke-width="1.0" x1="152.3622" x2="152.3622" y1="248.0315" y2="244.4882" /><text font-family="monospace" font-size="5" stroke-width="0.3" x="157.362201" y="246.2598365">1.0000mm</text><text font-family="monospace" font-size="5" stroke-width="0.3" x="157.362201" y="252.2598365">(Δy=1.0000mm)</text><line stroke-width="1.0" x1="124.0157" x2="31.8898" y1="3.5433" y2="3.5433" /><text font-family="monospace" font-size="5" stroke-width="0.3" x="77.952754" y="-1.456693">26.0000mm</text><text font-family="monospace" font-size="5" stroke-width="0.3" x="77.952754" y="4.543307">(Δx=26.0000mm)</text><line stroke-width="1.0" x1="3.5433" x2="3.7205" y1="21.2598" y2="375.5905" /><text font-family="monospace" font-size="5" stroke-width="0.3" x="8.63188905" y="198.422692">100.0000mm</text><text font-family="monospace" font-size="5" stroke-width="0.3" x="8.63188905" y="204.422692">(Δx=0.0500mm, Δy=100.0000mm)</text><line stroke-width="1.0" x1="145.2756" x2="145.2756" y1="244.4882" y2="152.3622" /><text font-family="monospace" font-size="5" stroke-width="0.3" x="150.275587" y="198.425192">26.0000mm</text><text font-family="monospace" font-size="5" stroke-width="0.3" x="150.275587" y="204.425192">(Δy=26.0000mm)</text><line stroke-width="1.0" x1="145.2756" x2="145.2756" y1="340.1575" y2="248.0315" /><text font-family="monospace" font-size="5" stroke-width="0.3" x="150.275587" y="294.094481">26.0000mm</text><text font-family="monospace" font-size="5" stroke-width="0.3" x="150.275587" y="300.094481">(Δy=26.0000mm)</text><line stroke-width="1.0" x1="31.8898" x2="88.5827" y1="386.2205" y2="386.2205" /><text font-family="monospace" font-size="5" stroke-width="0.3" x="60.236219" y="391.220463">16.0000mm</text><text font-family="monospace" font-size="5" stroke-width="0.3" x="60.236219" y="397.220463">(Δx=16.0000mm)</text><line stroke-width="1.0" x1="134.6457" x2="134.6457" y1="375.5905" y2="340.1575" /><text font-family="monospace" font-size="5" stroke-width="0.3" x="139.645666" y="357.874007">10.0000mm</text><text font-family="monospace" font-size="5" stroke-width="0.3" x="139.645666" y="363.874007">(Δy=10.0000mm)</text></g></svg>