<?xml version="1.0" encoding="UTF-8" standalone="no"?>
<svg
   xmlns:dc="http://purl.org/dc/elements/1.1/"
   xmlns:cc="http://creativecommons.org/ns#"
   xmlns:rdf="http://www.w3.org/1999/02/22-rdf-syntax-ns#"
   xmlns:svg="http://www.w3.org/2000/svg"
   xmlns="http://www.w3.org/2000/svg"
   xmlns:sodipodi="http://sodipodi.sourceforge.net/DTD/sodipodi-0.dtd"
   xmlns:inkscape="http://www.inkscape.org/namespaces/inkscape"
   width="210mm"
   height="297mm"
   viewBox="0 -129 210 297"
   version="1.1"
   id="svg6330"
   sodipodi:docname="eurorack-buffered-mult-module-panel-with-labels.svg"
   inkscape:version="0.92.1 r15371">
  <title
     id="title8296">Eurorack buffered mult module panel (with labels)</title>
  <metadata
     id="metadata6336">
    <rdf:RDF>
      <cc:Work
         rdf:about="">
        <dc:format>image/svg+xml</dc:format>
        <dc:type
           rdf:resource="http://purl.org/dc/dcmitype/StillImage" />
        <dc:title>Eurorack buffered mult module panel (with labels)</dc:title>
      </cc:Work>
    </rdf:RDF>
  </metadata>
  <defs
     id="defs6334" />
  <sodipodi:namedview
     pagecolor="#ffffff"
     bordercolor="#666666"
     borderopacity="1"
     objecttolerance="10"
     gridtolerance="10"
     guidetolerance="10"
     inkscape:pageopacity="0"
     inkscape:pageshadow="2"
     inkscape:window-width="1920"
     inkscape:window-height="1027"
     id="namedview6332"
     showgrid="false"
     inkscape:zoom="1.369083"
     inkscape:cx="65.159225"
     inkscape:cy="212.89709"
     inkscape:window-x="1912"
     inkscape:window-y="-8"
     inkscape:window-maximized="1"
     inkscape:current-layer="svg6330"
     inkscape:document-units="mm" />
  <rect
     style="fill:none;fill-opacity:0;stroke:#ff0000;stroke-width:0.28371352;stroke-miterlimit:4;stroke-dasharray:none;stroke-opacity:1"
     id="rect6937"
     width="19.716286"
     height="128.21628"
     x="0.14185676"
     y="39.641861" />
  <circle
     style="fill:none;fill-opacity:0;stroke:#ff0000;stroke-width:0.12749535;stroke-miterlimit:4;stroke-dasharray:none;stroke-opacity:1"
     id="path6939"
     cx="7.5"
     cy="165"
     r="1.5362523" />
  <circle
     style="fill:none;fill-opacity:0;stroke:#ff0000;stroke-width:0.12749535;stroke-miterlimit:4;stroke-dasharray:none;stroke-opacity:1"
     id="path6939-6"
     cx="7.5"
     cy="42.5"
     r="1.5362523" />
  <ellipse
     style="fill:none;fill-opacity:0;stroke:#ff0000;stroke-width:0.27889606;stroke-miterlimit:4;stroke-dasharray:none;stroke-opacity:1"
     id="path6939-6-8"
     cx="13.5"
     cy="58.5"
     rx="3.3605521"
     ry="3.3605518" />
  <ellipse
     style="fill:none;fill-opacity:0;stroke:#ff0000;stroke-width:0.27889606;stroke-miterlimit:4;stroke-dasharray:none;stroke-opacity:1"
     id="path6939-6-8-0"
     cx="13.5"
     cy="68.5"
     rx="3.3605521"
     ry="3.3605518" />
  <ellipse
     style="fill:none;fill-opacity:0;stroke:#ff0000;stroke-width:0.27889606;stroke-miterlimit:4;stroke-dasharray:none;stroke-opacity:1"
     id="path6939-6-8-2"
     cx="13.5"
     cy="88.5"
     rx="3.3605521"
     ry="3.3605518" />
  <ellipse
     style="fill:none;fill-opacity:0;stroke:#ff0000;stroke-width:0.27889606;stroke-miterlimit:4;stroke-dasharray:none;stroke-opacity:1"
     id="path6939-6-8-7"
     cx="13.5"
     cy="98.5"
     rx="3.3605521"
     ry="3.3605518" />
  <ellipse
     style="fill:none;fill-opacity:0;stroke:#ff0000;stroke-width:0.27889606;stroke-miterlimit:4;stroke-dasharray:none;stroke-opacity:1"
     id="path6939-6-8-5"
     cx="13.5"
     cy="108.5"
     rx="3.3605521"
     ry="3.3605518" />
  <ellipse
     style="fill:none;fill-opacity:0;stroke:#ff0000;stroke-width:0.27889606;stroke-miterlimit:4;stroke-dasharray:none;stroke-opacity:1"
     id="path6939-6-8-9"
     cx="13.5"
     cy="118.5"
     rx="3.3605521"
     ry="3.3605518" />
  <ellipse
     style="fill:none;fill-opacity:0;stroke:#ff0000;stroke-width:0.27889606;stroke-miterlimit:4;stroke-dasharray:none;stroke-opacity:1"
     id="path6939-6-8-91"
     cx="13.5"
     cy="138.5"
     rx="3.3605521"
     ry="3.3605518" />
  <ellipse
     style="fill:none;fill-opacity:0;stroke:#ff0000;stroke-width:0.27889606;stroke-miterlimit:4;stroke-dasharray:none;stroke-opacity:1"
     id="path6939-6-8-03"
     cx="13.5"
     cy="148.5"
     rx="3.3605521"
     ry="3.3605518" />
  <ellipse
     style="fill:none;fill-opacity:0;stroke:#ff0000;stroke-width:0.27889606;stroke-miterlimit:4;stroke-dasharray:none;stroke-opacity:1"
     id="path6939-6-8-2-2"
     cx="13.5"
     cy="78.5"
     rx="3.3605523"
     ry="3.3605518" />
  <ellipse
     style="fill:none;fill-opacity:0;stroke:#ff0000;stroke-width:0.27889606;stroke-miterlimit:4;stroke-dasharray:none;stroke-opacity:1"
     id="path6939-6-8-2-26"
     cx="13.5"
     cy="128.5"
     rx="3.3605523"
     ry="3.3605518" />
  <g
     aria-label="IN 1"
     style="font-style:normal;font-weight:normal;font-size:3.32018375px;line-height:1.25;font-family:sans-serif;letter-spacing:0px;word-spacing:0px;fill:#000000;fill-opacity:1;stroke:none;stroke-width:0.08300459"
     id="text8942">
    <path
       d="M 2,57.079573 H 2.3274791 V 59.5 H 2 Z"
       style="stroke-width:0.08300459"
       id="path9125" />
    <path
       d="m 2.9791948,57.079573 h 0.4409619 l 1.0732235,2.024858 V 57.079573 H 4.8111321 V 59.5 H 4.3701702 L 3.2969468,57.475142 V 59.5 h -0.317752 z"
       style="stroke-width:0.08300459"
       id="path9127" />
    <path
       d="m 6.605782,59.224399 h 0.5349906 v -1.846528 l -0.5820049,0.116725 v -0.298298 l 0.5787625,-0.116725 h 0.3274791 v 2.144826 H 7.9999998 V 59.5 H 6.605782 Z"
       style="stroke-width:0.08300459"
       id="path9129" />
  </g>
  <g
     aria-label="OUT 1"
     style="font-style:normal;font-weight:normal;font-size:2.04289269px;line-height:1.25;font-family:sans-serif;letter-spacing:0px;word-spacing:0px;fill:#000000;fill-opacity:1;stroke:none;stroke-width:0.05107231"
     id="text8942-2">
    <path
       d="m 2.6902743,67.718457 q -0.2194514,0 -0.3491272,0.163591 -0.1286783,0.163591 -0.1286783,0.445885 0,0.281297 0.1286783,0.444888 0.1296758,0.163591 0.3491272,0.163591 0.2194514,0 0.3471322,-0.163591 0.1286783,-0.163591 0.1286783,-0.444888 0,-0.282294 -0.1286783,-0.445885 -0.1276808,-0.163591 -0.3471322,-0.163591 z m 0,-0.163591 q 0.313217,0 0.5007481,0.210474 0.1875312,0.209476 0.1875312,0.562593 0,0.35212 -0.1875312,0.562594 -0.1875311,0.209476 -0.5007481,0.209476 -0.3142144,0 -0.5027431,-0.209476 Q 2,68.681051 2,68.327933 2,67.974816 2.1875312,67.76534 2.3760599,67.554866 2.6902743,67.554866 Z"
       style="stroke-width:0.05107231"
       id="path9116" />
    <path
       d="m 3.6708229,67.581799 h 0.2024938 v 0.904738 q 0,0.239401 0.086783,0.345137 0.086783,0.104738 0.2812968,0.104738 0.1935162,0 0.2802992,-0.104738 0.086783,-0.105736 0.086783,-0.345137 v -0.904738 h 0.2024937 v 0.929675 q 0,0.291272 -0.1446384,0.439901 -0.1436409,0.148628 -0.4249376,0.148628 -0.2822943,0 -0.4269327,-0.148628 -0.1436409,-0.148629 -0.1436409,-0.439901 z"
       style="stroke-width:0.05107231"
       id="path9118" />
    <path
       d="m 4.9835412,67.581799 h 1.2598504 v 0.169576 H 5.7147133 v 1.3197 H 5.5122195 v -1.3197 H 4.9835412 Z"
       style="stroke-width:0.05107231"
       id="path9120" />
    <path
       d="m 7.1421448,68.901499 h 0.329177 V 67.76534 l -0.3581047,0.07182 v -0.183541 l 0.3561097,-0.07182 h 0.2014963 v 1.3197 h 0.329177 v 0.169576 H 7.1421448 Z"
       style="stroke-width:0.05107231"
       id="path9122" />
  </g>
  <g
     aria-label="OUT 2"
     style="font-style:normal;font-weight:normal;font-size:2.04834127px;line-height:1.25;font-family:sans-serif;letter-spacing:0px;word-spacing:0px;fill:#000000;fill-opacity:1;stroke:none;stroke-width:0.05120853"
     id="text8942-2-4">
    <path
       d="m 2.6921153,77.714773 q -0.2200367,0 -0.3500583,0.164028 -0.1290215,0.164027 -0.1290215,0.447074 0,0.282047 0.1290215,0.446074 0.1300216,0.164028 0.3500583,0.164028 0.2200366,0 0.348058,-0.164028 0.1290215,-0.164027 0.1290215,-0.446074 0,-0.283047 -0.1290215,-0.447074 -0.1280214,-0.164028 -0.348058,-0.164028 z m 0,-0.164027 q 0.3140523,0 0.5020836,0.211035 0.1880314,0.210035 0.1880314,0.564094 0,0.353059 -0.1880314,0.564094 -0.1880313,0.210035 -0.5020836,0.210035 -0.3150525,0 -0.504084,-0.210035 Q 2,78.679934 2,78.325875 2,77.971816 2.1880313,77.761781 2.3770628,77.550746 2.6921153,77.550746 Z"
       style="stroke-width:0.05120853"
       id="path9107" />
    <path
       d="m 3.675279,77.57775 h 0.2030339 v 0.907151 q 0,0.24004 0.087014,0.346058 0.087014,0.105018 0.2820469,0.105018 0.1940324,0 0.2810469,-0.105018 0.087014,-0.106018 0.087014,-0.346058 V 77.57775 h 0.2030338 v 0.932156 q 0,0.292048 -0.1450242,0.441073 -0.144024,0.149025 -0.426071,0.149025 -0.2830471,0 -0.4280713,-0.149025 -0.144024,-0.149025 -0.144024,-0.441073 z"
       style="stroke-width:0.05120853"
       id="path9109" />
    <path
       d="m 4.9914983,77.57775 h 1.2632105 v 0.170029 H 5.7246205 v 1.32322 H 5.5215867 v -1.32322 H 4.9914983 Z"
       style="stroke-width:0.05120853"
       id="path9111" />
    <path
       d="m 7.294882,78.900971 h 0.7051175 v 0.170028 h -0.948158 v -0.170028 q 0.1150191,-0.11902 0.3130521,-0.319053 0.1990332,-0.201034 0.2500417,-0.259043 0.097016,-0.109019 0.1350225,-0.184031 0.039007,-0.07601 0.039007,-0.149025 0,-0.11902 -0.084014,-0.194032 -0.083014,-0.07501 -0.2170362,-0.07501 -0.095016,0 -0.2010335,0.03301 -0.1050175,0.033 -0.2250375,0.100016 v -0.204034 q 0.1220204,-0.04901 0.228038,-0.07401 0.1060177,-0.025 0.1940324,-0.025 0.2320386,0 0.3700616,0.116019 0.138023,0.11602 0.138023,0.310052 0,0.09202 -0.035006,0.175029 -0.034006,0.08201 -0.1250208,0.194032 -0.025004,0.029 -0.1590265,0.168028 -0.1340224,0.138023 -0.378063,0.387065 z"
       style="stroke-width:0.05120853"
       id="path9113" />
  </g>
  <g
     aria-label="OUT 3"
     style="font-style:normal;font-weight:normal;font-size:2.03443694px;line-height:1.25;font-family:sans-serif;letter-spacing:0px;word-spacing:0px;fill:#000000;fill-opacity:1;stroke:none;stroke-width:0.05086092"
     id="text8942-2-2">
    <path
       d="m 2.6874172,87.724178 q -0.218543,0 -0.3476821,0.162914 -0.1281457,0.162914 -0.1281457,0.444039 0,0.280133 0.1281457,0.443047 0.1291391,0.162914 0.3476821,0.162914 0.218543,0 0.3456953,-0.162914 0.1281457,-0.162914 0.1281457,-0.443047 0,-0.281125 -0.1281457,-0.444039 -0.1271523,-0.162914 -0.3456953,-0.162914 z m 0,-0.162914 q 0.3119205,0 0.4986755,0.209602 0.1867549,0.20861 0.1867549,0.560265 0,0.350663 -0.1867549,0.560265 -0.186755,0.208609 -0.4986755,0.208609 -0.3129139,0 -0.5006622,-0.208609 Q 2,88.682787 2,88.331131 2,87.979476 2.186755,87.770866 2.3745033,87.561264 2.6874172,87.561264 Z"
       style="stroke-width:0.05086092"
       id="path9098" />
    <path
       d="m 3.6639072,87.588085 h 0.2016557 v 0.900993 q 0,0.238411 0.086424,0.343709 0.086424,0.104305 0.2801324,0.104305 0.1927152,0 0.2791391,-0.104305 0.086424,-0.105298 0.086424,-0.343709 v -0.900993 h 0.2016556 v 0.925828 q 0,0.290066 -0.1440397,0.438079 -0.1430464,0.148013 -0.4231788,0.148013 -0.2811258,0 -0.4251655,-0.148013 -0.1430464,-0.148013 -0.1430464,-0.438079 z"
       style="stroke-width:0.05086092"
       id="path9100" />
    <path
       d="m 4.971192,87.588085 h 1.2546356 v 0.168874 h -0.52649 v 1.314239 H 5.497682 v -1.314239 h -0.52649 z"
       style="stroke-width:0.05086092"
       id="path9102" />
    <path
       d="m 7.6940397,88.271529 q 0.1440397,0.03079 0.2245033,0.128145 0.081457,0.09735 0.081457,0.240398 0,0.219536 -0.1509934,0.339735 -0.1509933,0.120198 -0.429139,0.120198 -0.093377,0 -0.1927152,-0.01887 -0.098344,-0.01788 -0.2036424,-0.05464 v -0.193709 q 0.083444,0.04868 0.1827814,0.07351 0.099338,0.02483 0.2076159,0.02483 0.1887417,0 0.2870861,-0.0745 0.099338,-0.0745 0.099338,-0.216556 0,-0.131126 -0.092384,-0.204636 -0.091391,-0.0745 -0.255298,-0.0745 H 7.2798013 V 88.196032 H 7.460596 q 0.1480132,0 0.22649,-0.05861 0.078477,-0.0596 0.078477,-0.170861 0,-0.114239 -0.081457,-0.174835 -0.080464,-0.06159 -0.231457,-0.06159 -0.08245,0 -0.1768211,0.01788 -0.094371,0.01788 -0.2076159,0.05563 V 87.62484 q 0.1142384,-0.03179 0.2135761,-0.04768 0.1003312,-0.01589 0.1887417,-0.01589 0.2284768,0 0.3615894,0.104304 0.1331126,0.103312 0.1331126,0.280133 0,0.123179 -0.07053,0.208609 -0.07053,0.08444 -0.2006622,0.117219 z"
       style="stroke-width:0.05086092"
       id="path9104" />
  </g>
  <g
     aria-label="OUT 4"
     style="font-style:normal;font-weight:normal;font-size:2.01806521px;line-height:1.25;font-family:sans-serif;letter-spacing:0px;word-spacing:0px;fill:#000000;fill-opacity:1;stroke:none;stroke-width:0.05045163"
     id="text8942-2-6">
    <path
       d="m 2.6818854,97.735246 q -0.2167844,0 -0.3448842,0.161603 -0.1271145,0.161603 -0.1271145,0.440467 0,0.277878 0.1271145,0.439481 0.1280998,0.161603 0.3448842,0.161603 0.2167843,0 0.3429134,-0.161603 0.1271145,-0.161603 0.1271145,-0.439481 0,-0.278864 -0.1271145,-0.440467 -0.1261291,-0.161603 -0.3429134,-0.161603 z m 0,-0.161602 q 0.3094104,0 0.4946624,0.207916 0.1852521,0.20693 0.1852521,0.555756 0,0.34784 -0.1852521,0.555756 -0.185252,0.206931 -0.4946624,0.206931 -0.3103958,0 -0.4966333,-0.206931 -0.185252,-0.206931 -0.185252,-0.555756 0,-0.348826 0.185252,-0.555756 0.1862375,-0.207916 0.4966333,-0.207916 z"
       style="stroke-width:0.05045163"
       id="path9089" />
    <path
       d="m 3.6505172,97.600249 h 0.2000329 v 0.893743 q 0,0.236492 0.085728,0.340942 0.085728,0.103466 0.2778781,0.103466 0.1911644,0 0.2768928,-0.103466 0.085728,-0.10445 0.085728,-0.340942 v -0.893743 h 0.2000329 v 0.918377 q 0,0.287732 -0.1428806,0.434554 -0.1418952,0.146823 -0.4197734,0.146823 -0.2788635,0 -0.421744,-0.146823 -0.1418953,-0.146822 -0.1418953,-0.434554 z"
       style="stroke-width:0.05045163"
       id="path9091" />
    <path
       d="M 4.9472817,97.600249 H 6.191821 v 0.167515 H 5.6695678 v 1.303662 H 5.4695349 V 97.767764 H 4.9472817 Z"
       style="stroke-width:0.05045163"
       id="path9093" />
    <path
       d="M 7.5920509,97.773676 7.0895054,98.559027 H 7.5920509 Z M 7.5398256,97.600249 H 7.790113 v 0.958778 h 0.2098867 v 0.165544 H 7.790113 v 0.346855 H 7.5920509 V 98.724571 H 6.9279025 v -0.192149 z"
       style="stroke-width:0.05045163"
       id="path9095" />
  </g>
  <g
     aria-label="IN 2"
     style="font-style:normal;font-weight:normal;font-size:3.33459973px;line-height:1.25;font-family:sans-serif;letter-spacing:0px;word-spacing:0px;fill:#000000;fill-opacity:1;stroke:none;stroke-width:0.08336499"
     id="text8942-5">
    <path
       d="m 2,107.06909 h 0.3289009 v 2.43093 H 2 Z"
       style="stroke-width:0.08336499"
       id="path9082" />
    <path
       d="m 2.9834464,107.06909 h 0.4428765 l 1.0778833,2.03365 v -2.03365 h 0.3191316 v 2.43093 H 4.3804613 L 3.302578,107.46637 v 2.03365 H 2.9834464 Z"
       style="stroke-width:0.08336499"
       id="path9084" />
    <path
       d="m 6.8521032,109.22323 h 1.1478969 v 0.27679 h -1.543555 v -0.27679 q 0.1872456,-0.19376 0.5096337,-0.51941 0.3240162,-0.32727 0.4070556,-0.42171 0.1579376,-0.17747 0.21981,-0.29959 0.063501,-0.12375 0.063501,-0.24261 0,-0.19375 -0.1367707,-0.31587 -0.1351425,-0.12212 -0.3533243,-0.12212 -0.1546811,0 -0.3272727,0.0537 -0.1709634,0.0537 -0.3663501,0.16283 v -0.33216 q 0.1986432,-0.0798 0.3712348,-0.12049 0.1725916,-0.0407 0.3158751,-0.0407 0.3777477,0 0.6024424,0.18888 0.2246947,0.18887 0.2246947,0.50475 0,0.14979 -0.056988,0.28494 -0.05536,0.13351 -0.2035278,0.31587 -0.040706,0.0472 -0.2588874,0.27354 -0.2181818,0.2247 -0.6154681,0.63013 z"
       style="stroke-width:0.08336499"
       id="path9086" />
  </g>
  <g
     aria-label="OUT 5"
     style="font-style:normal;font-weight:normal;font-size:2.03950191px;line-height:1.25;font-family:sans-serif;letter-spacing:0px;word-spacing:0px;fill:#000000;fill-opacity:1;stroke:none;stroke-width:0.05098754"
     id="text8942-2-7">
    <path
       d="m 2.6891286,117.72076 q -0.2190871,0 -0.3485477,0.16332 -0.1284647,0.16331 -0.1284647,0.44514 0,0.28083 0.1284647,0.44415 0.1294606,0.16332 0.3485477,0.16332 0.2190871,0 0.346556,-0.16332 0.1284647,-0.16332 0.1284647,-0.44415 0,-0.28183 -0.1284647,-0.44514 -0.1274689,-0.16332 -0.346556,-0.16332 z m 0,-0.16332 q 0.312697,0 0.4999169,0.21012 0.1872199,0.20913 0.1872199,0.56166 0,0.35154 -0.1872199,0.56166 -0.1872199,0.20913 -0.4999169,0.20913 -0.3136929,0 -0.5019087,-0.20913 Q 2,118.68175 2,118.32922 q 0,-0.35253 0.1872199,-0.56166 0.1882158,-0.21012 0.5019087,-0.21012 z"
       style="stroke-width:0.05098754"
       id="path9073" />
    <path
       d="m 3.6680496,117.58432 h 0.2021577 v 0.90324 q 0,0.239 0.086639,0.34456 0.086639,0.10457 0.2808298,0.10457 0.193195,0 0.279834,-0.10457 0.086639,-0.10556 0.086639,-0.34456 v -0.90324 h 0.2021577 v 0.92814 q 0,0.29079 -0.1443983,0.43917 -0.1434025,0.14838 -0.4242324,0.14838 -0.2818257,0 -0.426224,-0.14838 -0.1434025,-0.14838 -0.1434025,-0.43917 z"
       style="stroke-width:0.05098754"
       id="path9075" />
    <path
       d="m 4.9785888,117.58432 h 1.2577593 v 0.1693 H 5.7085473 v 1.31751 H 5.5063896 v -1.31751 H 4.9785888 Z"
       style="stroke-width:0.05098754"
       id="path9077" />
    <path
       d="M 7.1007465,117.58432 H 7.890456 v 0.1693 H 7.2849788 v 0.36448 q 0.043817,-0.0149 0.087635,-0.0219 0.043817,-0.008 0.087635,-0.008 0.2489627,0 0.3943568,0.13644 0.1453942,0.13643 0.1453942,0.36946 0,0.24 -0.1493776,0.37344 -0.1493775,0.13245 -0.4212447,0.13245 -0.09361,0 -0.1912033,-0.0159 -0.096597,-0.0159 -0.200166,-0.0478 v -0.20215 q 0.089626,0.0488 0.1852282,0.0727 0.095602,0.0239 0.2021577,0.0239 0.1722821,0 0.272863,-0.0906 0.1005809,-0.0906 0.1005809,-0.24597 0,-0.15536 -0.1005809,-0.24598 -0.1005809,-0.0906 -0.272863,-0.0906 -0.080664,0 -0.1613278,0.0179 -0.079668,0.0179 -0.1633195,0.0558 z"
       style="stroke-width:0.05098754"
       id="path9079" />
  </g>
  <g
     aria-label="OUT 6"
     style="font-style:normal;font-weight:normal;font-size:2.04834127px;line-height:1.25;font-family:sans-serif;letter-spacing:0px;word-spacing:0px;fill:#000000;fill-opacity:1;stroke:none;stroke-width:0.05120853"
     id="text8942-2-4-2">
    <path
       d="m 2.6921154,127.71477 q -0.2200367,0 -0.3500583,0.16403 -0.1290215,0.16403 -0.1290215,0.44708 0,0.28204 0.1290215,0.44607 0.1300216,0.16403 0.3500583,0.16403 0.2200367,0 0.348058,-0.16403 0.1290215,-0.16403 0.1290215,-0.44607 0,-0.28305 -0.1290215,-0.44708 -0.1280213,-0.16403 -0.348058,-0.16403 z m 0,-0.16402 q 0.3140523,0 0.5020836,0.21103 0.1880314,0.21004 0.1880314,0.5641 0,0.35305 -0.1880314,0.56409 Q 3.0061677,129.1 2.6921154,129.1 q -0.3150525,0 -0.504084,-0.21003 -0.1880313,-0.21004 -0.1880313,-0.56409 0,-0.35406 0.1880313,-0.5641 0.1890315,-0.21103 0.504084,-0.21103 z"
       style="stroke-width:0.05120853"
       id="path9064" />
    <path
       d="M 3.6752791,127.57775 H 3.878313 v 0.90715 q 0,0.24004 0.087014,0.34606 0.087015,0.10502 0.282047,0.10502 0.1940323,0 0.2810468,-0.10502 0.087015,-0.10602 0.087015,-0.34606 v -0.90715 h 0.2030338 v 0.93216 q 0,0.29204 -0.1450241,0.44107 -0.144024,0.14902 -0.426071,0.14902 -0.2830472,0 -0.4280714,-0.14902 -0.144024,-0.14903 -0.144024,-0.44107 z"
       style="stroke-width:0.05120853"
       id="path9066" />
    <path
       d="m 4.9914985,127.57775 h 1.2632104 v 0.17003 H 5.7246206 V 129.071 H 5.5215868 v -1.32322 H 4.9914985 Z"
       style="stroke-width:0.05120853"
       id="path9068" />
    <path
       d="m 7.5779293,128.24386 q -0.1360227,0 -0.216036,0.093 -0.079013,0.093 -0.079013,0.25504 0,0.16103 0.079013,0.25504 0.080013,0.093 0.216036,0.093 0.1360226,0 0.2150358,-0.093 0.080013,-0.094 0.080013,-0.25504 0,-0.16203 -0.080013,-0.25504 -0.079013,-0.093 -0.2150358,-0.093 z m 0.4010668,-0.6331 v 0.18403 q -0.076013,-0.036 -0.1540257,-0.055 -0.077013,-0.019 -0.1530255,-0.019 -0.2000333,0 -0.306051,0.13503 -0.1050175,0.13502 -0.12002,0.40806 0.05901,-0.087 0.1480247,-0.13302 0.089015,-0.047 0.1960327,-0.047 0.2250374,0 0.3550591,0.13703 0.1310218,0.13602 0.1310218,0.37106 0,0.23004 -0.1360226,0.36906 Q 7.8039669,129.1 7.5779293,129.1 q -0.2590432,0 -0.396066,-0.19803 -0.1370229,-0.19903 -0.1370229,-0.57609 0,-0.35406 0.168028,-0.5641 0.168028,-0.21103 0.4510752,-0.21103 0.076013,0 0.1530255,0.015 0.078013,0.015 0.162027,0.045 z"
       style="stroke-width:0.05120853"
       id="path9070" />
  </g>
  <g
     aria-label="OUT 7"
     style="font-style:normal;font-weight:normal;font-size:2.03814888px;line-height:1.25;font-family:sans-serif;letter-spacing:0px;word-spacing:0px;fill:#000000;fill-opacity:1;stroke:none;stroke-width:0.05095372"
     id="text8942-2-2-8">
    <path
       d="m 2.6886716,137.72167 q -0.2189418,0 -0.3483165,0.16322 -0.1283795,0.16321 -0.1283795,0.44485 0,0.28064 0.1283795,0.44385 0.1293747,0.16321 0.3483165,0.16321 0.2189418,0 0.3463261,-0.16321 0.1283795,-0.16321 0.1283795,-0.44385 0,-0.28164 -0.1283795,-0.44485 -0.1273843,-0.16322 -0.3463261,-0.16322 z m 0,-0.16321 q 0.3124896,0 0.4995853,0.20999 0.1870957,0.20899 0.1870957,0.56129 0,0.3513 -0.1870957,0.56128 -0.1870957,0.20899 -0.4995853,0.20899 -0.3134848,0 -0.5015757,-0.20899 -0.1870957,-0.20899 -0.1870957,-0.56128 0,-0.3523 0.1870957,-0.56129 0.1880909,-0.20999 0.5015757,-0.20999 z"
       style="stroke-width:0.05095372"
       id="path9055" />
    <path
       d="m 3.6669433,137.58533 h 0.2020235 v 0.90264 q 0,0.23885 0.086582,0.34434 0.086581,0.10449 0.2806435,0.10449 0.1930668,0 0.2796484,-0.10449 0.086582,-0.10549 0.086582,-0.34434 v -0.90264 h 0.2020235 v 0.92752 q 0,0.2906 -0.1443025,0.43888 -0.1433073,0.14828 -0.4239509,0.14828 -0.2816387,0 -0.4259413,-0.14828 -0.1433073,-0.14828 -0.1433073,-0.43888 z"
       style="stroke-width:0.05095372"
       id="path9057" />
    <path
       d="m 4.9766133,137.58533 h 1.2569249 v 0.16919 H 5.7060875 v 1.31663 H 5.504064 v -1.31663 H 4.9766133 Z"
       style="stroke-width:0.05095372"
       id="path9059" />
    <path
       d="m 7.044618,137.58533 h 0.9553823 v 0.0856 l -0.5393929,1.40023 h -0.209985 l 0.5075468,-1.31663 H 7.044618 Z"
       style="stroke-width:0.05095372"
       id="path9061" />
  </g>
  <g
     aria-label="OUT 8"
     style="font-style:normal;font-weight:normal;font-size:2.02638531px;line-height:1.25;font-family:sans-serif;letter-spacing:0px;word-spacing:0px;fill:#000000;fill-opacity:1;stroke:none;stroke-width:0.05065963"
     id="text8942-2-6-5">
    <path
       d="m 2.6846968,147.72962 q -0.2176781,0 -0.3463061,0.16226 -0.1276385,0.16227 -0.1276385,0.44229 0,0.27902 0.1276385,0.44129 0.128628,0.16227 0.3463061,0.16227 0.2176781,0 0.3443272,-0.16227 0.1276385,-0.16227 0.1276385,-0.44129 0,-0.28002 -0.1276385,-0.44229 -0.1266491,-0.16226 -0.3443272,-0.16226 z m 0,-0.16227 q 0.310686,0 0.4967018,0.20877 0.1860159,0.20778 0.1860159,0.55805 0,0.34927 -0.1860159,0.55804 Q 2.9953828,149.1 2.6846968,149.1 q -0.3116755,0 -0.4986808,-0.20779 -0.1860158,-0.20778 -0.1860158,-0.55804 0,-0.35027 0.1860158,-0.55805 0.1870053,-0.20877 0.4986808,-0.20877 z"
       style="stroke-width:0.05065963"
       id="path9046" />
    <path
       d="m 3.6573222,147.59406 h 0.2008575 v 0.89743 q 0,0.23747 0.086082,0.34235 0.086082,0.10389 0.2790238,0.10389 0.1919525,0 0.2780343,-0.10389 0.086082,-0.10488 0.086082,-0.34235 v -0.89743 h 0.2008575 v 0.92217 q 0,0.28891 -0.1434696,0.43634 Q 4.502309,149.1 4.2232853,149.1 q -0.2800132,0 -0.4234829,-0.14743 -0.1424802,-0.14743 -0.1424802,-0.43634 z"
       style="stroke-width:0.05065963"
       id="path9048" />
    <path
       d="m 4.9594331,147.59406 h 1.2496703 v 0.16821 H 5.684697 v 1.30903 H 5.4838395 v -1.30903 H 4.9594331 Z"
       style="stroke-width:0.05065963"
       id="path9050" />
    <path
       d="m 7.4934041,148.36979 q -0.1424802,0 -0.2246043,0.0762 -0.081135,0.0762 -0.081135,0.20977 0,0.13357 0.081135,0.20976 0.082124,0.0762 0.2246043,0.0762 0.1424802,0 0.2246042,-0.0762 0.082124,-0.0772 0.082124,-0.20976 0,-0.13358 -0.082124,-0.20977 -0.081135,-0.0762 -0.2246042,-0.0762 z m -0.1998681,-0.0851 q -0.128628,-0.0317 -0.2008575,-0.11972 -0.07124,-0.0881 -0.07124,-0.21471 0,-0.17711 0.1256597,-0.28001 0.1266491,-0.1029 0.3463061,-0.1029 0.2206464,0 0.3463061,0.1029 0.1256596,0.1029 0.1256596,0.28001 0,0.12665 -0.07223,0.21471 -0.07124,0.0881 -0.1988786,0.11972 0.1444591,0.0336 0.2246042,0.1316 0.081135,0.098 0.081135,0.23945 0,0.21471 -0.1315963,0.32948 -0.1306069,0.11478 -0.375,0.11478 -0.2443932,0 -0.3759895,-0.11478 -0.1306069,-0.11477 -0.1306069,-0.32948 0,-0.14149 0.081135,-0.23945 0.081135,-0.0979 0.2255937,-0.1316 z m -0.073219,-0.31563 q 0,0.11478 0.07124,0.17909 0.072229,0.0643 0.201847,0.0643 0.1286279,0 0.2008575,-0.0643 0.073219,-0.0643 0.073219,-0.17909 0,-0.11477 -0.073219,-0.17909 -0.07223,-0.0643 -0.2008575,-0.0643 -0.1296175,0 -0.201847,0.0643 -0.07124,0.0643 -0.07124,0.17909 z"
       style="stroke-width:0.05065963"
       id="path9052" />
  </g>
</svg>
