<?xml version="1.0" encoding="utf-8" ?>
<svg baseProfile="tiny" height="364.117313934" version="1.2" width="101.912595934" xmlns="http://www.w3.org/2000/svg" xmlns:ev="http://www.w3.org/2001/xml-events" xmlns:xlink="http://www.w3.org/1999/xlink"><defs /><g id="paths" stroke="green"><path d="M 4.893306967,359.224006967 L 61.586218967,359.224006967 L 97.019288967,323.790936967 L 97.019288967,231.664954967 L 93.475981967,228.121647967 L 93.475981967,135.995665967 L 97.019288967,132.452358967 L 97.019288967,40.326376967 L 61.586218967,4.893306967 L 4.893306967,4.893306967 L 4.893306967,359.224006967 Z" fill-opacity="0" stroke-linejoin="round" stroke-width="1.0" /></g><g fill="red" id="top_parts" stroke="red"><line stroke-linecap="round" stroke-width="0.5" x1="4.8933" x2="4.8933" y1="354.7949" y2="328.2201" /><line stroke-linecap="round" stroke-width="0.5" x1="4.8933" x2="54.4996" y1="328.2201" y2="328.2201" /><line stroke-linecap="round" stroke-width="0.5" x1="54.4996" x2="54.4996" y1="328.2201" y2="354.7949" /><line stroke-linecap="round" stroke-width="0.5" x1="54.4996" x2="4.8933" y1="354.7949" y2="354.7949" /><line stroke-linecap="round" stroke-width="0.5" x1="-11.0516" x2="-11.0516" y1="352.1374" y2="330.8776" /><line stroke-linecap="round" stroke-width="0.5" x1="-11.0516" x2="3.1217" y1="330.8776" y2="330.8776" /><line stroke-linecap="round" stroke-width="0.5" x1="3.1217" x2="3.1217" y1="330.8776" y2="352.1374" /><line stroke-linecap="round" stroke-width="0.5" x1="3.1217" x2="-11.0516" y1="352.1374" y2="352.1374" /><line stroke-linecap="round" stroke-width="0.5" x1="3.1217" x2="3.1217" y1="353.909" y2="329.1059" /><line stroke-linecap="round" stroke-width="0.5" x1="3.1217" x2="4.8933" y1="329.1059" y2="329.1059" /><line stroke-linecap="round" stroke-width="0.5" x1="4.8933" x2="4.8933" y1="329.1059" y2="353.909" /><line stroke-linecap="round" stroke-width="0.5" x1="4.8933" x2="3.1217" y1="353.909" y2="353.909" /><text font-family="monospace" font-size="2" stroke-width="0.1" text-anchor="middle" x="4.893306967" y="341.507471967">OUT8</text><line stroke-linecap="round" stroke-width="0.5" x1="4.8933" x2="4.8933" y1="248.4957" y2="221.9209" /><line stroke-linecap="round" stroke-width="0.5" x1="4.8933" x2="54.4996" y1="221.9209" y2="221.9209" /><line stroke-linecap="round" stroke-width="0.5" x1="54.4996" x2="54.4996" y1="221.9209" y2="248.4957" /><line stroke-linecap="round" stroke-width="0.5" x1="54.4996" x2="4.8933" y1="248.4957" y2="248.4957" /><line stroke-linecap="round" stroke-width="0.5" x1="-11.0516" x2="-11.0516" y1="245.8382" y2="224.5783" /><line stroke-linecap="round" stroke-width="0.5" x1="-11.0516" x2="3.1217" y1="224.5783" y2="224.5783" /><line stroke-linecap="round" stroke-width="0.5" x1="3.1217" x2="3.1217" y1="224.5783" y2="245.8382" /><line stroke-linecap="round" stroke-width="0.5" x1="3.1217" x2="-11.0516" y1="245.8382" y2="245.8382" /><line stroke-linecap="round" stroke-width="0.5" x1="3.1217" x2="3.1217" y1="247.6098" y2="222.8067" /><line stroke-linecap="round" stroke-width="0.5" x1="3.1217" x2="4.8933" y1="222.8067" y2="222.8067" /><line stroke-linecap="round" stroke-width="0.5" x1="4.8933" x2="4.8933" y1="222.8067" y2="247.6098" /><line stroke-linecap="round" stroke-width="0.5" x1="4.8933" x2="3.1217" y1="247.6098" y2="247.6098" /><text font-family="monospace" font-size="2" stroke-width="0.1" text-anchor="middle" x="4.893306967" y="235.208261967">OUT5</text><line stroke-linecap="round" stroke-width="0.5" x1="4.8933" x2="4.8933" y1="106.7634" y2="80.1886" /><line stroke-linecap="round" stroke-width="0.5" x1="4.8933" x2="54.4996" y1="80.1886" y2="80.1886" /><line stroke-linecap="round" stroke-width="0.5" x1="54.4996" x2="54.4996" y1="80.1886" y2="106.7634" /><line stroke-linecap="round" stroke-width="0.5" x1="54.4996" x2="4.8933" y1="106.7634" y2="106.7634" /><line stroke-linecap="round" stroke-width="0.5" x1="-11.0516" x2="-11.0516" y1="104.1059" y2="82.8461" /><line stroke-linecap="round" stroke-width="0.5" x1="-11.0516" x2="3.1217" y1="82.8461" y2="82.8461" /><line stroke-linecap="round" stroke-width="0.5" x1="3.1217" x2="3.1217" y1="82.8461" y2="104.1059" /><line stroke-linecap="round" stroke-width="0.5" x1="3.1217" x2="-11.0516" y1="104.1059" y2="104.1059" /><line stroke-linecap="round" stroke-width="0.5" x1="3.1217" x2="3.1217" y1="105.8776" y2="81.0744" /><line stroke-linecap="round" stroke-width="0.5" x1="3.1217" x2="4.8933" y1="81.0744" y2="81.0744" /><line stroke-linecap="round" stroke-width="0.5" x1="4.8933" x2="4.8933" y1="81.0744" y2="105.8776" /><line stroke-linecap="round" stroke-width="0.5" x1="4.8933" x2="3.1217" y1="105.8776" y2="105.8776" /><text font-family="monospace" font-size="2" stroke-width="0.1" text-anchor="middle" x="4.893306967" y="93.475981967">OUT2</text><line stroke-linecap="round" stroke-width="0.5" x1="4.8933" x2="4.8933" y1="213.0626" y2="186.4878" /><line stroke-linecap="round" stroke-width="0.5" x1="4.8933" x2="54.4996" y1="186.4878" y2="186.4878" /><line stroke-linecap="round" stroke-width="0.5" x1="54.4996" x2="54.4996" y1="186.4878" y2="213.0626" /><line stroke-linecap="round" stroke-width="0.5" x1="54.4996" x2="4.8933" y1="213.0626" y2="213.0626" /><line stroke-linecap="round" stroke-width="0.5" x1="-11.0516" x2="-11.0516" y1="210.4051" y2="189.1453" /><line stroke-linecap="round" stroke-width="0.5" x1="-11.0516" x2="3.1217" y1="189.1453" y2="189.1453" /><line stroke-linecap="round" stroke-width="0.5" x1="3.1217" x2="3.1217" y1="189.1453" y2="210.4051" /><line stroke-linecap="round" stroke-width="0.5" x1="3.1217" x2="-11.0516" y1="210.4051" y2="210.4051" /><line stroke-linecap="round" stroke-width="0.5" x1="3.1217" x2="3.1217" y1="212.1768" y2="187.3736" /><line stroke-linecap="round" stroke-width="0.5" x1="3.1217" x2="4.8933" y1="187.3736" y2="187.3736" /><line stroke-linecap="round" stroke-width="0.5" x1="4.8933" x2="4.8933" y1="187.3736" y2="212.1768" /><line stroke-linecap="round" stroke-width="0.5" x1="4.8933" x2="3.1217" y1="212.1768" y2="212.1768" /><text font-family="monospace" font-size="2" stroke-width="0.1" text-anchor="middle" x="4.893306967" y="199.775191967">IN2</text><line stroke-linecap="round" stroke-width="0.5" x1="4.8933" x2="4.8933" y1="142.1965" y2="115.6217" /><line stroke-linecap="round" stroke-width="0.5" x1="4.8933" x2="54.4996" y1="115.6217" y2="115.6217" /><line stroke-linecap="round" stroke-width="0.5" x1="54.4996" x2="54.4996" y1="115.6217" y2="142.1965" /><line stroke-linecap="round" stroke-width="0.5" x1="54.4996" x2="4.8933" y1="142.1965" y2="142.1965" /><line stroke-linecap="round" stroke-width="0.5" x1="-11.0516" x2="-11.0516" y1="139.539" y2="118.2791" /><line stroke-linecap="round" stroke-width="0.5" x1="-11.0516" x2="3.1217" y1="118.2791" y2="118.2791" /><line stroke-linecap="round" stroke-width="0.5" x1="3.1217" x2="3.1217" y1="118.2791" y2="139.539" /><line stroke-linecap="round" stroke-width="0.5" x1="3.1217" x2="-11.0516" y1="139.539" y2="139.539" /><line stroke-linecap="round" stroke-width="0.5" x1="3.1217" x2="3.1217" y1="141.3106" y2="116.5075" /><line stroke-linecap="round" stroke-width="0.5" x1="3.1217" x2="4.8933" y1="116.5075" y2="116.5075" /><line stroke-linecap="round" stroke-width="0.5" x1="4.8933" x2="4.8933" y1="116.5075" y2="141.3106" /><line stroke-linecap="round" stroke-width="0.5" x1="4.8933" x2="3.1217" y1="141.3106" y2="141.3106" /><text font-family="monospace" font-size="2" stroke-width="0.1" text-anchor="middle" x="4.893306967" y="128.909051967">OUT3</text><line stroke-linecap="round" stroke-width="0.5" x1="59.1236" x2="59.1236" y1="110.9976" y2="40.5213" /><line stroke-linecap="round" stroke-width="0.5" x1="59.1236" x2="92.3953" y1="40.5213" y2="40.5213" /><line stroke-linecap="round" stroke-width="0.5" x1="92.3953" x2="92.3953" y1="40.5213" y2="110.9976" /><line stroke-linecap="round" stroke-width="0.5" x1="92.3953" x2="59.1236" y1="110.9976" y2="110.9976" /><circle cx="65.778" cy="47.1756" r="0.8858" stroke-width="0.5" /><text font-family="monospace" font-size="2" stroke-width="0.1" text-anchor="middle" x="75.759446967" y="75.759446967">U1</text><line stroke-linecap="round" stroke-width="0.5" x1="4.8933" x2="4.8933" y1="35.8972" y2="9.3224" /><line stroke-linecap="round" stroke-width="0.5" x1="4.8933" x2="54.4996" y1="9.3224" y2="9.3224" /><line stroke-linecap="round" stroke-width="0.5" x1="54.4996" x2="54.4996" y1="9.3224" y2="35.8972" /><line stroke-linecap="round" stroke-width="0.5" x1="54.4996" x2="4.8933" y1="35.8972" y2="35.8972" /><line stroke-linecap="round" stroke-width="0.5" x1="-11.0516" x2="-11.0516" y1="33.2398" y2="11.9799" /><line stroke-linecap="round" stroke-width="0.5" x1="-11.0516" x2="3.1217" y1="11.9799" y2="11.9799" /><line stroke-linecap="round" stroke-width="0.5" x1="3.1217" x2="3.1217" y1="11.9799" y2="33.2398" /><line stroke-linecap="round" stroke-width="0.5" x1="3.1217" x2="-11.0516" y1="33.2398" y2="33.2398" /><line stroke-linecap="round" stroke-width="0.5" x1="3.1217" x2="3.1217" y1="35.0114" y2="10.2083" /><line stroke-linecap="round" stroke-width="0.5" x1="3.1217" x2="4.8933" y1="10.2083" y2="10.2083" /><line stroke-linecap="round" stroke-width="0.5" x1="4.8933" x2="4.8933" y1="10.2083" y2="35.0114" /><line stroke-linecap="round" stroke-width="0.5" x1="4.8933" x2="3.1217" y1="35.0114" y2="35.0114" /><text font-family="monospace" font-size="2" stroke-width="0.1" text-anchor="middle" x="4.893306967" y="22.609841967">IN1</text><line stroke-linecap="round" stroke-width="0.5" x1="59.1236" x2="59.1236" y1="323.5961" y2="253.1197" /><line stroke-linecap="round" stroke-width="0.5" x1="59.1236" x2="92.3953" y1="253.1197" y2="253.1197" /><line stroke-linecap="round" stroke-width="0.5" x1="92.3953" x2="92.3953" y1="253.1197" y2="323.5961" /><line stroke-linecap="round" stroke-width="0.5" x1="92.3953" x2="59.1236" y1="323.5961" y2="323.5961" /><circle cx="65.778" cy="259.774" r="0.8858" stroke-width="0.5" /><text font-family="monospace" font-size="2" stroke-width="0.1" text-anchor="middle" x="75.759446967" y="288.357866967">U2</text><line stroke-linecap="round" stroke-width="0.5" x1="4.8933" x2="4.8933" y1="283.9287" y2="257.3539" /><line stroke-linecap="round" stroke-width="0.5" x1="4.8933" x2="54.4996" y1="257.3539" y2="257.3539" /><line stroke-linecap="round" stroke-width="0.5" x1="54.4996" x2="54.4996" y1="257.3539" y2="283.9287" /><line stroke-linecap="round" stroke-width="0.5" x1="54.4996" x2="4.8933" y1="283.9287" y2="283.9287" /><line stroke-linecap="round" stroke-width="0.5" x1="-11.0516" x2="-11.0516" y1="281.2713" y2="260.0114" /><line stroke-linecap="round" stroke-width="0.5" x1="-11.0516" x2="3.1217" y1="260.0114" y2="260.0114" /><line stroke-linecap="round" stroke-width="0.5" x1="3.1217" x2="3.1217" y1="260.0114" y2="281.2713" /><line stroke-linecap="round" stroke-width="0.5" x1="3.1217" x2="-11.0516" y1="281.2713" y2="281.2713" /><line stroke-linecap="round" stroke-width="0.5" x1="3.1217" x2="3.1217" y1="283.0429" y2="258.2398" /><line stroke-linecap="round" stroke-width="0.5" x1="3.1217" x2="4.8933" y1="258.2398" y2="258.2398" /><line stroke-linecap="round" stroke-width="0.5" x1="4.8933" x2="4.8933" y1="258.2398" y2="283.0429" /><line stroke-linecap="round" stroke-width="0.5" x1="4.8933" x2="3.1217" y1="283.0429" y2="283.0429" /><text font-family="monospace" font-size="2" stroke-width="0.1" text-anchor="middle" x="4.893306967" y="270.641331967">OUT6</text><line stroke-linecap="round" stroke-width="0.5" x1="4.8933" x2="4.8933" y1="319.3618" y2="292.787" /><line stroke-linecap="round" stroke-width="0.5" x1="4.8933" x2="54.4996" y1="292.787" y2="292.787" /><line stroke-linecap="round" stroke-width="0.5" x1="54.4996" x2="54.4996" y1="292.787" y2="319.3618" /><line stroke-linecap="round" stroke-width="0.5" x1="54.4996" x2="4.8933" y1="319.3618" y2="319.3618" /><line stroke-linecap="round" stroke-width="0.5" x1="-11.0516" x2="-11.0516" y1="316.7043" y2="295.4445" /><line stroke-linecap="round" stroke-width="0.5" x1="-11.0516" x2="3.1217" y1="295.4445" y2="295.4445" /><line stroke-linecap="round" stroke-width="0.5" x1="3.1217" x2="3.1217" y1="295.4445" y2="316.7043" /><line stroke-linecap="round" stroke-width="0.5" x1="3.1217" x2="-11.0516" y1="316.7043" y2="316.7043" /><line stroke-linecap="round" stroke-width="0.5" x1="3.1217" x2="3.1217" y1="318.476" y2="293.6728" /><line stroke-linecap="round" stroke-width="0.5" x1="3.1217" x2="4.8933" y1="293.6728" y2="293.6728" /><line stroke-linecap="round" stroke-width="0.5" x1="4.8933" x2="4.8933" y1="293.6728" y2="318.476" /><line stroke-linecap="round" stroke-width="0.5" x1="4.8933" x2="3.1217" y1="318.476" y2="318.476" /><text font-family="monospace" font-size="2" stroke-width="0.1" text-anchor="middle" x="4.893306967" y="306.074401967">OUT7</text><line stroke-linecap="round" stroke-width="0.5" x1="4.8933" x2="4.8933" y1="71.3303" y2="44.7555" /><line stroke-linecap="round" stroke-width="0.5" x1="4.8933" x2="54.4996" y1="44.7555" y2="44.7555" /><line stroke-linecap="round" stroke-width="0.5" x1="54.4996" x2="54.4996" y1="44.7555" y2="71.3303" /><line stroke-linecap="round" stroke-width="0.5" x1="54.4996" x2="4.8933" y1="71.3303" y2="71.3303" /><line stroke-linecap="round" stroke-width="0.5" x1="-11.0516" x2="-11.0516" y1="68.6728" y2="47.413" /><line stroke-linecap="round" stroke-width="0.5" x1="-11.0516" x2="3.1217" y1="47.413" y2="47.413" /><line stroke-linecap="round" stroke-width="0.5" x1="3.1217" x2="3.1217" y1="47.413" y2="68.6728" /><line stroke-linecap="round" stroke-width="0.5" x1="3.1217" x2="-11.0516" y1="68.6728" y2="68.6728" /><line stroke-linecap="round" stroke-width="0.5" x1="3.1217" x2="3.1217" y1="70.4445" y2="45.6413" /><line stroke-linecap="round" stroke-width="0.5" x1="3.1217" x2="4.8933" y1="45.6413" y2="45.6413" /><line stroke-linecap="round" stroke-width="0.5" x1="4.8933" x2="4.8933" y1="45.6413" y2="70.4445" /><line stroke-linecap="round" stroke-width="0.5" x1="4.8933" x2="3.1217" y1="70.4445" y2="70.4445" /><text font-family="monospace" font-size="2" stroke-width="0.1" text-anchor="middle" x="4.893306967" y="58.042911967">OUT1</text><line stroke-linecap="round" stroke-width="0.5" x1="60.7004" x2="60.7004" y1="231.665" y2="132.4524" /><line stroke-linecap="round" stroke-width="0.5" x1="60.7004" x2="90.8185" y1="132.4524" y2="132.4524" /><line stroke-linecap="round" stroke-width="0.5" x1="90.8185" x2="90.8185" y1="132.4524" y2="231.665" /><line stroke-linecap="round" stroke-width="0.5" x1="90.8185" x2="60.7004" y1="231.665" y2="231.665" /><text font-family="monospace" font-size="2" stroke-width="0.1" text-anchor="middle" x="75.759446967" y="182.058656967">J1</text><line stroke-linecap="round" stroke-width="0.5" x1="4.8933" x2="4.8933" y1="177.6295" y2="151.0547" /><line stroke-linecap="round" stroke-width="0.5" x1="4.8933" x2="54.4996" y1="151.0547" y2="151.0547" /><line stroke-linecap="round" stroke-width="0.5" x1="54.4996" x2="54.4996" y1="151.0547" y2="177.6295" /><line stroke-linecap="round" stroke-width="0.5" x1="54.4996" x2="4.8933" y1="177.6295" y2="177.6295" /><line stroke-linecap="round" stroke-width="0.5" x1="-11.0516" x2="-11.0516" y1="174.972" y2="153.7122" /><line stroke-linecap="round" stroke-width="0.5" x1="-11.0516" x2="3.1217" y1="153.7122" y2="153.7122" /><line stroke-linecap="round" stroke-width="0.5" x1="3.1217" x2="3.1217" y1="153.7122" y2="174.972" /><line stroke-linecap="round" stroke-width="0.5" x1="3.1217" x2="-11.0516" y1="174.972" y2="174.972" /><line stroke-linecap="round" stroke-width="0.5" x1="3.1217" x2="3.1217" y1="176.7437" y2="151.9405" /><line stroke-linecap="round" stroke-width="0.5" x1="3.1217" x2="4.8933" y1="151.9405" y2="151.9405" /><line stroke-linecap="round" stroke-width="0.5" x1="4.8933" x2="4.8933" y1="151.9405" y2="176.7437" /><line stroke-linecap="round" stroke-width="0.5" x1="4.8933" x2="3.1217" y1="176.7437" y2="176.7437" /><text font-family="monospace" font-size="2" stroke-width="0.1" text-anchor="middle" x="4.893306967" y="164.342121967">OUT4</text></g><g fill="blue" id="bottom_parts" stroke="blue"><line stroke-linecap="round" stroke-width="0.5" x1="34.9747" x2="34.9747" y1="347.7083" y2="353.0232" /><line stroke-linecap="round" stroke-width="0.5" x1="34.9747" x2="45.678" y1="353.0232" y2="353.0232" /><line stroke-linecap="round" stroke-width="0.5" x1="45.678" x2="45.678" y1="353.0232" y2="347.7083" /><line stroke-linecap="round" stroke-width="0.5" x1="45.678" x2="34.9747" y1="347.7083" y2="347.7083" /><text font-family="monospace" font-size="2" stroke-width="0.1" text-anchor="middle" x="40.326376967" y="350.365739467">R8</text><line stroke-linecap="round" stroke-width="0.5" x1="58.0796" x2="58.0796" y1="291.0153" y2="285.7004" /><line stroke-linecap="round" stroke-width="0.5" x1="58.0796" x2="47.3763" y1="285.7004" y2="285.7004" /><line stroke-linecap="round" stroke-width="0.5" x1="47.3763" x2="47.3763" y1="285.7004" y2="291.0153" /><line stroke-linecap="round" stroke-width="0.5" x1="47.3763" x2="58.0796" y1="291.0153" y2="291.0153" /><text font-family="monospace" font-size="2" stroke-width="0.1" text-anchor="middle" x="52.727951467" y="288.357866967">C3</text><line stroke-linecap="round" stroke-width="0.5" x1="34.9747" x2="34.9747" y1="276.8421" y2="282.1571" /><line stroke-linecap="round" stroke-width="0.5" x1="34.9747" x2="45.678" y1="282.1571" y2="282.1571" /><line stroke-linecap="round" stroke-width="0.5" x1="45.678" x2="45.678" y1="282.1571" y2="276.8421" /><line stroke-linecap="round" stroke-width="0.5" x1="45.678" x2="34.9747" y1="276.8421" y2="276.8421" /><text font-family="monospace" font-size="2" stroke-width="0.1" text-anchor="middle" x="40.326376967" y="279.499599467">R6</text><line stroke-linecap="round" stroke-width="0.5" x1="34.9747" x2="34.9747" y1="117.3933" y2="122.7083" /><line stroke-linecap="round" stroke-width="0.5" x1="34.9747" x2="45.678" y1="122.7083" y2="122.7083" /><line stroke-linecap="round" stroke-width="0.5" x1="45.678" x2="45.678" y1="122.7083" y2="117.3933" /><line stroke-linecap="round" stroke-width="0.5" x1="45.678" x2="34.9747" y1="117.3933" y2="117.3933" /><text font-family="monospace" font-size="2" stroke-width="0.1" text-anchor="middle" x="40.326376967" y="120.050784467">R3</text><line stroke-linecap="round" stroke-width="0.5" x1="34.9747" x2="34.9747" y1="241.409" y2="246.724" /><line stroke-linecap="round" stroke-width="0.5" x1="34.9747" x2="45.678" y1="246.724" y2="246.724" /><line stroke-linecap="round" stroke-width="0.5" x1="45.678" x2="45.678" y1="246.724" y2="241.409" /><line stroke-linecap="round" stroke-width="0.5" x1="45.678" x2="34.9747" y1="241.409" y2="241.409" /><text font-family="monospace" font-size="2" stroke-width="0.1" text-anchor="middle" x="40.326376967" y="244.066529467">R5</text><line stroke-linecap="round" stroke-width="0.5" x1="83.0232" x2="77.7083" y1="275.9196" y2="275.9196" /><line stroke-linecap="round" stroke-width="0.5" x1="77.7083" x2="77.7083" y1="275.9196" y2="286.6229" /><line stroke-linecap="round" stroke-width="0.5" x1="77.7083" x2="83.0232" y1="286.6229" y2="286.6229" /><line stroke-linecap="round" stroke-width="0.5" x1="83.0232" x2="83.0232" y1="286.6229" y2="275.9196" /><text font-family="monospace" font-size="2" stroke-width="0.1" text-anchor="middle" x="80.365746067" y="281.271252967">C4</text><line stroke-linecap="round" stroke-width="0.5" x1="34.9747" x2="34.9747" y1="312.2752" y2="317.5901" /><line stroke-linecap="round" stroke-width="0.5" x1="34.9747" x2="45.678" y1="317.5901" y2="317.5901" /><line stroke-linecap="round" stroke-width="0.5" x1="45.678" x2="45.678" y1="317.5901" y2="312.2752" /><line stroke-linecap="round" stroke-width="0.5" x1="45.678" x2="34.9747" y1="312.2752" y2="312.2752" /><text font-family="monospace" font-size="2" stroke-width="0.1" text-anchor="middle" x="40.326376967" y="314.932669467">R7</text><line stroke-linecap="round" stroke-width="0.5" x1="77.7083" x2="83.0232" y1="88.1977" y2="88.1977" /><line stroke-linecap="round" stroke-width="0.5" x1="83.0232" x2="83.0232" y1="88.1977" y2="77.4944" /><line stroke-linecap="round" stroke-width="0.5" x1="83.0232" x2="77.7083" y1="77.4944" y2="77.4944" /><line stroke-linecap="round" stroke-width="0.5" x1="77.7083" x2="77.7083" y1="77.4944" y2="88.1977" /><text font-family="monospace" font-size="2" stroke-width="0.1" text-anchor="middle" x="80.365746067" y="82.846060967">C2</text><line stroke-linecap="round" stroke-width="0.5" x1="58.0796" x2="58.0796" y1="78.4169" y2="73.102" /><line stroke-linecap="round" stroke-width="0.5" x1="58.0796" x2="47.3763" y1="73.102" y2="73.102" /><line stroke-linecap="round" stroke-width="0.5" x1="47.3763" x2="47.3763" y1="73.102" y2="78.4169" /><line stroke-linecap="round" stroke-width="0.5" x1="47.3763" x2="58.0796" y1="78.4169" y2="78.4169" /><text font-family="monospace" font-size="2" stroke-width="0.1" text-anchor="middle" x="52.727951467" y="75.759446967">C1</text><line stroke-linecap="round" stroke-width="0.5" x1="34.9747" x2="34.9747" y1="152.8264" y2="158.1413" /><line stroke-linecap="round" stroke-width="0.5" x1="34.9747" x2="45.678" y1="158.1413" y2="158.1413" /><line stroke-linecap="round" stroke-width="0.5" x1="45.678" x2="45.678" y1="158.1413" y2="152.8264" /><line stroke-linecap="round" stroke-width="0.5" x1="45.678" x2="34.9747" y1="152.8264" y2="152.8264" /><text font-family="monospace" font-size="2" stroke-width="0.1" text-anchor="middle" x="40.326376967" y="155.483854467">R4</text><line stroke-linecap="round" stroke-width="0.5" x1="34.9747" x2="34.9747" y1="81.9602" y2="87.2752" /><line stroke-linecap="round" stroke-width="0.5" x1="34.9747" x2="45.678" y1="87.2752" y2="87.2752" /><line stroke-linecap="round" stroke-width="0.5" x1="45.678" x2="45.678" y1="87.2752" y2="81.9602" /><line stroke-linecap="round" stroke-width="0.5" x1="45.678" x2="34.9747" y1="81.9602" y2="81.9602" /><text font-family="monospace" font-size="2" stroke-width="0.1" text-anchor="middle" x="40.326376967" y="84.617714467">R2</text><line stroke-linecap="round" stroke-width="0.5" x1="34.9747" x2="34.9747" y1="46.5272" y2="51.8421" /><line stroke-linecap="round" stroke-width="0.5" x1="34.9747" x2="45.678" y1="51.8421" y2="51.8421" /><line stroke-linecap="round" stroke-width="0.5" x1="45.678" x2="45.678" y1="51.8421" y2="46.5272" /><line stroke-linecap="round" stroke-width="0.5" x1="45.678" x2="34.9747" y1="46.5272" y2="46.5272" /><text font-family="monospace" font-size="2" stroke-width="0.1" text-anchor="middle" x="40.326376967" y="49.184644467">R1</text></g></svg>