<?xml version="1.0" encoding="utf-8" ?>
<svg baseProfile="tiny" height="364.117313934" version="1.2" width="101.912595934" xmlns="http://www.w3.org/2000/svg" xmlns:ev="http://www.w3.org/2001/xml-events" xmlns:xlink="http://www.w3.org/1999/xlink"><defs /><g id="paths" stroke="blue"><path d="M 4.893306967,359.224006967 L 61.586218967,359.224006967 L 97.019288967,323.790936967 L 97.019288967,231.664954967 L 93.475981967,228.121647967 L 93.475981967,135.995665967 L 97.019288967,132.452358967 L 97.019288967,40.326376967 L 61.586218967,4.893306967 L 4.893306967,4.893306967 L 4.893306967,359.224006967 Z" fill-opacity="0" stroke-linejoin="round" stroke-width="1.0" /></g><g fill="red" id="holes"><circle cx="71.2594" cy="261.3579" r="0.585" stroke-width="0.0" /><circle cx="84.6177" cy="277.5508" r="0.585" stroke-width="0.0" /><circle cx="75.7594" cy="297.3579" r="0.585" stroke-width="0.0" /><circle cx="80.2594" cy="57.7594" r="0.585" stroke-width="0.0" /><circle cx="75.7594" cy="306.3579" r="0.585" stroke-width="0.0" /><circle cx="75.7594" cy="84.7594" r="0.585" stroke-width="0.0" /><circle cx="75.7594" cy="93.7594" r="0.585" stroke-width="0.0" /><circle cx="71.2594" cy="57.7594" r="0.585" stroke-width="0.0" /><circle cx="71.2594" cy="66.7594" r="0.585" stroke-width="0.0" /><circle cx="80.2594" cy="66.7594" r="0.585" stroke-width="0.0" /><circle cx="75.7594" cy="102.7594" r="0.585" stroke-width="0.0" /><circle cx="80.2594" cy="48.7594" r="0.585" stroke-width="0.0" /><circle cx="80.2594" cy="261.3579" r="0.585" stroke-width="0.0" /><circle cx="84.2634" cy="86.5665" r="0.585" stroke-width="0.0" /><circle cx="71.2594" cy="279.3579" r="0.585" stroke-width="0.0" /><circle cx="75.7594" cy="315.3579" r="0.585" stroke-width="0.0" /><circle cx="71.2594" cy="48.7594" r="0.585" stroke-width="0.0" /><circle cx="71.2594" cy="270.3579" r="0.585" stroke-width="0.0" /><circle cx="80.2594" cy="270.3579" r="0.585" stroke-width="0.0" /><circle cx="10.5626" cy="341.5075" r="4.4291" stroke-width="0.0" /><circle cx="29.3421" cy="341.5075" r="4.4291" stroke-width="0.0" /><circle cx="49.8933" cy="341.5075" r="4.4291" stroke-width="0.0" /><circle cx="10.5626" cy="235.2083" r="4.4291" stroke-width="0.0" /><circle cx="29.3421" cy="235.2083" r="4.4291" stroke-width="0.0" /><circle cx="49.8933" cy="235.2083" r="4.4291" stroke-width="0.0" /><circle cx="10.5626" cy="93.476" r="4.4291" stroke-width="0.0" /><circle cx="29.3421" cy="93.476" r="4.4291" stroke-width="0.0" /><circle cx="49.8933" cy="93.476" r="4.4291" stroke-width="0.0" /><circle cx="10.5626" cy="199.7752" r="4.4291" stroke-width="0.0" /><circle cx="29.3421" cy="199.7752" r="4.4291" stroke-width="0.0" /><circle cx="49.8933" cy="199.7752" r="4.4291" stroke-width="0.0" /><circle cx="10.5626" cy="128.9091" r="4.4291" stroke-width="0.0" /><circle cx="29.3421" cy="128.9091" r="4.4291" stroke-width="0.0" /><circle cx="49.8933" cy="128.9091" r="4.4291" stroke-width="0.0" /><circle cx="61.6925" cy="48.7594" r="1.3287" stroke-width="0.0" /><circle cx="61.6925" cy="57.7594" r="1.3287" stroke-width="0.0" /><circle cx="61.6925" cy="66.7594" r="1.3287" stroke-width="0.0" /><circle cx="61.6925" cy="75.7594" r="1.3287" stroke-width="0.0" /><circle cx="61.6925" cy="84.7594" r="1.3287" stroke-width="0.0" /><circle cx="61.6925" cy="93.7594" r="1.3287" stroke-width="0.0" /><circle cx="61.6925" cy="102.7594" r="1.3287" stroke-width="0.0" /><circle cx="89.8264" cy="102.7594" r="1.3287" stroke-width="0.0" /><circle cx="89.8264" cy="93.7594" r="1.3287" stroke-width="0.0" /><circle cx="89.8264" cy="84.7594" r="1.3287" stroke-width="0.0" /><circle cx="89.8264" cy="75.7594" r="1.3287" stroke-width="0.0" /><circle cx="89.8264" cy="66.7594" r="1.3287" stroke-width="0.0" /><circle cx="89.8264" cy="57.7594" r="1.3287" stroke-width="0.0" /><circle cx="89.8264" cy="48.7594" r="1.3287" stroke-width="0.0" /><circle cx="10.5626" cy="22.6098" r="4.4291" stroke-width="0.0" /><circle cx="29.3421" cy="22.6098" r="4.4291" stroke-width="0.0" /><circle cx="49.8933" cy="22.6098" r="4.4291" stroke-width="0.0" /><circle cx="61.6925" cy="261.3579" r="1.3287" stroke-width="0.0" /><circle cx="61.6925" cy="270.3579" r="1.3287" stroke-width="0.0" /><circle cx="61.6925" cy="279.3579" r="1.3287" stroke-width="0.0" /><circle cx="61.6925" cy="288.3579" r="1.3287" stroke-width="0.0" /><circle cx="61.6925" cy="297.3579" r="1.3287" stroke-width="0.0" /><circle cx="61.6925" cy="306.3579" r="1.3287" stroke-width="0.0" /><circle cx="61.6925" cy="315.3579" r="1.3287" stroke-width="0.0" /><circle cx="89.8264" cy="315.3579" r="1.3287" stroke-width="0.0" /><circle cx="89.8264" cy="306.3579" r="1.3287" stroke-width="0.0" /><circle cx="89.8264" cy="297.3579" r="1.3287" stroke-width="0.0" /><circle cx="89.8264" cy="288.3579" r="1.3287" stroke-width="0.0" /><circle cx="89.8264" cy="279.3579" r="1.3287" stroke-width="0.0" /><circle cx="89.8264" cy="270.3579" r="1.3287" stroke-width="0.0" /><circle cx="89.8264" cy="261.3579" r="1.3287" stroke-width="0.0" /><circle cx="10.5626" cy="270.6413" r="4.4291" stroke-width="0.0" /><circle cx="29.3421" cy="270.6413" r="4.4291" stroke-width="0.0" /><circle cx="49.8933" cy="270.6413" r="4.4291" stroke-width="0.0" /><circle cx="10.5626" cy="306.0744" r="4.4291" stroke-width="0.0" /><circle cx="29.3421" cy="306.0744" r="4.4291" stroke-width="0.0" /><circle cx="49.8933" cy="306.0744" r="4.4291" stroke-width="0.0" /><circle cx="10.5626" cy="58.0429" r="4.4291" stroke-width="0.0" /><circle cx="29.3421" cy="58.0429" r="4.4291" stroke-width="0.0" /><circle cx="49.8933" cy="58.0429" r="4.4291" stroke-width="0.0" /><circle cx="71.2594" cy="150.5587" r="2.3917" stroke-width="0.0" /><circle cx="71.2594" cy="159.5587" r="2.3917" stroke-width="0.0" /><circle cx="71.2594" cy="168.5587" r="2.3917" stroke-width="0.0" /><circle cx="71.2594" cy="177.5587" r="2.3917" stroke-width="0.0" /><circle cx="71.2594" cy="186.5587" r="2.3917" stroke-width="0.0" /><circle cx="71.2594" cy="195.5587" r="2.3917" stroke-width="0.0" /><circle cx="71.2594" cy="204.5587" r="2.3917" stroke-width="0.0" /><circle cx="71.2594" cy="213.5587" r="2.3917" stroke-width="0.0" /><circle cx="80.2594" cy="150.5587" r="2.3917" stroke-width="0.0" /><circle cx="80.2594" cy="159.5587" r="2.3917" stroke-width="0.0" /><circle cx="80.2594" cy="168.5587" r="2.3917" stroke-width="0.0" /><circle cx="80.2594" cy="177.5587" r="2.3917" stroke-width="0.0" /><circle cx="80.2594" cy="186.5587" r="2.3917" stroke-width="0.0" /><circle cx="80.2594" cy="195.5587" r="2.3917" stroke-width="0.0" /><circle cx="80.2594" cy="204.5587" r="2.3917" stroke-width="0.0" /><circle cx="80.2594" cy="213.5587" r="2.3917" stroke-width="0.0" /><circle cx="10.5626" cy="164.3421" r="4.4291" stroke-width="0.0" /><circle cx="29.3421" cy="164.3421" r="4.4291" stroke-width="0.0" /><circle cx="49.8933" cy="164.3421" r="4.4291" stroke-width="0.0" /></g><g id="rulers" stroke="black" /></svg>